<svg xmlns="http://www.w3.org/2000/svg" viewBox="0 0 500 500"><g id="freepik--background-complete--inject-42"><rect width="500" height=".25" y="382.4" style="fill:#ebebeb"/><rect width="33.12" height=".25" x="416.78" y="398.49" style="fill:#ebebeb"/><rect width="8.69" height=".25" x="322.53" y="401.21" style="fill:#ebebeb"/><rect width="19.19" height=".25" x="396.59" y="389.21" style="fill:#ebebeb"/><rect width="43.19" height=".25" x="52.46" y="390.89" style="fill:#ebebeb"/><rect width="6.33" height=".25" x="104.56" y="390.89" style="fill:#ebebeb"/><rect width="93.68" height=".25" x="131.47" y="395.11" style="fill:#ebebeb"/><path d="M237,337.8H43.91a5.71,5.71,0,0,1-5.7-5.71V60.66A5.71,5.71,0,0,1,43.91,55H237a5.71,5.71,0,0,1,5.71,5.71V332.09A5.71,5.71,0,0,1,237,337.8ZM43.91,55.2a5.46,5.46,0,0,0-5.45,5.46V332.09a5.46,5.46,0,0,0,5.45,5.46H237a5.47,5.47,0,0,0,5.46-5.46V60.66A5.47,5.47,0,0,0,237,55.2Z" style="fill:#ebebeb"/><path d="M453.31,337.8H260.21a5.72,5.72,0,0,1-5.71-5.71V60.66A5.72,5.72,0,0,1,260.21,55h193.1A5.71,5.71,0,0,1,459,60.66V332.09A5.71,5.71,0,0,1,453.31,337.8ZM260.21,55.2a5.47,5.47,0,0,0-5.46,5.46V332.09a5.47,5.47,0,0,0,5.46,5.46h193.1a5.47,5.47,0,0,0,5.46-5.46V60.66a5.47,5.47,0,0,0-5.46-5.46Z" style="fill:#ebebeb"/><rect width="226.23" height="129.78" x="194.29" y="82.42" style="fill:#e6e6e6"/><rect width="229.45" height="129.78" x="197.12" y="82.42" style="fill:#f0f0f0"/><rect width="226.23" height="11.24" x="194.29" y="212.2" style="fill:#e6e6e6"/><rect width="229.45" height="11.24" x="207.19" y="212.2" style="fill:#f0f0f0"/><rect width="112.85" height="212.52" x="255.42" y="41.05" transform="translate(459.15 -164.54) rotate(90)" style="fill:#fafafa"/><polygon points="221.2 203.73 270.88 90.88 294.34 90.88 244.65 203.73 221.2 203.73" style="fill:#fff"/><path d="M209.5,195.31a.61.61,0,0,1-.6-.61V96.39a.61.61,0,0,1,1.21,0V194.7A.61.61,0,0,1,209.5,195.31Z" style="fill:#f0f0f0"/><polygon points="249.69 203.73 299.38 90.88 308.52 90.88 258.83 203.73 249.69 203.73" style="fill:#fff"/><rect width="112.85" height="1.07" x="361.14" y="146.77" transform="translate(564.87 -270.26) rotate(90)" style="fill:#e6e6e6"/><polygon points="428.57 103.65 202.34 103.65 201.56 94.17 427.79 94.17 428.57 103.65" style="fill:#ebebeb;opacity:.6000000000000001"/><polygon points="428.57 119.18 202.34 119.18 201.56 109.71 427.79 109.71 428.57 119.18" style="fill:#ebebeb;opacity:.6000000000000001"/><polygon points="428.57 134.72 202.34 134.72 201.56 125.25 427.79 125.25 428.57 134.72" style="fill:#ebebeb;opacity:.6000000000000001"/><polygon points="428.57 150.26 202.34 150.26 201.56 140.78 427.79 140.78 428.57 150.26" style="fill:#ebebeb;opacity:.6000000000000001"/><polygon points="428.57 165.8 202.34 165.8 201.56 156.32 427.79 156.32 428.57 165.8" style="fill:#ebebeb;opacity:.6000000000000001"/><polygon points="428.57 181.33 202.34 181.33 201.56 171.86 427.79 171.86 428.57 181.33" style="fill:#ebebeb;opacity:.6000000000000001"/><rect width="77.58" height="104.12" x="64.55" y="119.31" style="fill:#e6e6e6"/><rect width="81.82" height="104.12" x="65.72" y="119.31" style="fill:#f0f0f0"/><rect width="90.41" height="68.11" x="61.42" y="137.32" transform="translate(278 64.74) rotate(90)" style="fill:#fff"/><path d="M106.16,195.28l-12.5-12.5a16.15,16.15,0,0,1,0-22.81l12.5-12.51a.67.67,0,0,1,.93,0L119.6,160a16.15,16.15,0,0,1,0,22.81l-12.51,12.5A.65.65,0,0,1,106.16,195.28Zm.47-46.42-12,12a14.84,14.84,0,0,0,0,20.95l12,12,12-12a14.82,14.82,0,0,0,0-20.95Z" style="fill:#f0f0f0"/><path d="M223.34,275.27h0c-.51,0-1,0-1.55.05-11,.88-19.82,11.32-20.52,24.18A30.44,30.44,0,0,0,202,308a151.32,151.32,0,0,1,3.47,33.77v33.17c0,2.4,1.66,4.35,3.71,4.35h73.2v-104Z" style="fill:#f0f0f0"/><path d="M304.48,301.2c0-14.92-10.75-26.9-23.67-25.87-11,.88-19.83,11.32-20.52,24.18A30.07,30.07,0,0,0,261,308a151.32,151.32,0,0,1,3.47,33.77v33.17c0,2.4,1.66,4.35,3.71,4.35h28.36c2,0,3.71-1.95,3.71-4.35V339.78a137.91,137.91,0,0,1,3.43-31.65A30.23,30.23,0,0,0,304.48,301.2Z" style="fill:#fafafa"/><rect width="77.25" height="58.79" x="174.63" y="320.45" style="fill:#f5f5f5"/><path d="M126.13,250H211a18.13,18.13,0,0,1,18.13,18.13v62.26a0,0,0,0,1,0,0H108a0,0,0,0,1,0,0V268.13A18.13,18.13,0,0,1,126.13,250Z" style="fill:#e6e6e6"/><path d="M139.32,250h76.43a17.87,17.87,0,0,1,17.87,17.87v62.52a0,0,0,0,1,0,0H121.44a0,0,0,0,1,0,0V267.87A17.87,17.87,0,0,1,139.32,250Z" style="fill:#f5f5f5"/><path d="M179.61,318.33h72.2a3.89,3.89,0,0,1,3.89,3.89v6.26a3.89,3.89,0,0,1-3.89,3.89h-72.2a1.16,1.16,0,0,1-1.16-1.16V319.49a1.16,1.16,0,0,1,1.16-1.16Z" style="fill:#ebebeb"/><path d="M98.94,379.24H283.47a0,0,0,0,1,0,0v.24a2.92,2.92,0,0,1-2.92,2.92H101.85a2.92,2.92,0,0,1-2.92-2.92v-.24a0,0,0,0,1,0,0Z" style="fill:#e6e6e6"/><path d="M100.05,275.27h0c-.51,0-1,0-1.55.05-11,.88-19.83,11.32-20.52,24.18a30.44,30.44,0,0,0,.71,8.44,151.32,151.32,0,0,1,3.47,33.77v33.17c0,2.4,1.66,4.35,3.71,4.35h89.81v-104Z" style="fill:#f0f0f0"/><path d="M197.8,301.2c0-14.92-10.75-26.9-23.67-25.87-11,.88-19.82,11.32-20.52,24.18a30.44,30.44,0,0,0,.71,8.44,151.32,151.32,0,0,1,3.47,33.77v33.17c0,2.4,1.66,4.35,3.71,4.35h28.36c2,0,3.72-1.95,3.72-4.35V339.78A137.9,137.9,0,0,1,197,308.13,30.23,30.23,0,0,0,197.8,301.2Z" style="fill:#fafafa"/><path d="M401.42,284.08a4.41,4.41,0,0,0,3.18-7.48c-2-2.06-5.28-3.74-10.5-3.74s-8.46,1.68-10.49,3.74a4.41,4.41,0,0,0,3.17,7.48Z" style="fill:#f5f5f5"/><path d="M416.11,282.44a2.83,2.83,0,0,0,2-4.8c-1.3-1.33-3.39-2.4-6.74-2.4s-5.44,1.07-6.74,2.4a2.83,2.83,0,0,0,2,4.8Z" style="fill:#f5f5f5"/><path d="M379,281.17s.57,5.83,22.48,5.83,22.49-5.83,22.49-5.83Z" style="fill:#f0f0f0"/><path d="M355.76,271.36a3.55,3.55,0,0,0-.56.06v-2a1.58,1.58,0,0,0-1.58-1.59h-8.49a1.59,1.59,0,0,0-1.58,1.59V287H355.2v-2.84a5.32,5.32,0,0,0,.56.06,4.68,4.68,0,0,0,4.67-4.67V276A4.68,4.68,0,0,0,355.76,271.36Zm2.67,8.19a2.68,2.68,0,0,1-2.67,2.67,2.6,2.6,0,0,1-.56-.06v-8.74a2.6,2.6,0,0,1,.56-.06,2.68,2.68,0,0,1,2.67,2.67Z" style="fill:#e6e6e6"/><rect width="43.42" height="95.4" x="321.92" y="287" style="fill:#e6e6e6"/><rect width="76.38" height="95.4" x="365.34" y="287" transform="translate(807.05 669.4) rotate(180)" style="fill:#f5f5f5"/><rect width="91.4" height="68.38" x="357.82" y="302.51" transform="translate(740.22 -66.82) rotate(90)" style="fill:#e6e6e6"/><rect width="91.4" height="17.26" x="332.27" y="328.07" transform="translate(714.67 -41.27) rotate(90)" style="fill:#e0e0e0"/><rect width="4" height="70.54" x="402.61" y="301.43" transform="translate(741.31 -67.91) rotate(90)" style="fill:#f5f5f5"/><polygon points="392.33 334.7 377.33 334.7 381.78 301.84 392.33 301.84 392.33 334.7" style="fill:#e6e6e6"/><polygon points="414.33 334.7 385.92 334.7 380.63 296.24 409.04 296.24 414.33 334.7" style="fill:#f0f0f0"/><polygon points="418.13 334.7 388.56 334.7 383.27 296.24 412.84 296.24 418.13 334.7" style="fill:#f5f5f5"/><polygon points="391.17 331.67 386.72 299.27 410.22 299.27 414.68 331.67 391.17 331.67" style="fill:#fff"/><path d="M397,321.24l-1.48-10.73a3,3,0,0,1,3-3.39h2.88a3,3,0,0,1,3,2.58l1.47,10.72a3,3,0,0,1-3,3.4H400A3,3,0,0,1,397,321.24Z" style="fill:#f5f5f5"/></g><g id="freepik--Character--inject-42"><polygon points="190.18 408.74 197.52 408.74 198.25 391.72 190.91 391.72 190.18 408.74" style="fill:#ffc3bd"/><polygon points="198.25 391.73 197.88 400.5 190.53 400.5 190.9 391.73 198.25 391.73" style="opacity:.2"/><polygon points="136.33 402.97 143.51 404.52 150.72 388.68 143.54 387.12 136.33 402.97" style="fill:#ffc3bd"/><polygon points="143.53 387.13 150.72 388.68 147 396.85 139.82 395.3 143.53 387.13" style="opacity:.2"/><path d="M174.47,169.25c-2.52,4.43-5.06,9-7.49,13.55s-4.81,9.13-6.83,13.69c-.53,1.15-1,2.28-1.44,3.41,0,.11,0,0,0,0v0s0,0,0,0,0,.07,0,.15a3.47,3.47,0,0,0,0,.87,11.67,11.67,0,0,0,.89,2.74,31.75,31.75,0,0,0,1.56,3.07,111.4,111.4,0,0,0,8.65,12.36l-3.78,4a64.67,64.67,0,0,1-12-11.49,26.34,26.34,0,0,1-4.63-8.25,12.58,12.58,0,0,1-.56-3,10.22,10.22,0,0,1,0-1.82,8.69,8.69,0,0,1,.16-1c0-.16.08-.33.12-.5l.13-.43c.44-1.34.87-2.7,1.36-4a152.29,152.29,0,0,1,6.56-14.94c2.42-4.82,4.95-9.48,7.77-14.14Z" style="fill:#ffc3bd"/><path d="M168.39,217.81l5.16,1.7-4.34,7.3s-3.78-1.71-4.54-5.19Z" style="fill:#ffc3bd"/><polygon points="180.58 222.33 175.56 227.95 169.21 226.81 173.55 219.51 180.58 222.33" style="fill:#ffc3bd"/><path d="M199.13,129.36c.12.58.52,1,.9.91s.59-.61.47-1.19-.52-1-.9-.91S199,128.78,199.13,129.36Z" style="fill:#263238"/><path d="M199.6,130.36a21.21,21.21,0,0,0,3.78,4.4,3.4,3.4,0,0,1-2.67,1.08Z" style="fill:#ed847e"/><path d="M196.35,126.57a.37.37,0,0,1-.24-.1.35.35,0,0,1,0-.49,3.47,3.47,0,0,1,3-1.15.35.35,0,0,1,.29.4.36.36,0,0,1-.4.29h0a2.76,2.76,0,0,0-2.34.93A.33.33,0,0,1,196.35,126.57Z" style="fill:#263238"/><path d="M182.59,137.52c1,5.38,2.1,15.23-1.66,18.81,0,0,1.47,5.45,11.46,5.45,11,0,5.25-5.45,5.25-5.45-6-1.43-5.84-5.87-4.8-10.05Z" style="fill:#ffc3bd"/><path d="M179.43,157.54c-.8-1-1.67-2.25.13-2.63,2-.41,12.87-.84,16.62-.06s2.68,2.91,2.68,2.91Z" style="fill:#fff"/><path d="M146.31,405.52a2.38,2.38,0,0,0,1.83-.1.71.71,0,0,0,.17-.81.79.79,0,0,0-.45-.51c-1-.48-3.27.45-3.37.49a.19.19,0,0,0-.11.16.19.19,0,0,0,.1.16A9.17,9.17,0,0,0,146.31,405.52Zm1.19-1.18.21.07a.46.46,0,0,1,.26.3c.1.31,0,.41-.06.44-.39.34-1.86,0-2.89-.39A5.82,5.82,0,0,1,147.5,404.34Z" style="fill:#407bff"/><path d="M144.52,404.92h.08c.84-.24,2.61-1.51,2.63-2.34a.56.56,0,0,0-.44-.56.94.94,0,0,0-.77.06c-1,.5-1.6,2.53-1.63,2.62a.17.17,0,0,0,0,.17A.2.2,0,0,0,144.52,404.92Zm2.08-2.6.07,0c.22.07.22.18.22.22,0,.49-1.19,1.48-2,1.89a4.22,4.22,0,0,1,1.34-2.07A.63.63,0,0,1,146.6,402.32Z" style="fill:#407bff"/><path d="M200.47,409.11c.95,0,1.86-.13,2.16-.55a.66.66,0,0,0,0-.76.89.89,0,0,0-.56-.41c-1.22-.33-3.79,1.13-3.89,1.2a.16.16,0,0,0-.09.18.18.18,0,0,0,.14.14A13.29,13.29,0,0,0,200.47,409.11Zm1.17-1.42a1.15,1.15,0,0,1,.33,0,.49.49,0,0,1,.34.24c.13.22.08.33,0,.39-.34.47-2.2.48-3.57.29A7.87,7.87,0,0,1,201.64,407.69Z" style="fill:#407bff"/><path d="M198.25,408.91h.07c.89-.4,2.65-2,2.51-2.82,0-.2-.17-.44-.64-.49a1.33,1.33,0,0,0-1,.3c-.93.77-1.13,2.75-1.14,2.83a.17.17,0,0,0,.07.16A.19.19,0,0,0,198.25,408.91Zm1.8-3h.1c.31,0,.33.15.34.19.08.5-1.11,1.75-2,2.29a4.15,4.15,0,0,1,1-2.26A1,1,0,0,1,200.05,405.93Z" style="fill:#407bff"/><path d="M144.2,403.8l-8.07-1.74a.62.62,0,0,0-.71.36l-2.8,6.07a1.07,1.07,0,0,0,.77,1.5c2.83.57,4.23.7,7.78,1.47,2.18.47,7.11,1.67,10.12,2.32s4.05-2.24,2.88-2.78c-5.27-2.41-7.47-4.53-8.9-6.5A1.81,1.81,0,0,0,144.2,403.8Z" style="fill:#263238"/><path d="M197.47,407.89h-8a.65.65,0,0,0-.63.5l-1.45,6.53a1.07,1.07,0,0,0,1.06,1.3c2.89,0,7.08-.21,10.71-.21,4.26,0,7.93.23,12.92.23,3,0,3.85-3.05,2.59-3.33-5.75-1.25-10.44-1.39-15.41-4.45A3.41,3.41,0,0,0,197.47,407.89Z" style="fill:#263238"/><path d="M200.11,158.14c5.7-.59,11.6-1.34,17.31-2.24A107.71,107.71,0,0,0,234,152.2c.63-.21,1.23-.44,1.83-.68a11.39,11.39,0,0,0,1.44-.7c1.1-.62,2.31-1.37,3.49-2.16,2.38-1.59,4.8-3.27,7.19-5l14.51-10.43,3.68,4.11c-4.08,4.51-8.33,8.79-12.8,12.92-2.24,2.06-4.52,4.1-7,6.06-1.23,1-2.46,2-3.91,2.91a21.07,21.07,0,0,1-2.49,1.46c-.78.37-1.56.72-2.33,1a71,71,0,0,1-9.16,3c-3,.82-6.07,1.47-9.1,2.05A171.72,171.72,0,0,1,201,169.24Z" style="fill:#ffc3bd"/><path d="M167.78,158c-6.89,1.58-18.45,35.77-18.45,35.77l11.25,3.74s11.48-17,15.38-25.21C180,163.7,174.82,156.38,167.78,158Z" style="fill:#263238"/><path d="M162.54,195.82s-11-2.1-13.53-3.66c-.88,1.27-2,5.9-1.22,7.26s11,3.34,12.37,2.53S162.54,195.82,162.54,195.82Z" style="fill:#263238"/><path d="M162.54,195.82s-11-2.1-13.53-3.66c-.88,1.27-2,5.9-1.22,7.26s11,3.34,12.37,2.53S162.54,195.82,162.54,195.82Z" style="fill:#fafafa;opacity:.2"/><path d="M208.94,158.37s7.81,8.83.43,63.5H170.08c-.27-6,3.52-35.46-2.3-63.88a102.56,102.56,0,0,1,13.15-1.66,145.44,145.44,0,0,1,16.71,0A73.8,73.8,0,0,1,208.94,158.37Z" style="fill:#263238"/><path d="M195,170.06c7.05,7.27,42.39-7.23,42.39-7.23l-5.67-10.91s-22.1,4.59-31.18,4.41C189.34,156.1,189.67,164.53,195,170.06Z" style="fill:#263238"/><path d="M230,151.71s5.63,9.71,6.08,12.62c1.55-.16,5.75-2.37,6.3-3.83s-4.67-10.48-6.19-11S230,151.71,230,151.71Z" style="fill:#263238"/><path d="M230,151.71s5.63,9.71,6.08,12.62c1.55-.16,5.75-2.37,6.3-3.83s-4.67-10.48-6.19-11S230,151.71,230,151.71Z" style="fill:#fafafa;opacity:.2"/><path d="M262.23,133.33l5-5.89,5.38,6s-3.32,5.57-8.59,4.69Z" style="fill:#ffc3bd"/><polygon points="274.26 124.66 279.11 127.44 272.66 133.41 267.27 127.44 274.26 124.66" style="fill:#ffc3bd"/><path d="M179.51,132.06c1.89,7.05,2.64,11.26,7,14.19,6.54,4.41,14.68-.65,14.93-8.11.23-6.72-2.89-17.11-10.45-18.53A9.94,9.94,0,0,0,179.51,132.06Z" style="fill:#ffc3bd"/><path d="M194.94,105.28c5,10.52-20.95,4.69-21.13,14.24v0h0c0,.4,0,.76,0,1.11-.74-.69-2.23-1.45-4.8-.41a11.09,11.09,0,0,1,4,2.61c-1,.85-2.52,1.3-1.87,5.37.31,2,2.3,5,4.89,7.66,1.13,1.81,4.8,5.92,4.73,6.91a4,4,0,0,0,1.63-.34,2.62,2.62,0,0,1,.21,1.19c1.36.26,2.43.07,2.55-.87,1.11.1,1.91-.2,1.95-1.09,1.06.15,1.79-.19,1.74-1.33,2.52-1.38,3.38-4.29,3.84-7.54a16.54,16.54,0,0,1,5.77-10.54C203.54,118.18,205.54,111.76,194.94,105.28Z" style="fill:#263238"/><path d="M189.63,131.69a8.21,8.21,0,0,0,3,4.38c1.92,1.42,3.34,0,3.21-2.14-.12-2-1.27-5-3.38-5.61S189.08,129.57,189.63,131.69Z" style="fill:#ffc3bd"/><path d="M195.43,221.87S187.09,278,182.52,299c-5,23-31.82,96.88-31.82,96.88l-13.15-2.85s20.07-69.13,22.93-91.94c3.1-24.75,9.6-79.26,9.6-79.26Z" style="fill:#407bff"/><path d="M195.43,221.87S187.09,278,182.52,299c-5,23-31.82,96.88-31.82,96.88l-13.15-2.85s20.07-69.13,22.93-91.94c3.1-24.75,9.6-79.26,9.6-79.26Z" style="opacity:.5"/><path d="M190.16,241.87c-9.64,1.89-8.62,37.84-7.46,56.33,2.78-13.07,6.85-38.22,9.63-56.07A3.29,3.29,0,0,0,190.16,241.87Z" style="opacity:.30000000000000004"/><path d="M209.37,221.87s1,54.93.21,77.33c-.83,23.3-9,99.6-9,99.6H188.17s-.46-74.94-1-97.82c-.61-25-3.62-79.11-3.62-79.11Z" style="fill:#407bff"/><path d="M209.37,221.87s1,54.93.21,77.33c-.83,23.3-9,99.6-9,99.6H188.17s-.46-74.94-1-97.82c-.61-25-3.62-79.11-3.62-79.11Z" style="opacity:.5"/><path d="M198,389.86h0a.12.12,0,0,1-.11-.14c2.19-21.1,7.36-72.18,8-90.53.67-18.74.07-60.68-.14-73.09a.13.13,0,0,1,.13-.13h0a.12.12,0,0,1,.12.12c.21,12.41.81,54.36.14,73.11-.65,18.36-5.82,69.44-8,90.55A.12.12,0,0,1,198,389.86Z" style="fill:#fafafa;opacity:.2"/><path d="M153.85,391.53c.06,0-2.45,4.75-2.45,4.75l-14.79-3.2,1.24-4.45Z" style="fill:#263238"/><path d="M203,393.84c.06,0-.7,5.17-.7,5.17H187.17l-.41-4.61Z" style="fill:#263238"/></g></svg>