<svg xmlns="http://www.w3.org/2000/svg" viewBox="0 0 750 500"><g id="freepik--background-simple--inject-77"><path d="M680.54,268.54a464.09,464.09,0,0,0-75.13-98.69c-31.58-31.62-63.77-53-105.3-66.82A308.41,308.41,0,0,0,413.2,87.3c-54.78-1.85-100,11.2-145,44.11C220,166.69,175,206.62,127.94,243.68q-7.36,5.81-14.79,11.51C31.15,318.14-8.68,430,46.77,457.29H684.84s58-3.07,43.73-65.44A456.34,456.34,0,0,0,680.54,268.54Z" style="fill:#407BFF"></path><path d="M680.54,268.54a464.09,464.09,0,0,0-75.13-98.69c-31.58-31.62-63.77-53-105.3-66.82A308.41,308.41,0,0,0,413.2,87.3c-54.78-1.85-100,11.2-145,44.11C220,166.69,175,206.62,127.94,243.68q-7.36,5.81-14.79,11.51C31.15,318.14-8.68,430,46.77,457.29H684.84s58-3.07,43.73-65.44A456.34,456.34,0,0,0,680.54,268.54Z" style="fill:#fff;opacity:0.7000000000000001"></path></g><g id="freepik--Floor--inject-77"><path d="M732.24,457.79H713.65a.5.5,0,0,1-.5-.5.5.5,0,0,1,.5-.5h18.59a.5.5,0,0,1,.5.5A.5.5,0,0,1,732.24,457.79Z"></path><path d="M705.68,457.79h-681a.5.5,0,0,1-.5-.5.5.5,0,0,1,.5-.5h681a.5.5,0,0,1,.5.5A.51.51,0,0,1,705.68,457.79Z"></path></g><g id="freepik--Plant--inject-77"><path d="M601.88,330.07c2.73,1.19,9.42,1,9.43,1s-1.44-4.38-1.57-4.64c-1.47-3.07-6.11-8.15-9.89-7.63a4.51,4.51,0,0,0-3.62,5.65C596.86,327.11,599.55,329.05,601.88,330.07Z" style="fill:#263238"></path><path d="M604.18,349.45c2.84.41,8.81-1.32,9.29-1.46a78.83,78.83,0,0,0,3.62,10c.82,1.91,1.71,3.8,2.62,5.68-.54-.8-1-1.51-1.12-1.6-2.22-2.57-8-6.24-11.55-4.75a4.51,4.51,0,0,0-2,6.41c1.3,2.36,4.4,3.53,6.92,3.89s7.67-1,9-1.38l1.07,2.16c1.73,3.44,3.47,6.87,5.07,10.28.57,1.21,1.08,2.41,1.6,3.62-.49-.71-.9-1.3-1-1.39-2.23-2.57-8-6.24-11.55-4.75a4.51,4.51,0,0,0-2,6.41c1.29,2.36,4.4,3.53,6.91,3.89s7.18-.87,8.78-1.31c.5,1.25,1,2.5,1.41,3.73.27.85.59,1.65.81,2.51s.48,1.7.71,2.54c.39,1.63.8,3.31,1.14,4.9.25,1.11.46,2.18.68,3.25-.55-1.21-1.67-3.54-1.79-3.73-1.81-2.88-7-7.38-10.7-6.44a4.51,4.51,0,0,0-2.94,6c.92,2.53,3.81,4.15,6.24,4.89,2.68.82,8.6.08,9.34,0,.36,1.77.69,3.49,1,5.13.16.86.29,1.67.42,2.49h2.36c-.18-.94-.36-1.9-.56-2.91-.35-1.8-.76-3.71-1.21-5.68a47.36,47.36,0,0,0,5.22-2.45c2,2.11,7,4.59,7.59,4.9-.68,1.68-1.35,3.3-2,4.82-.2.46-.39.88-.59,1.32h2.49c.06-.15.12-.29.18-.45.7-1.69,1.41-3.52,2.13-5.4.71.15,6.58,1.34,9.31.72,2.48-.56,5.49-2,6.6-4.41a4.52,4.52,0,0,0-2.49-6.24c-3.61-1.21-9.13,2.89-11.15,5.63-.12.16-1.22,2.06-1.89,3.27.29-.77.57-1.51.86-2.31.58-1.57,1.11-3.16,1.68-4.86.25-.84.5-1.68.76-2.53s.44-1.75.68-2.64c.49-2.06.88-4.18,1.24-6.31,1.37.5,6.29,2.21,8.84,2s5.72-1.11,7.19-3.37a4.51,4.51,0,0,0-1.52-6.54c-3.39-1.74-9.46,1.48-11.87,3.88-.15.15-1.69,2.07-2.52,3.13.21-1.28.41-2.57.58-3.88.47-3.78.82-7.62,1.2-11.45.11-1.17.24-2.34.36-3.51.49.19,6.29,2.35,9.14,2.15,2.54-.18,5.72-1.11,7.19-3.37a4.5,4.5,0,0,0-1.52-6.54c-3.38-1.75-9.46,1.48-11.87,3.88-.18.18-2.39,2.94-2.92,3.67.27-2.58.57-5.14,1-7.65a79.43,79.43,0,0,1,2.2-10.07c.23.09,6.27,2.37,9.2,2.16,2.53-.18,5.71-1.11,7.18-3.36a4.51,4.51,0,0,0-1.51-6.54c-3.39-1.75-9.47,1.47-11.88,3.87-.19.19-2.56,3.16-2.95,3.73,0-.19.09-.39.15-.58a57.36,57.36,0,0,1,4-9.53c.86-1.7,1.79-3.27,2.72-4.78,1.08.54,6.06,3,8.71,3.06s5.8-.47,7.51-2.55a4.51,4.51,0,0,0-.79-6.67c-3.18-2.11-9.57.43-12.23,2.55-.14.11-1.48,1.45-2.45,2.44.43-.68.87-1.38,1.29-2,1.6-2.4,3.21-4.51,4.65-6.35.82-1,1.59-2,2.32-2.84,1.34,0,6.73-.19,9.09-1.29s4.93-3.1,5.49-5.73a4.52,4.52,0,0,0-3.77-5.56c-3.79-.41-8.3,4.79-9.68,7.9-.12.27-1.51,4.69-1.44,4.68h.08c-.72.82-1.48,1.7-2.29,2.68-1.48,1.82-3.14,3.89-4.79,6.27a79.72,79.72,0,0,0-5,7.92,58,58,0,0,0-4.25,9.56l0,.12c0-1.12,0-4.24-.06-4.48-.44-3.38-3.27-9.64-7-10.34a4.51,4.51,0,0,0-5.2,4.25c-.22,2.68,1.72,5.36,3.62,7.06,2.14,1.91,8.07,3.76,8.55,3.9a79.13,79.13,0,0,0-2.51,10.36c-.37,2-.67,4.1-.95,6.18,0-1,0-1.83-.05-2-.43-3.38-3.26-9.64-7-10.34a4.51,4.51,0,0,0-5.2,4.25c-.22,2.68,1.72,5.36,3.62,7.06s6.95,3.39,8.29,3.82c-.1.8-.21,1.59-.3,2.39-.46,3.83-.9,7.65-1.45,11.38-.19,1.31-.43,2.6-.66,3.89,0-.85,0-1.58,0-1.69-.44-3.37-3.27-9.64-7-10.33a4.5,4.5,0,0,0-5.2,4.24c-.22,2.68,1.72,5.37,3.62,7.06s6.46,3.23,8,3.75c-.28,1.31-.56,2.63-.89,3.89-.24.85-.41,1.7-.71,2.54s-.54,1.68-.81,2.51c-.57,1.57-1.15,3.2-1.75,4.72-.4,1.06-.81,2.07-1.22,3.08.21-1.31.56-3.88.56-4.09a17.55,17.55,0,0,0-2.35-8.53,5.49,5.49,0,0,0-.06-1,4.51,4.51,0,0,0-5.52-3.83c-3.68,1-6,7.45-6.19,10.85,0,.2.12,2.38.22,3.76-.18-.8-.35-1.58-.55-2.4-.39-1.63-.82-3.24-1.28-5-.25-.84-.51-1.67-.76-2.52s-.6-1.72-.89-2.58c-.73-2-1.57-4-2.45-6,1.42-.34,6.47-1.62,8.49-3.18s4.16-4.08,4.14-6.77a4.52,4.52,0,0,0-4.87-4.62c-3.79.41-7.08,6.45-7.77,9.78,0,.21-.27,2.66-.36,4-.54-1.19-1.08-2.37-1.67-3.56-1.69-3.41-3.51-6.81-5.31-10.21-.55-1-1.09-2.08-1.63-3.13.5-.11,6.54-1.51,8.81-3.25,2-1.55,4.15-4.08,4.13-6.77a4.51,4.51,0,0,0-4.87-4.62c-3.79.41-7.08,6.45-7.77,9.78,0,.25-.37,3.77-.4,4.67-1.2-2.29-2.37-4.6-3.43-6.91a81.9,81.9,0,0,1-3.72-9.61c.24,0,6.54-1.49,8.87-3.27,2-1.55,4.15-4.08,4.13-6.77a4.51,4.51,0,0,0-4.87-4.62c-3.79.41-7.08,6.45-7.77,9.78-.05.27-.39,4.06-.4,4.75-.06-.19-.14-.38-.2-.57a58.91,58.91,0,0,1-1.93-10.15c-.21-1.89-.31-3.72-.36-5.49,1.2-.15,6.68-.88,8.95-2.25s4.58-3.6,4.85-6.27A4.5,4.5,0,0,0,621.3,318c-3.81,0-7.74,5.63-8.79,8.87-.06.18-.44,2-.7,3.38,0-.8,0-1.62,0-2.39,0-2.88.19-5.52.37-7.86.11-1.33.24-2.53.37-3.65,1.11-.75,5.51-3.87,6.87-6.09s2.41-5.3,1.42-7.81a4.51,4.51,0,0,0-6.21-2.55c-3.39,1.75-4.28,8.57-3.72,11.93,0,.29,1.33,4.74,1.39,4.7l.06-.05c-.15,1.08-.29,2.23-.43,3.5-.23,2.33-.47,5-.54,7.87a83.27,83.27,0,0,0,.22,9.35,59.1,59.1,0,0,0,1.74,10.31l0,.12c-.6-.94-2.36-3.52-2.52-3.7-2.23-2.58-8-6.24-11.55-4.75a4.51,4.51,0,0,0-2,6.41C598.57,347.92,601.67,349.08,604.18,349.45Z" style="fill:#263238"></path><path d="M669.56,331.54c.05,0,1.21-4.45,1.25-4.74.47-3.37-.6-10.16-4-11.82a4.51,4.51,0,0,0-6.14,2.72c-.92,2.53.24,5.63,1.63,7.77C663.89,328,669.55,331.54,669.56,331.54Z" style="fill:#263238"></path><path d="M618.65,408.26h49.66a0,0,0,0,1,0,0v32a17,17,0,0,1-17,17H635.67a17,17,0,0,1-17-17v-32A0,0,0,0,1,618.65,408.26Z" style="fill:#fff"></path><path d="M651.29,457.79H635.67a17.54,17.54,0,0,1-17.52-17.52V407.76h50.66v32.51A17.54,17.54,0,0,1,651.29,457.79Zm-32.14-49v31.51a16.54,16.54,0,0,0,16.52,16.52h15.62a16.54,16.54,0,0,0,16.52-16.52V408.76Z" style="fill:#263238"></path><path d="M668.31,433.22v-6c-3.95,3.11-9.08,2.42-12.83.05-6.81-4.3-14.76-.94-15.09-.79a2.62,2.62,0,1,0,2.09,4.8s5.78-2.38,10.2.42a17.78,17.78,0,0,0,9.47,2.86A15.27,15.27,0,0,0,668.31,433.22Z" style="fill:#fff"></path><path d="M662.15,435a18.27,18.27,0,0,1-9.73-2.94c-4.16-2.63-9.69-.4-9.74-.38a3.12,3.12,0,1,1-2.49-5.72c.34-.15,8.54-3.6,15.56.83,3.13,2,8.21,3.15,12.25,0l.81-.64v7.39l-.3.13A15.76,15.76,0,0,1,662.15,435Zm-14.59-5.23a9.9,9.9,0,0,1,5.39,1.45,16.15,16.15,0,0,0,14.86,1.64v-4.73c-4.3,2.77-9.4,1.52-12.6-.5-6.57-4.15-14.3-.89-14.62-.75a2.12,2.12,0,1,0,1.69,3.88A15.23,15.23,0,0,1,647.56,429.8Zm20.75,3.42h0Z" style="fill:#263238"></path><path d="M618.65,432.44a38.71,38.71,0,0,0,11-3.64c8.7-4.18,23.81-10.17,27.25-3.3a2.62,2.62,0,0,0,4.69-2.34c-4.16-8.3-15.66-8-34.2.92a34.55,34.55,0,0,1-8.7,3Z" style="fill:#fff"></path><path d="M618.15,433V426.7l.41-.07a35.05,35.05,0,0,0,8.57-3c18.83-9.06,30.56-9.29,34.86-.69a3.12,3.12,0,0,1-5.58,2.79c-3.36-6.74-19.71.22-26.58,3.52a39.37,39.37,0,0,1-11.11,3.68Zm1-5.49v4.32a39.79,39.79,0,0,0,10.25-3.5c8.86-4.26,24.28-10.33,27.91-3.07a2.12,2.12,0,0,0,2.84,1,2.08,2.08,0,0,0,1.06-1.23,2.12,2.12,0,0,0-.11-1.62c-4-8-15.29-7.62-33.54,1.15A36.46,36.46,0,0,1,619.15,427.53Z" style="fill:#263238"></path><path d="M627,420.26a1.85,1.85,0,1,1-1.84-1.85A1.84,1.84,0,0,1,627,420.26Z" style="fill:#fff"></path><path d="M625.17,422.6a2.34,2.34,0,1,1,2.34-2.34A2.35,2.35,0,0,1,625.17,422.6Zm0-3.68a1.34,1.34,0,1,0,1.34,1.34A1.35,1.35,0,0,0,625.17,418.92Z" style="fill:#263238"></path><path d="M637.62,416.57a1.85,1.85,0,1,1-1.85-1.84A1.84,1.84,0,0,1,637.62,416.57Z" style="fill:#fff"></path><path d="M635.77,418.92a2.35,2.35,0,1,1,2.35-2.35A2.35,2.35,0,0,1,635.77,418.92Zm0-3.69a1.35,1.35,0,1,0,1.35,1.34A1.34,1.34,0,0,0,635.77,415.23Z" style="fill:#263238"></path><path d="M650.07,413.8a1.85,1.85,0,1,1-1.84-1.84A1.84,1.84,0,0,1,650.07,413.8Z" style="fill:#fff"></path><path d="M648.23,416.15a2.35,2.35,0,1,1,2.34-2.35A2.35,2.35,0,0,1,648.23,416.15Zm0-3.69a1.35,1.35,0,1,0,1.34,1.34A1.35,1.35,0,0,0,648.23,412.46Z" style="fill:#263238"></path><path d="M662.29,415.42a1.85,1.85,0,1,1-1.84-1.85A1.84,1.84,0,0,1,662.29,415.42Z" style="fill:#fff"></path><path d="M660.45,417.76a2.35,2.35,0,1,1,2.34-2.34A2.35,2.35,0,0,1,660.45,417.76Zm0-3.69a1.35,1.35,0,1,0,0,2.69,1.35,1.35,0,0,0,0-2.69Z" style="fill:#263238"></path><path d="M647.07,434.79a1.85,1.85,0,1,1-1.84-1.85A1.84,1.84,0,0,1,647.07,434.79Z" style="fill:#fff"></path><path d="M645.23,437.13a2.35,2.35,0,1,1,2.34-2.34A2.35,2.35,0,0,1,645.23,437.13Zm0-3.69a1.35,1.35,0,1,0,0,2.69,1.35,1.35,0,0,0,0-2.69Z" style="fill:#263238"></path><path d="M656.3,438.48a1.85,1.85,0,1,1-1.85-1.85A1.84,1.84,0,0,1,656.3,438.48Z" style="fill:#fff"></path><path d="M654.45,440.82a2.35,2.35,0,1,1,2.35-2.34A2.34,2.34,0,0,1,654.45,440.82Zm0-3.69a1.35,1.35,0,1,0,1.35,1.35A1.35,1.35,0,0,0,654.45,437.13Z" style="fill:#263238"></path><path d="M665.52,438.48a1.85,1.85,0,1,1-1.84-1.85A1.84,1.84,0,0,1,665.52,438.48Z" style="fill:#fff"></path><path d="M663.68,440.82a2.35,2.35,0,1,1,2.34-2.34A2.35,2.35,0,0,1,663.68,440.82Zm0-3.69a1.35,1.35,0,1,0,0,2.69,1.35,1.35,0,0,0,0-2.69Z" style="fill:#263238"></path></g><g id="freepik--Symbols--inject-77"><path d="M637.83,134.16c-.87,0-1.65,0-2.32-.07s-1.32-.11-1.93-.19a18.41,18.41,0,0,1-1.85-.32l-2-.51c-1-.29-2-.63-3.13-1a9.22,9.22,0,0,0-2.9-.58,2,2,0,0,0-1.49.44,3.9,3.9,0,0,0-.69,1.23H620.4V117.53h.8a26.36,26.36,0,0,0,3.16,8.64,15.3,15.3,0,0,0,4.32,4.65,12.09,12.09,0,0,0,4.72,1.92,26.66,26.66,0,0,0,4.43.4V109.55l-4.21-1.24q-6-1.74-8.93-4.79a10.92,10.92,0,0,1-3-8,15.76,15.76,0,0,1,1.16-6.06,14,14,0,0,1,3.27-4.79,15.63,15.63,0,0,1,5.05-3.16,17.41,17.41,0,0,1,6.42-1.16h.22V75.93h1v4.43a17.55,17.55,0,0,1,3.66.58,22.35,22.35,0,0,1,2.62.94c.74.34,1.42.65,2,.91a4.47,4.47,0,0,0,1.85.4,2.22,2.22,0,0,0,1.27-.25,4.84,4.84,0,0,0,.91-1.27h1V94.74h-.87a23.53,23.53,0,0,0-1.38-4.8,15.48,15.48,0,0,0-2.46-4.13,13.15,13.15,0,0,0-3.67-3,11.87,11.87,0,0,0-5-1.41v20.54l6,1.75q1,.28,3.09,1A16.78,16.78,0,0,1,652.1,107a14.9,14.9,0,0,1,3.63,3.95,11.17,11.17,0,0,1,1.56,6.14,16.82,16.82,0,0,1-1.27,6.42,16.58,16.58,0,0,1-3.63,5.45,17.6,17.6,0,0,1-5.78,3.77,20,20,0,0,1-7.76,1.42v5.08h-1Zm0-52.78h-.22a17.45,17.45,0,0,0-3.85.47,12.56,12.56,0,0,0-3.92,1.6,9.31,9.31,0,0,0-3,3,8.85,8.85,0,0,0-1.2,4.76,8,8,0,0,0,.91,4,8.91,8.91,0,0,0,2.4,2.79,12.71,12.71,0,0,0,3.37,1.89,37,37,0,0,0,3.78,1.23l1.74.51Zm1,51.76a14.76,14.76,0,0,0,6.31-1.16,11.15,11.15,0,0,0,3.92-2.9,10.22,10.22,0,0,0,2-3.81,14.12,14.12,0,0,0,.59-3.82,10.05,10.05,0,0,0-.88-4.43,9.48,9.48,0,0,0-2.21-3,11.63,11.63,0,0,0-2.94-1.92,23.44,23.44,0,0,0-3-1.16l-3.77-1.09Z" style="fill:#263238"></path><path d="M637.83,146a36.42,36.42,0,1,1,36.42-36.41A36.46,36.46,0,0,1,637.83,146Zm0-71.83a35.42,35.42,0,1,0,35.42,35.42A35.46,35.46,0,0,0,637.83,74.13Z" style="fill:#263238"></path><path d="M113.13,380.25c-.56.54-1.08,1-1.55,1.39s-.92.74-1.35,1.07a14.17,14.17,0,0,1-1.4.93c-.5.3-1,.61-1.63.93-.8.42-1.68.84-2.64,1.28a8.09,8.09,0,0,0-2.24,1.42,1.76,1.76,0,0,0-.69,1.2,3.21,3.21,0,0,0,.32,1.22l-.71.68-9.65-10.09.52-.49a23.29,23.29,0,0,0,7.38,3.63,13.67,13.67,0,0,0,5.66.33,10.85,10.85,0,0,0,4.24-1.68,23.65,23.65,0,0,0,3.11-2.48L97.91,364.35l-3.48,1.81a18,18,0,0,1-8.73,2.42,9.74,9.74,0,0,1-6.86-3.32,13.85,13.85,0,0,1-3-4.63,12.28,12.28,0,0,1-.85-5.11,13.93,13.93,0,0,1,1.3-5.16,15.39,15.39,0,0,1,3.44-4.73l.14-.13-2.74-2.86.65-.63,2.74,2.86A15.06,15.06,0,0,1,83.25,343a18.4,18.4,0,0,1,2.27-1l1.88-.67a4.1,4.1,0,0,0,1.44-.89,1.88,1.88,0,0,0,.66-1,4.23,4.23,0,0,0-.2-1.38l.66-.63L98,345.9l-.56.53a21.21,21.21,0,0,0-3.86-2.24A13.91,13.91,0,0,0,89.47,343a11.69,11.69,0,0,0-4.23.33,10.48,10.48,0,0,0-4.09,2.16l12.7,13.27,5-2.6c.56-.3,1.44-.71,2.65-1.23a15.3,15.3,0,0,1,4.09-1.08,13.15,13.15,0,0,1,4.79.31,10,10,0,0,1,4.8,3,14.83,14.83,0,0,1,3.15,4.93,14.62,14.62,0,0,1,1,5.77,15.68,15.68,0,0,1-1.39,6,18,18,0,0,1-4.14,5.72l3.14,3.28-.66.63Zm-32.64-34.1-.14.14A15.82,15.82,0,0,0,78.16,349a11.45,11.45,0,0,0-1.55,3.46,8.52,8.52,0,0,0-.06,3.83,7.91,7.91,0,0,0,2.17,3.81,7.24,7.24,0,0,0,3,2,8.08,8.08,0,0,0,3.28.32,11.52,11.52,0,0,0,3.35-.87,32.52,32.52,0,0,0,3.2-1.53l1.44-.75ZM113.16,379a13.37,13.37,0,0,0,3.36-4.65,10.14,10.14,0,0,0,.74-4.3,9.31,9.31,0,0,0-1.05-3.72,12.53,12.53,0,0,0-2-2.82,9.05,9.05,0,0,0-3.3-2.32,8.27,8.27,0,0,0-3.29-.58,10.57,10.57,0,0,0-3.09.57,22,22,0,0,0-2.69,1.14l-3.11,1.63Z" style="fill:#263238"></path><path d="M97.92,397a32.6,32.6,0,1,1,22.54-9A32.51,32.51,0,0,1,97.92,397Zm0-64.21a30.84,30.84,0,1,0,.71,0Z" style="fill:#263238"></path><path d="M660.82,236.06c-.33.23-.63.42-.9.58s-.53.31-.78.44a8.2,8.2,0,0,1-.79.36c-.28.12-.58.23-.91.35s-.92.29-1.45.43a4.37,4.37,0,0,0-1.26.55,1,1,0,0,0-.45.56,1.76,1.76,0,0,0,.07.65l-.42.28-4.11-5.93.3-.21a11.89,11.89,0,0,0,3.48,2.45,7.08,7.08,0,0,0,2.87.63,5.67,5.67,0,0,0,2.3-.51,12.28,12.28,0,0,0,1.78-1l-6.22-9-1.92.65a9.4,9.4,0,0,1-4.66.53,5,5,0,0,1-3.23-2.25,7.23,7.23,0,0,1-1.16-2.61,6.38,6.38,0,0,1,0-2.68,7.22,7.22,0,0,1,1.08-2.54,8,8,0,0,1,2.14-2.13l.08-.06-1.17-1.68.39-.27,1.17,1.68a8.42,8.42,0,0,1,1.54-.74,9.77,9.77,0,0,1,1.25-.33l1-.19a2.09,2.09,0,0,0,.81-.34,1,1,0,0,0,.41-.43,2.23,2.23,0,0,0,0-.72l.39-.27,3.44,5-.33.23a10.81,10.81,0,0,0-1.78-1.46,7.24,7.24,0,0,0-2-.92,6,6,0,0,0-2.19-.18,5.48,5.48,0,0,0-2.26.77l5.41,7.81,2.75-.93c.31-.1.79-.24,1.45-.41a7.9,7.9,0,0,1,2.18-.22,6.75,6.75,0,0,1,2.42.54,5.28,5.28,0,0,1,2.21,1.92,7.81,7.81,0,0,1,1.27,5.81,8.29,8.29,0,0,1-1.2,2.95,9.47,9.47,0,0,1-2.58,2.59l1.34,1.93-.39.27ZM646.91,216l-.08.06a7.54,7.54,0,0,0-1.34,1.19,5.87,5.87,0,0,0-1.07,1.64,4.26,4.26,0,0,0-.34,2,4.05,4.05,0,0,0,.8,2.13,3.7,3.7,0,0,0,1.38,1.26,4.12,4.12,0,0,0,1.65.43,6,6,0,0,0,1.78-.17,16.34,16.34,0,0,0,1.76-.53l.8-.26Zm14,19.4a6.69,6.69,0,0,0,2.09-2.1,5.06,5.06,0,0,0,.73-2.14,4.82,4.82,0,0,0-.23-2,6.71,6.71,0,0,0-.79-1.61,4.76,4.76,0,0,0-1.5-1.45,4.28,4.28,0,0,0-1.63-.56,5.56,5.56,0,0,0-1.63,0,10.71,10.71,0,0,0-1.46.37l-1.72.58Z" style="fill:#263238"></path><path d="M654.36,243.81a17.11,17.11,0,1,1,14-26.86h0a17.11,17.11,0,0,1-14,26.86Zm-.06-33.22a16.11,16.11,0,0,0-13.2,25.3,16.11,16.11,0,1,0,16.1-25A16.81,16.81,0,0,0,654.3,210.59Z" style="fill:#263238"></path><path d="M85.53,216c-.4,0-.76,0-1.07,0s-.61-.05-.89-.09a6.75,6.75,0,0,1-.86-.15l-.94-.23L80.33,215a4.23,4.23,0,0,0-1.35-.27.88.88,0,0,0-.68.2,1.52,1.52,0,0,0-.32.57h-.51v-7.22h.37a12.41,12.41,0,0,0,1.46,4,7.05,7.05,0,0,0,2,2.14,5.63,5.63,0,0,0,2.18.89,11.84,11.84,0,0,0,2,.19V204.59l-2-.57a9.42,9.42,0,0,1-4.13-2.22,5.08,5.08,0,0,1-1.37-3.69,7.4,7.4,0,0,1,.53-2.81,6.37,6.37,0,0,1,1.52-2.21,7,7,0,0,1,2.33-1.47,8.21,8.21,0,0,1,3-.53h.1V189H86v2.05a7.47,7.47,0,0,1,1.7.27,9.85,9.85,0,0,1,1.21.43l.94.42a2,2,0,0,0,.85.19,1,1,0,0,0,.59-.12,2.23,2.23,0,0,0,.42-.59h.47v6.05h-.4a11.29,11.29,0,0,0-.64-2.22A7,7,0,0,0,90,193.61a6.09,6.09,0,0,0-1.7-1.4,5.42,5.42,0,0,0-2.3-.65v9.5l2.79.81c.31.09.79.25,1.43.48a8.13,8.13,0,0,1,1.91,1.06,6.75,6.75,0,0,1,1.68,1.83,5.18,5.18,0,0,1,.72,2.84,7.75,7.75,0,0,1-.59,3,7.63,7.63,0,0,1-1.68,2.52,7.82,7.82,0,0,1-2.67,1.74A9.19,9.19,0,0,1,86,216v2.35h-.47Zm0-24.41h-.1a7.92,7.92,0,0,0-1.78.22,5.83,5.83,0,0,0-1.81.73,4.39,4.39,0,0,0-1.4,1.41,4.2,4.2,0,0,0-.55,2.2,3.7,3.7,0,0,0,.42,1.83,4.2,4.2,0,0,0,1.11,1.3,5.92,5.92,0,0,0,1.56.87c.58.22,1.16.41,1.75.57l.8.24ZM86,215.5a6.83,6.83,0,0,0,2.92-.54,5.23,5.23,0,0,0,1.82-1.34,4.93,4.93,0,0,0,.94-1.76,6.57,6.57,0,0,0,.27-1.77,4.71,4.71,0,0,0-.41-2.05,4.55,4.55,0,0,0-1-1.39,5.69,5.69,0,0,0-1.36-.89,12.58,12.58,0,0,0-1.41-.54l-1.75-.5Z" style="fill:#263238"></path><path d="M85.53,221.7a17.12,17.12,0,1,1,17.11-17.11A17.14,17.14,0,0,1,85.53,221.7Zm0-33.23a16.12,16.12,0,1,0,16.11,16.12A16.13,16.13,0,0,0,85.53,188.47Z" style="fill:#263238"></path><path d="M401.75,63.1c-.5-.29-.93-.57-1.3-.82s-.72-.5-1-.75a11.51,11.51,0,0,1-1-.8l-1-1c-.46-.49-.94-1-1.45-1.63a6,6,0,0,0-1.47-1.3,1.26,1.26,0,0,0-1-.25,2.31,2.31,0,0,0-.81.47l-.63-.36,5.23-8.93.45.26a17.49,17.49,0,0,0-1.08,6,10,10,0,0,0,.92,4.11,8.13,8.13,0,0,0,2.05,2.68,20,20,0,0,0,2.4,1.71L410,49l-2-2.12a13.31,13.31,0,0,1-3.5-5.73,7.19,7.19,0,0,1,1-5.56,10.18,10.18,0,0,1,2.69-3.08,9,9,0,0,1,3.47-1.65,10.37,10.37,0,0,1,3.94-.12,11.55,11.55,0,0,1,4.07,1.49l.12.07,1.49-2.53.58.34-1.48,2.53a11.65,11.65,0,0,1,1.9,1.56,13.6,13.6,0,0,1,1.18,1.42c.31.44.6.84.86,1.19a2.86,2.86,0,0,0,.92.85A1.42,1.42,0,0,0,426,38a3,3,0,0,0,.95-.42l.58.34-4.37,7.48-.5-.3a15.8,15.8,0,0,0,.81-3.2,10.33,10.33,0,0,0,0-3.19,8.71,8.71,0,0,0-1.09-3A7.94,7.94,0,0,0,420,33.24L413.12,45,416,48c.33.34.8.88,1.42,1.64a11.13,11.13,0,0,1,1.6,2.69,9.64,9.64,0,0,1,.75,3.48,7.3,7.3,0,0,1-1.16,4A11.08,11.08,0,0,1,411.82,65a11.76,11.76,0,0,1-4.57.23,13.39,13.39,0,0,1-4.92-1.79l-1.7,2.91-.58-.34Zm17.66-30.2-.12-.07a11.78,11.78,0,0,0-2.36-1,8.47,8.47,0,0,0-2.78-.4,6.18,6.18,0,0,0-2.74.74,5.85,5.85,0,0,0-2.28,2.32,5.32,5.32,0,0,0-.8,2.57,6,6,0,0,0,.43,2.4,8.78,8.78,0,0,0,1.3,2.21,25.59,25.59,0,0,0,1.75,2l.83.87Zm-16.74,30a9.92,9.92,0,0,0,4,1.45,7.53,7.53,0,0,0,3.21-.35,6.76,6.76,0,0,0,2.44-1.5,9.44,9.44,0,0,0,1.61-2,6.77,6.77,0,0,0,1-2.82,6.25,6.25,0,0,0-.26-2.47,7.37,7.37,0,0,0-1-2.08,15.37,15.37,0,0,0-1.35-1.69l-1.8-1.88Z" style="fill:#263238"></path><path d="M410,73.32a24.3,24.3,0,1,1,21-12h0A24.32,24.32,0,0,1,410,73.32Zm.08-47.6A23.3,23.3,0,1,0,430.1,60.78h0A23.29,23.29,0,0,0,410,25.72Z" style="fill:#263238"></path></g><g id="freepik--Puzzle--inject-77"><path d="M580.53,159.62V101H402.1v58.66l3.07,4.65a16.59,16.59,0,0,0,8.67,6.3c5.28,1.74,11,.4,15.61-2.68a20.83,20.83,0,0,1,11.66-3.62c12.45,0,22.46,11.19,22.46,25.14s-10,25.06-22.46,25.06a20.83,20.83,0,0,1-11.66-3.62c-4.65-3.16-10.41-4.5-15.69-2.68a16,16,0,0,0-8.59,6.22L402.1,219v59.51h59.5l4.65-3.08a15.89,15.89,0,0,0,6.23-8.59c1.81-5.28.47-11-2.68-15.68a20.81,20.81,0,0,1-3.63-11.66c0-12.46,11.2-22.47,25.07-22.47s25.14,10,25.14,22.47a20.81,20.81,0,0,1-3.63,11.66c-3.07,4.57-4.41,10.32-2.68,15.61a16.59,16.59,0,0,0,6.31,8.66l4.65,3.08h59.5V219l.12-.17-.06-59.17Z" style="fill:#fff"></path><path d="M580.53,279.05H521a.57.57,0,0,1-.28-.08l-4.65-3.08a17.12,17.12,0,0,1-6.5-8.93c-1.68-5.11-.68-11,2.74-16a20.28,20.28,0,0,0,3.54-11.38c0-12.11-11.05-22-24.64-22s-24.57,9.86-24.57,22a20.35,20.35,0,0,0,3.54,11.38c3.49,5.15,4.49,11,2.74,16.13a16.27,16.27,0,0,1-6.42,8.84L461.88,279a.54.54,0,0,1-.28.08H402.1a.5.5,0,0,1-.5-.5V219a.5.5,0,0,1,.08-.27l3.07-4.65a16.33,16.33,0,0,1,8.86-6.43c5.09-1.75,11-.75,16.12,2.74A20.28,20.28,0,0,0,441.11,214c12.11,0,22-11,22-24.56s-9.85-24.64-22-24.64a20.28,20.28,0,0,0-11.38,3.54c-5.09,3.42-10.94,4.41-16,2.74a17.1,17.1,0,0,1-8.93-6.5l-3.08-4.66a.53.53,0,0,1-.08-.27V101a.5.5,0,0,1,.5-.5H580.53a.5.5,0,0,1,.5.5v58.51a.46.46,0,0,1,.06.23l.06,59.17a.57.57,0,0,1-.08.28l0,0v59.36A.5.5,0,0,1,580.53,279.05Zm-59.35-1H580V219a.44.44,0,0,1,.09-.27l0-.05-.06-58.87a.46.46,0,0,1-.06-.23V101.46H402.6v58l3,4.52A16.13,16.13,0,0,0,414,170.1c4.81,1.58,10.34.62,15.17-2.62a21.3,21.3,0,0,1,11.94-3.71c12.66,0,23,11.5,23,25.64s-10.3,25.56-23,25.56a21.3,21.3,0,0,1-11.94-3.71c-4.89-3.31-10.45-4.27-15.25-2.62a15.33,15.33,0,0,0-8.33,6l-3,4.52v58.86h58.85l4.53-3a15.3,15.3,0,0,0,6-8.33c1.65-4.81.7-10.36-2.62-15.25a21.38,21.38,0,0,1-3.71-11.94c0-12.67,11.47-23,25.57-23s25.64,10.3,25.64,23a21.3,21.3,0,0,1-3.71,11.94c-3.25,4.83-4.2,10.35-2.62,15.17a16.06,16.06,0,0,0,6.11,8.41Z"></path><path d="M459.13,145.43c-1.17.92-3.45,1.37-6.82,1.37a24.29,24.29,0,0,1-9.94-2.15q-4.87-2.13-10.91-4.87a109.42,109.42,0,0,0-14-5.06,84.19,84.19,0,0,0-15.3-2.75v5.55a62.18,62.18,0,0,1,22.32,7.13,70.45,70.45,0,0,1,19.68,16.18c1.22,1.45,2.38,3,3.49,4.5h0c.54.18,1.07.39,1.59.62l.17.07a20.69,20.69,0,0,1,3.07,1.67l.07,0q.72.48,1.41,1l.13.1a24.69,24.69,0,0,1,2.51,2.3l.24.26c.34.38.68.77,1,1.17l.33.42q.33.44.63.87c.21.29.4.58.59.88s.3.46.44.7.33.56.49.85l.08.17a27.21,27.21,0,0,1,3.21,12.93,27.6,27.6,0,0,1-1.29,8.36q1.47,5.43,2.46,11h4.68V138.61H464Q460.88,144.08,459.13,145.43Z" style="fill:#263238"></path><path d="M402.1,278.55h59.5l4.65-3.08a12.45,12.45,0,0,0,1.82-1.43,89.67,89.67,0,0,0-21.41-11.7q-11.1-4.09-16.56-5.65l-28-8.09v30Z" style="fill:#263238"></path><path d="M521.2,278.59l-4.65-3.07a16,16,0,0,1-6.23-8.59c-1.81-5.28-.47-11,2.68-15.69a20.81,20.81,0,0,0,3.63-11.66c0-12.46-11.19-22.54-25.06-22.54s-25.15,10.08-25.15,22.54a21,21,0,0,0,3.63,11.66c3.07,4.57,4.41,10.33,2.68,15.61a16.56,16.56,0,0,1-6.31,8.67l-4.65,3.07h-59.5V338.1l-3.08,4.65a17,17,0,0,1-8.67,6.3c-5.28,1.74-11,.4-15.6-2.68a20.28,20.28,0,0,0-11.67-3.62c-12.45,0-22.46,11.19-22.46,25.06S350.8,393,363.25,393a20.89,20.89,0,0,0,11.67-3.62c4.65-3.16,10.4-4.58,15.68-2.76a16.46,16.46,0,0,1,8.59,6.3l3.08,4.65V457l0,0,178.49,0V278.59Z" style="fill:#407BFF"></path><path d="M402.22,457.56a.5.5,0,0,1-.46-.31.48.48,0,0,1,0-.39V397.67l-3-4.52a15.93,15.93,0,0,0-8.34-6.11c-4.75-1.63-10.3-.65-15.24,2.7a21.31,21.31,0,0,1-11.95,3.71c-12.66,0-23-11.5-23-25.64s10.3-25.56,23-25.56a20.8,20.8,0,0,1,12,3.71c4.82,3.24,10.34,4.2,15.16,2.62a16.51,16.51,0,0,0,8.41-6.11l3-4.52V278.59a.5.5,0,0,1,.5-.5h59.35l4.53-3a16.1,16.1,0,0,0,6.1-8.41c1.59-4.81.63-10.34-2.62-15.17a21.45,21.45,0,0,1-3.71-11.94c0-12.71,11.51-23,25.65-23s25.56,10.33,25.56,23a21.3,21.3,0,0,1-3.71,11.94c-3.32,4.89-4.27,10.44-2.62,15.24a15.3,15.3,0,0,0,6,8.34l4.53,3h59.36a.5.5,0,0,1,.5.5V457a.51.51,0,0,1-.5.5Zm-16.49-72.29a15.61,15.61,0,0,1,5,.82,16.86,16.86,0,0,1,8.84,6.51l3.08,4.65a.5.5,0,0,1,.08.27v59l177.44,0V279.09h-59a.57.57,0,0,1-.28-.08l-4.65-3.08a16.3,16.3,0,0,1-6.42-8.85c-1.75-5.09-.75-11,2.74-16.12a20.35,20.35,0,0,0,3.54-11.38c0-12.16-11-22-24.56-22s-24.65,9.88-24.65,22A20.47,20.47,0,0,0,470.47,251c3.41,5.08,4.41,10.92,2.73,16a17.08,17.08,0,0,1-6.5,8.93L462.05,279a.54.54,0,0,1-.28.08h-59v59a.53.53,0,0,1-.08.27L399.61,343a17.38,17.38,0,0,1-8.92,6.5c-5.12,1.68-11,.69-16.05-2.73a19.77,19.77,0,0,0-11.39-3.54c-12.1,0-22,11-22,24.56s9.86,24.64,22,24.64a20.31,20.31,0,0,0,11.39-3.54A19.92,19.92,0,0,1,385.73,385.27Z"></path><path d="M397.76,344.52a17.11,17.11,0,0,1-5.46,3.81v38.92a16.87,16.87,0,0,1,5.46,3.8Z" style="fill:#263238"></path><path d="M381.78,349.37a20.39,20.39,0,0,1-5.63-2.24v41.42a20.68,20.68,0,0,1,5.63-2.3Z" style="fill:#263238"></path><path d="M470.43,392.49a88.68,88.68,0,0,0,19.48-29.23,89.62,89.62,0,0,0,6.82-34.48q0-19.87-8.38-32.93a79.16,79.16,0,0,0-19.48-21.24l-.7-.5a14.79,14.79,0,0,1-1.75,1.41l-4.65,3.07h-59.5v12.52L418,295.65a129.93,129.93,0,0,1,16.36,6.24,62.82,62.82,0,0,1,15.79,10.32,51,51,0,0,1,11.88,16.18q4.68,9.74,4.68,23.77a76,76,0,0,1-3.12,20.45,54.92,54.92,0,0,1-10.91,20.46q-7.8,9.36-21,15.59-11.78,5.54-29.39,6.15v5.46q20.64-.67,37.18-7.52A94.48,94.48,0,0,0,470.43,392.49Z" style="fill:#263238"></path><path d="M363.21,342.7a20.76,20.76,0,0,1,11.66,3.63c4.58,3.15,10.33,4.49,15.69,2.76a17.14,17.14,0,0,0,8.59-6.31l3.07-4.65v-59.5h-59.5l-4.65-3.08a16.42,16.42,0,0,1-6.31-8.59c-1.81-5.28-.39-11,2.76-15.68a20.82,20.82,0,0,0,3.63-11.67c0-12.45-11.27-22.46-25.15-22.46s-25.06,10-25.06,22.46a20.22,20.22,0,0,0,3.63,11.67c3.07,4.57,4.41,10.32,2.68,15.6a17,17,0,0,1-6.31,8.67l-4.65,3.08h-59.5V457.06H402.22v-59.5l-3.07-4.65a16.52,16.52,0,0,0-8.67-6.31c-5.36-1.73-11-.39-15.68,2.68a20.56,20.56,0,0,1-11.59,3.63c-12.45,0-22.54-11.19-22.54-25.07S350.76,342.7,363.21,342.7Z" style="fill:#fff"></path><path d="M402.22,457.56H223.79a.5.5,0,0,1-.5-.5V278.62a.5.5,0,0,1,.5-.5h59.35l4.53-3a16.41,16.41,0,0,0,6.1-8.41c1.58-4.81.63-10.34-2.62-15.16a20.84,20.84,0,0,1-3.71-11.95c0-12.66,11.47-23,25.56-23s25.65,10.3,25.65,23a21.38,21.38,0,0,1-3.71,11.95c-3.35,4.93-4.33,10.49-2.7,15.24a15.84,15.84,0,0,0,6.1,8.33l4.53,3h59.35a.5.5,0,0,1,.5.5v59.51a.54.54,0,0,1-.08.28l-3.07,4.65a17.56,17.56,0,0,1-8.84,6.5c-5.22,1.69-11.1.66-16.14-2.82a20.35,20.35,0,0,0-11.38-3.54c-12.15,0-22,11.06-22,24.64s9.89,24.57,22,24.57a20.28,20.28,0,0,0,11.31-3.54c5.13-3.4,11-4.4,16.11-2.74a17,17,0,0,1,8.93,6.5l3.08,4.65a.54.54,0,0,1,.08.28v59.5A.5.5,0,0,1,402.22,457.56Zm-177.93-1H401.72V397.71l-3-4.53a16.08,16.08,0,0,0-8.4-6.1c-4.82-1.56-10.38-.61-15.26,2.62a21.22,21.22,0,0,1-11.86,3.71c-12.7,0-23-11.47-23-25.57s10.34-25.64,23-25.64a21.35,21.35,0,0,1,11.94,3.71c4.79,3.3,10.35,4.29,15.25,2.7a16.54,16.54,0,0,0,8.34-6.11l3-4.52V279.12h-59a.46.46,0,0,1-.28-.08L337.79,276a16.92,16.92,0,0,1-6.5-8.85c-1.73-5.05-.71-10.93,2.82-16.12a20.39,20.39,0,0,0,3.54-11.39c0-12.11-11.06-22-24.65-22s-24.56,9.85-24.56,22A19.74,19.74,0,0,0,292,251c3.42,5.09,4.42,10.94,2.74,16.05a17.52,17.52,0,0,1-6.5,8.93L283.57,279a.46.46,0,0,1-.28.08h-59Z"></path><path d="M402.22,414.81c-1.46.05-2.94.08-4.46.08V391.17a16.76,16.76,0,0,0-5.46-3.85v27.57c-3.37,0-6.88-.16-10.52-.46V386.27a20.19,20.19,0,0,0-5.63,2.19v25.39c-2.48-.31-5-.67-7.62-1.1a65.62,65.62,0,0,1-25.33-10.33q-12.48-8.18-23.19-24.94t-16.95-46.37h-4.28v83.78h5.84a19.78,19.78,0,0,1,3.7-6.62c1.43-1.56,4.1-2.34,8-2.34a48.53,48.53,0,0,1,15.59,3.12q9,3.12,16.76,5.45,5.83,1.56,10.91,2.73A93.42,93.42,0,0,0,369.5,419q3.19.38,6.65.67V448h5.63v-28c3.15.17,6.65.27,10.52.27v27.28h5.46V420.35c1.5,0,3,0,4.46-.08Z" style="fill:#263238"></path><path d="M321.77,255.91a71.91,71.91,0,0,0,9.21,7.9,18.88,18.88,0,0,1,3.45-12.61,20.81,20.81,0,0,0,3.63-11.66A21.41,21.41,0,0,0,329.9,223a26.87,26.87,0,0,0-16.9-5.81,28,28,0,0,0-7,.9Q307.34,241.12,321.77,255.91Z" style="fill:#263238"></path><path d="M369.7,281.62l6.45,1.9v63.62a20,20,0,0,0,5.63,2.26V285.16l10.52,3.09v60.12a17.59,17.59,0,0,0,5.46-3.86v-54.7l4.46,1.29V278.63H360.41C363.39,279.68,366.47,280.68,369.7,281.62Z" style="fill:#263238"></path></g><g id="freepik--Character--inject-77"><path d="M155.32,203.93c-2.47-.06-10.46,4-10.46,4l7.71,24.55,51.28-5.93a2.33,2.33,0,0,0,2-2.15c.35-1.75,10.28-48.45,10.28-48.45l-11.48-2.49L193,207.68S157.78,204,155.32,203.93Z" style="fill:#263238"></path><path d="M152.21,233l-8-25.34.37-.19c.33-.17,8-4.06,10.64-4.06h.06c2.34.06,33.21,3.29,37.29,3.71l11.69-34.26,12.4,2.69-.1.48c-.1.47-9.94,46.72-10.27,48.44a2.81,2.81,0,0,1-2.42,2.55L152.62,233Zm-6.75-24.83,7.46,23.74,50.87-5.88c.83-.11,1.36-.7,1.56-1.75.32-1.63,9.12-43,10.18-48L205,174l-11.66,34.18-.39,0c-.36,0-35.2-3.69-37.62-3.75C153.48,204.35,147.91,207,145.46,208.19Z" style="fill:#263238"></path><path d="M227.43,153.33l-4,.51-5.36,1.52,4.13-3.73s4.13-1.83,4.79-2.27.25-1.69-.1-1.64a28.65,28.65,0,0,0-5.2.91c-1.12.5-7,4.33-7,4.33l4.08-5s4.49-3.65,4.85-4.53,0-1.89-1.14-1.5a28.74,28.74,0,0,0-5.94,4.31c-.83.93-5.36,5.18-5.36,5.18l.53-1.37s4.32-5.87,4.78-6.88.32-2.16-.18-2.34-1.57.68-2.35,2-6.81,8.56-7.08,9.19-.72,16.4-.72,16.4l-1.57,5.1,10.44,2.26.85-5.31s1.08-1.67,1.56-2.56,1.8-7.09,1.8-7.09l4.46-3.88A26.22,26.22,0,0,0,228,155C229,154.31,227.89,153.27,227.43,153.33Z" style="fill:#263238"></path><path d="M215.49,176.32,204,173.83l1.71-5.55c.14-4.81.48-15.88.76-16.52a51.14,51.14,0,0,1,3.33-4.35c1.6-2,3.41-4.27,3.79-4.9.79-1.31,2.06-2.47,2.94-2.17a1.1,1.1,0,0,1,.63.64,3.22,3.22,0,0,1-.16,2.38c-.33.71-2.32,3.51-3.66,5.35,1.21-1.15,2.48-2.38,2.87-2.82a28.72,28.72,0,0,1,6.16-4.46,1.38,1.38,0,0,1,1.55.28,1.78,1.78,0,0,1,.21,1.89c-.37.91-3.84,3.78-5,4.7l-2.07,2.54c1.74-1.1,3.8-2.38,4.44-2.67a21.92,21.92,0,0,1,5.1-.92l.24,0c.37,0,.7.22.88.7a1.56,1.56,0,0,1-.45,1.86c-.64.43-4.11,2-4.79,2.28l-2.47,2.23,3.29-.93,4-.53a1.6,1.6,0,0,1,1.43,1,1.28,1.28,0,0,1-.5,1.57,25,25,0,0,1-4.29,1.89L219.74,161a64.18,64.18,0,0,1-1.81,7.05c-.43.79-1.29,2.15-1.53,2.51Zm-10.21-3.23,9.39,2,.84-5s1.08-1.67,1.54-2.53a66.75,66.75,0,0,0,1.75-7l0-.17,4.75-4.09a24.39,24.39,0,0,0,4.12-1.78c.22-.16.19-.28.18-.33a.74.74,0,0,0-.42-.46l-3.93.5-7.35,2.09,5.86-5.24c1.64-.73,4.25-1.93,4.71-2.23a.35.35,0,0,0,.12-.25.89.89,0,0,0-.07-.46h-.06a21.23,21.23,0,0,0-4.8.84c-.86.38-4.91,3-6.94,4.3l-2.67,1.74,6.16-7.57a32.9,32.9,0,0,0,4.71-4.33.84.84,0,0,0,0-.82c-.11-.12-.36-.07-.5,0a28.81,28.81,0,0,0-5.73,4.17c-.83.94-5.2,5-5.39,5.22l-1.61,1.5,1.4-3.53c1.72-2.35,4.41-6.09,4.73-6.8a2,2,0,0,0,.09-1.67,4.19,4.19,0,0,0-1.74,1.76c-.41.68-2.16,2.88-3.86,5-1.35,1.7-3,3.82-3.2,4.13-.17.68-.51,10.31-.67,16.21l0,.13ZM227,148.22h0Z" style="fill:#263238"></path><path d="M344,62.42a20.87,20.87,0,0,0-7.81,9.39c-2.17,5.07-6.27,9.32-11.64,10.74A16.23,16.23,0,0,1,313.8,82l-5.11-2.23L276.78,30.53,127.05,127.6l96.69,149,49.79-32.28,2.3-5.15a17.07,17.07,0,0,0,.57-10.71c-1.42-5.37-5.67-9.47-10.8-11.59a20.77,20.77,0,0,1-9.39-7.81c-6.78-10.45-2.77-25,8.87-32.53s26.55-5.28,33.32,5.17a20.75,20.75,0,0,1,3.3,11.76c-.11,5.62,1.83,11.22,6.22,14.66a16.72,16.72,0,0,0,9.9,3.82h5.64l49.93-32.37L341,129.61l.05-5.58a16,16,0,0,1,3.82-9.9c3.44-4.39,9-6.4,14.61-6.28a20.72,20.72,0,0,0,11.76-3.3c10.39-6.73,12.76-21.61,5.22-33.25S354.33,55.69,344,62.42Z" style="fill:#407BFF"></path><path d="M223.74,277.06a.51.51,0,0,1-.42-.23l-96.68-149a.44.44,0,0,1-.07-.37.47.47,0,0,1,.21-.32L276.5,30.11a.5.5,0,0,1,.69.14L309,79.35l5,2.17a15.69,15.69,0,0,0,10.37.54c4.9-1.29,9-5.1,11.31-10.45a21.3,21.3,0,0,1,8-9.61h0c10.62-6.89,25.52-2.84,33.22,9s5.26,27.06-5.36,34a21.09,21.09,0,0,1-12,3.38c-5.91-.13-11.09,2.1-14.22,6.09a15.35,15.35,0,0,0-3.71,9.59l-.05,5.43,32.29,49.8a.52.52,0,0,1,.07.38.55.55,0,0,1-.22.32l-49.93,32.37a.5.5,0,0,1-.27.08h-5.64a17.16,17.16,0,0,1-10.21-3.92c-4.2-3.3-6.54-8.79-6.41-15.07A20.32,20.32,0,0,0,298,181.93c-6.59-10.16-21.22-12.41-32.62-5s-15.32,21.67-8.73,31.83a20.29,20.29,0,0,0,9.16,7.63c5.67,2.34,9.71,6.69,11.09,11.93a17.42,17.42,0,0,1-.59,11l-2.3,5.16a.51.51,0,0,1-.19.22L224,277A.57.57,0,0,1,223.74,277.06Zm-96-149.31,96.14,148.12,49.24-31.93,2.24-5a16.45,16.45,0,0,0,.54-10.39c-1.29-4.92-5.13-9-10.51-11.25a21.31,21.31,0,0,1-9.61-8c-6.89-10.63-2.84-25.53,9-33.22s27.12-5.31,34,5.32a21.31,21.31,0,0,1,3.38,12c-.12,6,2.08,11.16,6,14.26a16.12,16.12,0,0,0,9.6,3.71h5.48l49.39-32-32.1-49.51a.46.46,0,0,1-.08-.28l.05-5.57a16.32,16.32,0,0,1,3.93-10.21c3.32-4.24,8.8-6.61,15-6.47A20,20,0,0,0,371,104.13c10.16-6.59,12.44-21.2,5.07-32.56s-21.68-15.32-31.84-8.73h0A20.29,20.29,0,0,0,336.6,72c-2.41,5.63-6.77,9.65-12,11a16.71,16.71,0,0,1-11-.6l-5.1-2.23a.49.49,0,0,1-.22-.18l-31.64-48.8Z"></path><path d="M237.35,168.14l-7.21,5.41-5.09,13.83s-14.4,49.7-16.09,52.24-6.21,4.52-6.21,4.52l-7.34-10.73,28.8-63,6.49-1.69Z" style="fill:#263238"></path><path d="M202.57,244.76l-7.74-11.3,29-63.44,6.72-1.76,8.5-.77-8.52,6.37-5,13.69c-.57,2-14.43,49.77-16.14,52.35s-6.24,4.61-6.43,4.69ZM196,233.36l6.94,10.14c1.1-.52,4.31-2.18,5.62-4.16s12-38.3,16-52.1l5.15-14,5.92-4.43-4.89.44-6.19,1.62Z" style="fill:#263238"></path><path d="M357.1,154.41l-4.37,1.32-60-92.54c1.31-.71,2.62-1.36,3.93-2l-3-4.66c-1.27.65-2.56,1.33-3.88,2.07L276.84,38.67l-4.58,3,12.93,20-1,.63c-2.67,1.73-5.21,3.55-7.62,5.43L263.41,47.34,258.7,50.4l13.54,20.89a87.77,87.77,0,0,0-13.57,14.92,83.33,83.33,0,0,0-13.5,29,74,74,0,0,0-.72,31.12A83.82,83.82,0,0,0,256.92,177c.9,1.4,1.84,2.74,2.8,4a28.49,28.49,0,0,1,5.36-4.53c11.64-7.55,26.55-5.28,33.32,5.17a20.75,20.75,0,0,1,3.3,11.76,18.9,18.9,0,0,0,4,12.46q14.58.78,32.52-3.52l35.2-22.82Zm-25.9,7.81c-4.52,1.29-9.12,2.44-13.83,3.43A70,70,0,0,1,296.66,167a49.15,49.15,0,0,1-19-5.6q-8.85-4.69-15.64-15.17-8.26-12.75-8.49-24.91a50.11,50.11,0,0,1,4.67-22.53,67.73,67.73,0,0,1,13-18.64c1.39-1.42,2.77-2.76,4.15-4Zm16.11-4.83-9.33,2.8-1.16.35L279.65,72.38a79.18,79.18,0,0,1,7.53-5.58l1-.64Z" style="fill:#263238"></path><path d="M350,59.79a84.64,84.64,0,0,1,17.81,9.55A126.54,126.54,0,0,1,380,79a27.92,27.92,0,0,0-3.47-7.71C370.27,61.72,359.4,57.37,350,59.79Z" style="fill:#263238"></path><path d="M170.38,201.83l4.65,1.48.41,7.7-3.5-3v3a286.55,286.55,0,0,1,10.24,32.19c5,19.22,5.74,31.45,5.24,43.18s-1.5,19.72-1.5,19.72l-5.74-19.22L167,210.76l-.75-6Z" style="fill:#bfbfbf"></path><path d="M186.12,308.52,179.7,287l-13.24-76.19-.79-6.31,4.63-3.25,5.21,1.66.49,9.21-3.56-3.05v1.81a294.29,294.29,0,0,1,10.22,32.17c5.36,20.64,5.7,33,5.26,43.33-.5,11.61-1.49,19.67-1.5,19.75ZM166.74,205l.71,5.69,13.22,76.11,5,16.8c.34-3.23.9-9.42,1.23-17.24.43-10.22.1-22.51-5.23-43a291.3,291.3,0,0,0-10.21-32.14l0-.18v-4.09l3.44,3-.33-6.19-4.08-1.3Z" style="fill:#263238"></path><path d="M182.68,285.39s4.24,22.21,5.24,31.69,10.1,40.3,8.87,54.06c-.53,6-1.4,60.7-1.4,60.7l3.57,2.6-1,8.57s13.63,7.14,16.55,8.11,1.62-1.95,2.92,1-3.89,4.55-11.36,5.2a63.09,63.09,0,0,1-13.63-.33L189.17,455l-.95,1.91s-4.54-.15-5.9-.15a23.54,23.54,0,0,1-2.57-.15s-1.21-6.05-1.52-8.62-.45-5.3-.45-5.3-2.42-2.87-2.42-4.38,1.82-7.42,1.82-7.42L175,395.7l-.93-22.31L167,343s-5.93,33.23-6.63,34.75-22.7,58.74-22.7,58.74l1.81,1.51-2,6.81,5.75,6.5s9.38,4.54,9.38,5.3-1.21,2-1.21,2a109.63,109.63,0,0,1-13.16-.3,67.37,67.37,0,0,1-10-1.82c-1.82-.45-4.39-3.32-4.39-3.32l-1.81,1.06-7.72-4.39s2-10.14,2.88-12.56a8,8,0,0,1,2.72-3.63l3.93-6.35,15.34-58.52.67-53.25-1.63-9.77,3.14-19Z" style="fill:#263238"></path><path d="M146.86,459.1a83.36,83.36,0,0,1-8.64-.38,68.74,68.74,0,0,1-9.79-1.77l-.25-.06c-1.6-.4-3.63-2.41-4.36-3.18l-1.72,1-8.28-4.7.07-.36c.08-.41,2-10.2,2.9-12.63a8.61,8.61,0,0,1,2.82-3.81l3.84-6.2,15.3-58.39.67-53.18-1.64-9.77L141,286.22l.41,0,41.68-1.33.08.42c0,.22,4.26,22.34,5.25,31.74.33,3.18,1.6,8.84,3.07,15.4,2.95,13.17,6.62,29.57,5.8,38.76-.51,5.67-1.33,56.3-1.4,60.4l3.6,2.61-1,8.52c2,1.06,13.56,7.06,16.17,7.93,1.13.38,1.38.08,1.52-.09a.7.7,0,0,1,.61-.3c.39.06.47.23,1.09,1.63a2.38,2.38,0,0,1-.08,2.22c-1.1,1.86-5,3.09-11.69,3.67a64.59,64.59,0,0,1-13.75-.32l-.18-.07-2.78-1.67-.86,1.71h-.32s-4.54-.15-5.88-.15a26.2,26.2,0,0,1-2.63-.15l-.36-.05-.07-.35c0-.25-1.22-6.1-1.52-8.66-.26-2.2-.41-4.53-.45-5.16-.52-.64-2.43-3.08-2.43-4.58s1.53-6.56,1.81-7.48l-2.13-35.11-.93-22.32-6.54-28c-1.43,8-5.62,31.15-6.24,32.49s-20.75,53.67-22.56,58.37l1.79,1.5-2,6.85,5.5,6.23c9.57,4.63,9.57,5.35,9.57,5.7,0,.91-1.13,2.09-1.35,2.32l-.14.13h-.2S149.47,459.1,146.86,459.1ZM124,452.44l.27.3c.69.77,2.77,2.84,4.14,3.18l.25.06a65.62,65.62,0,0,0,9.67,1.74,107,107,0,0,0,12.88.31,4.21,4.21,0,0,0,.92-1.37c-.67-.67-5.06-3-9.08-5l-.16-.12L137,444.88l1.95-6.76-1.84-1.53.13-.33c.9-2.34,22-57.26,22.71-58.77.5-1.08,4.22-21.3,6.6-34.63l.42-2.39,7.65,32.81.95,22.4L177.68,431l0,.09a49.06,49.06,0,0,0-1.79,7.27c0,1,1.41,3,2.3,4.06l.11.13v.16s.15,2.74.45,5.27c.26,2.16,1.17,6.88,1.44,8.22a21,21,0,0,0,2.15.11c1.16,0,4.53.11,5.59.14l1.05-2.1,3.63,2.17a62.89,62.89,0,0,0,13.41.31c8.29-.72,10.4-2.31,10.91-3.18a1.32,1.32,0,0,0,0-1.31l-.35-.78a2.36,2.36,0,0,1-2.27.07c-2.92-1-16.06-7.85-16.62-8.14l-.31-.16,1-8.62-3.55-2.58v-.26c0-2.23.87-54.82,1.4-60.73.81-9-2.84-25.35-5.78-38.45-1.47-6.59-2.75-12.28-3.09-15.51-.91-8.64-4.57-28.13-5.16-31.24l-40.4,1.29-3.07,18.48,1.62,9.69-.67,53.45-15.36,58.6L120.26,434a7.61,7.61,0,0,0-2.54,3.39c-.78,2.1-2.42,10.31-2.78,12.12l7.15,4.07Z" style="fill:#263238"></path><path d="M169.31,156.43s4.55,4.79,4.79,6.95-.84,4.31-.24,5.27,6.23,6.46,6,7.18-3.12,2.76-3.12,2.76l-9.1,23.12L146.31,194l2.39-7.19-9.58-9.46s-.6-10.3,6.71-17.49S169.31,156.43,169.31,156.43Z" style="fill:#fff"></path><path d="M167.92,202.34l-22.24-8,2.45-7.36-9.5-9.38v-.19c0-.43-.53-10.61,6.86-17.88s23.27-3.75,23.94-3.6l.14,0,.11.11c.48.51,4.67,5,4.92,7.24a10.27,10.27,0,0,1-.23,3.08,3.78,3.78,0,0,0-.08,2c.19.31,1.14,1.33,2.05,2.31,3.49,3.75,4.19,4.69,4,5.3s-2.22,2.23-3.18,2.92Zm-21-8.6,20.41,7.33,9-22.8.12-.09a16.61,16.61,0,0,0,2.89-2.43,36.15,36.15,0,0,0-3.73-4.38,27.68,27.68,0,0,1-2.17-2.46,4,4,0,0,1-.05-2.68,10,10,0,0,0,.22-2.8c-.18-1.59-3.25-5.16-4.55-6.55-1.62-.34-16.21-3.18-22.87,3.38-6.52,6.41-6.6,15.5-6.57,16.91l9.66,9.55Zm32.43-17.92Z" style="fill:#263238"></path><path d="M158.52,161.46s12.82-4.07,13.42-8.51-9.82-6.94-18.93-5-19.64,12-20,20.37,11.74,16.77,12.46,17.13.6,2.15,2,2.63,1.92.84,3.84-.72,1.43-6,1.43-6-5.39-.83-6.11-4.55,2.52-5.63,4.68-4.43,3.95,5.63,4.43,6.95.48,10.06,3.59,12.22,13.66,3.95,16.89,3.83,3.6-1.32,2.88-4-1.92-7.79-2-9,1-3.35-.36-3.83-4.43,2.27-7.66,4.91a40.67,40.67,0,0,1-4.08,3.11s0-.35-4-6.82-5.63-9.47-5.63-9.83,7.07-1.19,6.35-4.19A7,7,0,0,0,158.52,161.46Z" style="fill:#263238"></path><path d="M175.91,195.87c-3.75,0-13.71-1.77-16.83-3.93-2.51-1.74-3.12-7.14-3.48-10.37a15.27,15.27,0,0,0-.3-2.09c-.2-.56-2-5.48-4.21-6.68a2.57,2.57,0,0,0-2.74.24,3.47,3.47,0,0,0-1.19,3.66c.64,3.32,5.64,4.14,5.69,4.15l.38.06,0,.38c0,.19.49,4.72-1.62,6.43-1.89,1.54-2.63,1.38-4,.92l-.32-.11a3,3,0,0,1-1.73-2,1.82,1.82,0,0,0-.38-.7c-.13-.06-13.11-8.63-12.73-17.59s11.54-19,20.4-20.84c7-1.47,15.19-.35,18.26,2.5a3.52,3.52,0,0,1,1.27,3.09c-.55,4-9.63,7.5-12.8,8.59a7.42,7.42,0,0,1,2.6,4c.66,2.72-3.57,3.86-5.6,4.41l-.61.17c.31.66,1.45,2.78,5.44,9.3,2.34,3.82,3.32,5.55,3.73,6.35.53-.38,1.59-1.17,3.55-2.77l1.06-.87c3.51-2.88,5.72-4.62,7.09-4.12s1,1.93.83,3a5.14,5.14,0,0,0-.14,1.26c.11,1.14,1.28,6.2,2,8.9.34,1.26.57,2.54-.09,3.44-.54.73-1.54,1.09-3.25,1.15Zm-26-24.36a3.32,3.32,0,0,1,1.63.41c2.43,1.35,4.31,6.25,4.66,7.22a13.54,13.54,0,0,1,.36,2.32c.32,2.86.91,8.17,3.05,9.65,2.91,2,13.33,3.85,16.58,3.75,1.34-.05,2.15-.29,2.48-.74s.31-1.22-.06-2.58c-.69-2.5-1.93-7.77-2.06-9.07a6.39,6.39,0,0,1,.15-1.53c.21-1.18.24-1.73-.18-1.88-.91-.33-3.79,2-6.11,3.95l-1.07.88a42.15,42.15,0,0,1-4.14,3.16l-.75.43v-.78c-.1-.24-.69-1.43-3.88-6.65-5.7-9.34-5.7-9.84-5.7-10.09,0-.47.37-.57,1.47-.87,1.73-.46,5.32-1.43,4.89-3.2a6.55,6.55,0,0,0-3-4l-1-.56,1.13-.36c3.48-1.1,12.62-4.72,13.07-8.09a2.53,2.53,0,0,0-.95-2.23c-2.86-2.65-10.65-3.66-17.37-2.25-9.38,2-19.27,12-19.61,19.9s11.11,16.12,12.18,16.66a2.12,2.12,0,0,1,.86,1.22c.24.6.47,1.18,1.11,1.39l.34.11c1.13.39,1.47.51,3-.74,1.27-1,1.37-3.82,1.29-5.19-1.32-.28-5.47-1.43-6.14-4.87a4.52,4.52,0,0,1,1.59-4.66A3.73,3.73,0,0,1,150,171.51Z" style="fill:#263238"></path><path d="M168.67,168.39l-.89-.45a3.9,3.9,0,0,1,2.45-2.31,2.68,2.68,0,0,1,2.14.47l-.61.79a1.72,1.72,0,0,0-1.32-.28C169.78,166.76,169.19,167.36,168.67,168.39Z" style="fill:#263238"></path><path d="M174.8,184.83a7.69,7.69,0,0,1-3.59-.9l.5-.86a6.77,6.77,0,0,0,4.21.66l.19,1A6.79,6.79,0,0,1,174.8,184.83Z" style="fill:#fff"></path><path d="M171.92,171.55c.23,1,.09,1.88-.3,2s-.88-.65-1.1-1.65-.09-1.89.3-2S171.7,170.54,171.92,171.55Z" style="fill:#263238"></path><polygon points="146.07 191.53 170.38 201.83 168.59 209.25 143.91 196.32 146.07 191.53" style="fill:#fff"></polygon><path d="M168.92,210l-25.66-13.46,2.55-5.67L171,201.53Zm-24.36-13.91,23.69,12.42,1.55-6.39-23.48-9.94Z" style="fill:#263238"></path><path d="M168.59,209.25s8.6,14,10.59,37.95,3.5,38.19,3.5,38.19l-10.49,1.24Z" style="fill:#fff"></path><path d="M171.72,287.19,168,207.34l1,1.65c.09.14,8.69,14.36,10.67,38.17s3.48,38,3.49,38.17l.06.49Zm-2.53-75.79,3.48,74.67,9.46-1.12c-.28-2.71-1.67-16.46-3.45-37.71C177.13,228.64,171.52,216,169.19,211.4Z" style="fill:#263238"></path><path d="M143.91,196.32l-2.76,6.11s-8.16,18.5-7.93,22.6,4.55,45.54,4.55,45.54L128.21,315s13.66,9.19,26.64,10.33S176,323.74,176,323.74s1.37-28.58,0-46.8-3.19-50.77-4.78-57.37-2.65-10.32-2.65-10.32Z" style="fill:#bfbfbf"></path><path d="M161.06,326.1c-1.94,0-4-.08-6.26-.27-13-1.14-26.73-10.32-26.87-10.41l-.28-.19,9.61-44.69c-.27-2.58-4.32-41.47-4.54-45.48-.23-4.17,7.64-22.08,8-22.83l3-6.6L169,208.91l.06.21s1.08,3.79,2.65,10.33c1.21,5,2.52,24.42,3.69,41.57.39,5.78.76,11.29,1.11,15.89,1.35,18,0,46.56,0,46.85l0,.34-.32.11A53.2,53.2,0,0,1,161.06,326.1Zm-32.29-11.33c2,1.3,14.44,9,26.12,10.06,11.29,1,19-1,20.65-1.47.15-3.34,1.25-29.49,0-46.38-.34-4.6-.72-10.11-1.11-15.89-1.16-17.12-2.48-36.51-3.66-41.4-1.36-5.66-2.34-9.23-2.59-10.09l-24-12.59-2.54,5.62c-.08.18-8.11,18.44-7.89,22.37s4.5,45.1,4.55,45.52v.07l0,.08Z" style="fill:#263238"></path><polygon points="171.72 261.74 161.16 211.75 140.95 202.88 141.36 201.97 162.03 211.04 172.7 261.54 171.72 261.74" style="fill:#263238"></polygon><path d="M148.12,210s8.44-3,10.88-2.63,36.87,8.54,36.87,8.54l15.95-32.45,11.07,3.94s-15.83,45-16.39,46.74a2.32,2.32,0,0,1-2.26,1.87l-51.62-.68" style="fill:#bfbfbf"></path><path d="M204.24,236.48l-51.62-.68v-1l51.61.68c.84,0,1.44-.51,1.78-1.53.53-1.58,14.54-41.46,16.23-46.27l-10.18-3.63-15.93,32.41-.39-.09c-.34-.08-34.43-8.16-36.82-8.53-1.89-.3-8.33,1.78-10.64,2.6l-.34-.94c.35-.12,8.59-3,11.13-2.65,2.32.36,32.52,7.51,36.51,8.45l16-32.49,12,4.26-.17.47c-.16.45-15.83,45.06-16.39,46.72A2.81,2.81,0,0,1,204.24,236.48Z" style="fill:#263238"></path><polygon points="211.82 183.43 214.03 178.57 223.41 181.86 221.88 187.01 211.82 183.43" style="fill:#fff"></polygon><path d="M222.21,187.66l-11.07-3.94,2.62-5.77L224,181.54Zm-9.71-4.52,9.05,3.22,1.24-4.19-8.49-3Z" style="fill:#263238"></path><path d="M214,178.57s2.46-15.58,2.81-16.17,7.27-7,8.21-8.2,2.11-1.88,2.58-1.64.46,1.4-.12,2.34-5.63,6.21-5.63,6.21l-.7,1.29s5-3.63,6-4.45a28.89,28.89,0,0,1,6.44-3.52c1.17-.23,1.41.82.94,1.64s-5.39,3.87-5.39,3.87l-4.69,4.45s6.33-3,7.5-3.4a29.27,29.27,0,0,1,5.28-.23c.35,0,.58,1.29-.12,1.64s-5,1.64-5,1.64l-4.57,3.17,5.51-.82h4c.47,0,1.41,1.17.35,1.75a25.2,25.2,0,0,1-4.45,1.29L228,172.71a71.92,71.92,0,0,1-2.7,6.8c-.58.82-1.87,2.35-1.87,2.35Z" style="fill:#fff"></path><path d="M223.57,182.44l-10.1-3.53.07-.41c.74-4.72,2.51-15.75,2.87-16.36a54.08,54.08,0,0,1,3.86-3.88c1.84-1.78,3.93-3.8,4.39-4.38,1-1.19,2.36-2.18,3.19-1.77a1.08,1.08,0,0,1,.54.72,3.15,3.15,0,0,1-.46,2.34c-.41.66-2.75,3.18-4.31,4.83,1.34-1,2.76-2,3.21-2.43a28.26,28.26,0,0,1,6.68-3.63,1.36,1.36,0,0,1,1.5.48,1.77,1.77,0,0,1,0,1.9c-.48.85-4.28,3.26-5.51,4l-2.38,2.26c1.86-.87,4.07-1.88,4.74-2.08a21.79,21.79,0,0,1,5.18-.26h.24c.37,0,.66.3.78.8a1.56,1.56,0,0,1-.68,1.79c-.69.34-4.34,1.44-5,1.65l-2.74,1.9,3.38-.51H237a1.58,1.58,0,0,1,1.29,1.19,1.29,1.29,0,0,1-.69,1.5,23.89,23.89,0,0,1-4.5,1.32L228.39,173a63,63,0,0,1-2.7,6.76c-.59.83-1.85,2.32-1.9,2.38Zm-9-4.2,8.66,3c.39-.47,1.2-1.46,1.63-2.05a67.92,67.92,0,0,0,2.63-6.67l.05-.16,5.24-3.45a24,24,0,0,0,4.31-1.23c.24-.14.23-.26.22-.31a.75.75,0,0,0-.37-.52H233L225.46,168l6.48-4.46c1.72-.51,4.47-1.36,5-1.61a.31.31,0,0,0,.15-.23,1,1,0,0,0,0-.46H237a20.84,20.84,0,0,0-4.87.21c-.9.27-5.25,2.33-7.43,3.37l-2.88,1.39,7.09-6.72a33.18,33.18,0,0,0,5.22-3.69.87.87,0,0,0,.09-.82c-.1-.14-.36-.11-.5-.08a29,29,0,0,0-6.21,3.4c-1,.83-5.81,4.34-6,4.49l-1.78,1.28,1.83-3.32c2-2.11,5.15-5.48,5.56-6.14a1.87,1.87,0,0,0,.3-1.64,4,4,0,0,0-1.94,1.52c-.5.62-2.52,2.58-4.47,4.47-1.56,1.51-3.5,3.39-3.7,3.68C217,163.3,215.52,172.38,214.59,178.24Zm22.64-17h0Z" style="fill:#263238"></path></g></svg>
