<svg xmlns="http://www.w3.org/2000/svg" viewBox="0 0 500 500"><g id="freepik--background-complete--inject-43"><rect x="416.78" y="398.49" width="33.12" height="0.25" style="fill:#ebebeb"></rect><rect x="322.53" y="401.21" width="8.69" height="0.25" style="fill:#ebebeb"></rect><rect x="396.59" y="389.21" width="19.19" height="0.25" style="fill:#ebebeb"></rect><rect x="52.46" y="390.89" width="43.19" height="0.25" style="fill:#ebebeb"></rect><rect x="104.56" y="390.89" width="6.33" height="0.25" style="fill:#ebebeb"></rect><rect x="131.47" y="395.11" width="93.68" height="0.25" style="fill:#ebebeb"></rect><path d="M237,337.8H43.92a5.71,5.71,0,0,1-5.71-5.71V60.66A5.71,5.71,0,0,1,43.92,55H237a5.71,5.71,0,0,1,5.71,5.71V332.09A5.71,5.71,0,0,1,237,337.8ZM43.92,55.2a5.47,5.47,0,0,0-5.46,5.46V332.09a5.47,5.47,0,0,0,5.46,5.46H237a5.47,5.47,0,0,0,5.46-5.46V60.66A5.47,5.47,0,0,0,237,55.2Z" style="fill:#ebebeb"></path><path d="M453.31,337.8H260.21a5.72,5.72,0,0,1-5.71-5.71V60.66A5.72,5.72,0,0,1,260.21,55h193.1A5.71,5.71,0,0,1,459,60.66V332.09A5.71,5.71,0,0,1,453.31,337.8ZM260.21,55.2a5.47,5.47,0,0,0-5.46,5.46V332.09a5.47,5.47,0,0,0,5.46,5.46h193.1a5.47,5.47,0,0,0,5.46-5.46V60.66a5.47,5.47,0,0,0-5.46-5.46Z" style="fill:#ebebeb"></path><rect y="382.4" width="500" height="0.25" style="fill:#ebebeb"></rect><rect x="295.98" y="95.8" width="120.8" height="286.73" style="fill:#f0f0f0"></rect><rect x="301.12" y="100.99" width="110.53" height="281.54" style="fill:#f5f5f5"></rect><rect x="309.48" y="138.13" width="44.31" height="103.11" style="fill:#fafafa"></rect><rect x="359.56" y="138.13" width="44.31" height="103.11" style="fill:#fafafa"></rect><rect x="309.48" y="272.42" width="94.39" height="103.11" style="fill:#ebebeb"></rect><path d="M326.76,108.47h59.83a17.28,17.28,0,0,1,17.28,17.28v7.05a0,0,0,0,1,0,0H309.48a0,0,0,0,1,0,0v-7.05A17.28,17.28,0,0,1,326.76,108.47Z" style="fill:#fafafa"></path><rect x="309.48" y="245.88" width="8.06" height="21" style="fill:#e6e6e6"></rect><rect x="317.54" y="245.88" width="1.58" height="21" transform="translate(636.66 512.77) rotate(180)" style="fill:#e0e0e0"></rect><path d="M314.88,254.13a3.4,3.4,0,1,1-3.4-3.39A3.4,3.4,0,0,1,314.88,254.13Z" style="fill:#e0e0e0"></path><rect x="312.48" y="260.01" width="1.75" height="4.25" style="fill:#e0e0e0"></rect><circle cx="308.48" cy="254.13" r="4.75" style="fill:#ebebeb"></circle><polygon points="80.91 121.07 123.74 96.15 156.74 96.15 200.28 119.89 200.28 339.38 80.91 339.38 80.91 121.07" style="fill:#fafafa"></polygon><path d="M201.51,339.38H80.91V121.07l1.23-1.18a84.83,84.83,0,0,1,59.07-23.74h0a84.8,84.8,0,0,1,59.07,23.74l1.23,1.18Zm-112.6-8h104.6V124.5a77.38,77.38,0,0,0-104.6,0Z" style="fill:#f5f5f5"></path><polygon points="195.03 159.93 195.03 153.93 144.21 153.93 144.21 103.12 138.21 103.12 138.21 153.93 87.4 153.93 87.4 159.93 138.21 159.93 138.21 214.75 87.4 214.75 87.4 220.75 138.21 220.75 138.21 275.56 87.4 275.56 87.4 281.56 138.21 281.56 138.21 332.38 144.21 332.38 144.21 281.56 195.03 281.56 195.03 275.56 144.21 275.56 144.21 220.75 195.03 220.75 195.03 214.75 144.21 214.75 144.21 159.93 195.03 159.93" style="fill:#f0f0f0"></polygon><path d="M205.51,343.38H76.91V119.44l1.17-1.17a89.38,89.38,0,0,1,126.26,0l1.17,1.17Zm-120.6-8h112.6V122.77a81.37,81.37,0,0,0-112.6,0Z" style="fill:#ebebeb"></path></g><g id="freepik--Shadow--inject-43"><ellipse id="freepik--path--inject-43" cx="245.18" cy="412.39" rx="193.89" ry="11.32" style="fill:#f5f5f5"></ellipse></g><g id="freepik--Handsaw--inject-43"><polygon points="239.76 362.47 241.25 364.1 242.88 362.61 244.36 364.23 245.99 362.74 247.47 364.37 249.1 362.88 250.59 364.5 252.21 363.01 253.7 364.64 255.32 363.15 256.81 364.77 258.43 363.29 259.92 364.91 261.54 363.42 263.03 365.05 264.65 363.56 266.14 365.18 267.76 363.69 269.25 365.32 270.88 363.83 272.36 365.45 273.99 363.96 275.47 365.59 277.1 364.1 278.58 365.72 280.21 364.24 281.7 365.86 283.32 364.37 284.81 365.99 286.43 364.51 287.92 366.13 289.54 364.64 291.03 366.26 292.65 364.78 293.45 365.64 295.86 363.52 290.72 355.15 290.02 347.51 237.19 358.17 238.32 363.8 239.76 362.47" style="fill:#263238"></polygon><polygon points="239.76 362.47 241.25 364.1 242.88 362.61 244.36 364.23 245.99 362.74 247.47 364.37 249.1 362.88 250.59 364.5 252.21 363.01 253.7 364.64 255.32 363.15 256.81 364.77 258.43 363.29 259.92 364.91 261.54 363.42 263.03 365.05 264.65 363.56 266.14 365.18 267.76 363.69 269.25 365.32 270.88 363.83 272.36 365.45 273.99 363.96 275.47 365.59 277.1 364.1 278.58 365.72 280.21 364.24 281.7 365.86 283.32 364.37 284.81 365.99 286.43 364.51 287.92 366.13 289.54 364.64 291.03 366.26 292.65 364.78 293.45 365.64 295.86 363.52 290.72 355.15 290.02 347.51 237.19 358.17 238.32 363.8 239.76 362.47" style="fill:#fff;opacity:0.7000000000000001"></polygon><path d="M307,361.07c-2.65-2.79-6.11-10.31-6-14.15a1.72,1.72,0,0,1,.09-.44,1.56,1.56,0,0,0-1.78-2l-8.14,1.64a3.56,3.56,0,0,0-2.85,3.38l-.22,6.62a3.54,3.54,0,0,0,.76,2.3l5.46,7a3.56,3.56,0,0,0,3.51,1.3l9.64-1.95a1.56,1.56,0,0,0,.58-2.81A7.45,7.45,0,0,1,307,361.07Zm-9.38,2.05c-2.18-1.64-4.07-7.21-4.58-9.89-.17-.9-.4-3,.2-3.65.42-.48,1.87-.68,2.92-.76a.78.78,0,0,1,.81,1,3,3,0,0,0-.18,1.43c.22.69,1.93,1.23,2.18,1.91s-.56,1.86-.29,2.41,1.81.76,2.14,1.29-.19,2.16.09,2.8a6.25,6.25,0,0,0,1.4,1.48.77.77,0,0,1,0,1.21,7.53,7.53,0,0,1-2,1.2A4.51,4.51,0,0,1,297.58,363.12Z" style="fill:#407BFF"></path><path d="M307,361.07c-2.65-2.79-6.11-10.31-6-14.15a1.72,1.72,0,0,1,.09-.44,1.56,1.56,0,0,0-1.78-2l-8.14,1.64a3.56,3.56,0,0,0-2.85,3.38l-.22,6.62a3.54,3.54,0,0,0,.76,2.3l5.46,7a3.56,3.56,0,0,0,3.51,1.3l9.64-1.95a1.56,1.56,0,0,0,.58-2.81A7.45,7.45,0,0,1,307,361.07Zm-9.38,2.05c-2.18-1.64-4.07-7.21-4.58-9.89-.17-.9-.4-3,.2-3.65.42-.48,1.87-.68,2.92-.76a.78.78,0,0,1,.81,1,3,3,0,0,0-.18,1.43c.22.69,1.93,1.23,2.18,1.91s-.56,1.86-.29,2.41,1.81.76,2.14,1.29-.19,2.16.09,2.8a6.25,6.25,0,0,0,1.4,1.48.77.77,0,0,1,0,1.21,7.53,7.53,0,0,1-2,1.2A4.51,4.51,0,0,1,297.58,363.12Z" style="fill:#fff;opacity:0.30000000000000004"></path></g><g id="freepik--Meter--inject-43"><path d="M356.65,155.46a11.24,11.24,0,0,0,7.63-3.44,11.87,11.87,0,0,0,0-16.78,10.77,10.77,0,0,0-6.59-3.33,63.16,63.16,0,0,0-6.88,0,10.71,10.71,0,0,0-6.59,3.32l-8.39,8.39,8.39,8.39a10.88,10.88,0,0,0,6.59,3.33C352.27,155.49,355.19,155.5,356.65,155.46Z" style="fill:#407BFF"></path><path d="M356.65,155.46a11.24,11.24,0,0,0,7.63-3.44,11.87,11.87,0,0,0,0-16.78,10.77,10.77,0,0,0-6.59-3.33,63.16,63.16,0,0,0-6.88,0,10.71,10.71,0,0,0-6.59,3.32l-8.39,8.39,8.39,8.39a10.88,10.88,0,0,0,6.59,3.33C352.27,155.49,355.19,155.5,356.65,155.46Z" style="fill:#fff;opacity:0.30000000000000004"></path><path d="M347.49,135.24a11.87,11.87,0,1,1,0,16.78l-8.39-8.39Z" style="fill:#407BFF"></path><path d="M347.49,135.24a11.87,11.87,0,1,1,0,16.78l-8.39-8.39Z" style="fill:#fff;opacity:0.6000000000000001"></path><polygon points="326.16 133.55 336.12 143.51 338.91 143.51 328.95 133.55 326.16 133.55" style="fill:#263238"></polygon><polygon points="326.16 133.55 336.12 143.51 338.91 143.51 328.95 133.55 326.16 133.55" style="fill:#fff;opacity:0.7000000000000001"></polygon><path d="M326.16,133.55l.68-.68a2.41,2.41,0,0,1,1.71-.71h.72a.45.45,0,0,1,.32.76l-.64.63Z" style="fill:#263238"></path><path d="M326.16,133.55l.68-.68a2.41,2.41,0,0,1,1.71-.71h.72a.45.45,0,0,1,.32.76l-.64.63Z" style="fill:#fff;opacity:0.5"></path><g style="opacity:0.7000000000000001"><path d="M361.19,147.46a6.54,6.54,0,0,0-9.13-9.13Z" style="fill:#fff"></path><path d="M350.58,139.81a6.54,6.54,0,0,0,9.13,9.13Z" style="fill:#fff"></path></g></g><g id="freepik--Hammer--inject-43"><path d="M402.75,147l-5.13,2.34s6.79,13.68,8.85,18.34c2.18,4.9,7.27,17.81,9.29,22.94a2.17,2.17,0,0,0,2.93,1.18L421,190.7a2.17,2.17,0,0,0,1-3c-2.56-4.89-9-17.27-11.3-22.15C408.59,161,402.75,147,402.75,147Z" style="fill:#407BFF"></path><path d="M402.75,147l-5.13,2.34s6.79,13.68,8.85,18.34c2.18,4.9,7.27,17.81,9.29,22.94a2.17,2.17,0,0,0,2.93,1.18L421,190.7a2.17,2.17,0,0,0,1-3c-2.56-4.89-9-17.27-11.3-22.15C408.59,161,402.75,147,402.75,147Z" style="fill:#fff;opacity:0.5"></path><path d="M390.09,145.15a42.58,42.58,0,0,1,3.61-3.2,9.66,9.66,0,0,1,3.73-1.7c2.89-.61,7.48-.88,12.68,4.35l-1.28.58s-5.52-4.93-6.93-1.91c-.41.89.9,3.82.9,3.82l-5.13,2.34a4.69,4.69,0,0,0-6.46-1.84Z" style="fill:#263238"></path><path d="M390.09,145.15a42.58,42.58,0,0,1,3.61-3.2,9.66,9.66,0,0,1,3.73-1.7c2.89-.61,7.48-.88,12.68,4.35l-1.28.58s-5.52-4.93-6.93-1.91c-.41.89.9,3.82.9,3.82l-5.13,2.34a4.69,4.69,0,0,0-6.46-1.84Z" style="fill:#fff;opacity:0.6000000000000001"></path><rect x="387.69" y="143.87" width="3.84" height="5.98" rx="1.64" transform="translate(-25.81 175.04) rotate(-24.53)" style="fill:#263238"></rect><rect x="387.69" y="143.87" width="3.84" height="5.98" rx="1.64" transform="translate(-25.81 175.04) rotate(-24.53)" style="fill:#fff;opacity:0.4"></rect></g><g id="freepik--thecnical-drawing--inject-43"><rect x="94.84" y="160.95" width="248.75" height="169.2" style="fill:#263238"></rect><rect x="94.84" y="160.95" width="248.75" height="169.2" style="fill:#fff;opacity:0.5"></rect><rect x="100.35" y="166.45" width="237.74" height="158.19" style="fill:#fff;opacity:0.9"></rect><rect x="139.59" y="242.86" width="65.63" height="54.62" style="fill:#263238"></rect><rect x="139.59" y="242.86" width="65.63" height="54.62" style="fill:#fff;opacity:0.7000000000000001"></rect><rect x="169.08" y="257.41" width="27.73" height="34.45" style="fill:#407BFF"></rect><rect x="147.2" y="257.41" width="17.65" height="28.66" style="fill:#407BFF"></rect><rect x="148.8" y="259.01" width="14.45" height="25.46" style="fill:#fff;opacity:0.7000000000000001"></rect><polygon points="151.06 284.47 157.08 284.47 163.25 261.41 163.25 259.01 157.87 259.01 151.06 284.47" style="fill:#fff;opacity:0.5"></polygon><rect x="171.28" y="259.61" width="10.63" height="32.25" style="fill:#fff;opacity:0.7000000000000001"></rect><rect x="183.97" y="259.61" width="10.63" height="32.25" style="fill:#fff;opacity:0.7000000000000001"></rect><rect x="148.57" y="217.92" width="55.08" height="25.7" style="fill:#263238"></rect><rect x="148.57" y="217.92" width="55.08" height="25.7" style="fill:#fff;opacity:0.7000000000000001"></rect><rect x="158.11" y="225.92" width="17.65" height="7.74" style="fill:#407BFF"></rect><rect x="159.71" y="227.52" width="14.45" height="4.54" style="fill:#fff;opacity:0.7000000000000001"></rect><rect x="177.43" y="225.92" width="17.65" height="7.74" style="fill:#407BFF"></rect><rect x="179.03" y="227.52" width="14.45" height="4.54" style="fill:#fff;opacity:0.7000000000000001"></rect><polygon points="163.32 232.06 169.34 232.06 170.55 227.52 164.53 227.52 163.32 232.06" style="fill:#fff;opacity:0.5"></polygon><polygon points="182.64 232.06 188.66 232.06 189.87 227.52 183.85 227.52 182.64 232.06" style="fill:#fff;opacity:0.5"></polygon><polygon points="219.41 250.29 131.17 250.29 138.88 235.43 217.21 235.43 219.41 250.29" style="fill:#407BFF"></polygon><polygon points="219.41 250.29 131.17 250.29 138.88 235.43 217.21 235.43 219.41 250.29" style="opacity:0.30000000000000004"></polygon><polygon points="206.55 224.16 142.84 224.16 147.81 214.57 205.13 214.57 206.55 224.16" style="fill:#407BFF"></polygon><polygon points="206.55 224.16 142.84 224.16 147.81 214.57 205.13 214.57 206.55 224.16" style="opacity:0.30000000000000004"></polygon><rect x="131.17" y="291.86" width="74.05" height="5.62" style="fill:#263238"></rect><rect x="131.17" y="291.86" width="74.05" height="5.62" style="fill:#fff;opacity:0.5"></rect><polygon points="201.62 203.38 201.62 247.38 283.26 247.38 283.26 203.38 242.44 181.75 201.62 203.38" style="fill:#407BFF"></polygon><polygon points="201.62 203.38 201.62 247.38 283.26 247.38 283.26 203.38 242.44 181.75 201.62 203.38" style="fill:#fff;opacity:0.5"></polygon><rect x="201.62" y="243.62" width="81.64" height="53.87" style="fill:#407BFF"></rect><rect x="201.62" y="243.62" width="81.64" height="53.87" style="fill:#fff;opacity:0.5"></rect><polygon points="273.13 234.88 211.74 234.88 211.74 207.9 242.44 190.83 273.13 207.9 273.13 234.88" style="fill:#407BFF"></polygon><polygon points="273.13 234.88 211.74 234.88 211.74 207.9 242.44 190.83 273.13 207.9 273.13 234.88" style="fill:#fff;opacity:0.8"></polygon><rect x="223.95" y="211.68" width="17.65" height="17.65" style="fill:#407BFF"></rect><rect x="225.55" y="213.29" width="14.45" height="14.45" style="fill:#fff;opacity:0.7000000000000001"></rect><rect x="243.27" y="211.68" width="17.65" height="17.65" style="fill:#407BFF"></rect><rect x="244.87" y="213.29" width="14.45" height="14.45" style="fill:#fff;opacity:0.7000000000000001"></rect><rect x="209.54" y="256.62" width="65.79" height="40.86" style="fill:#263238"></rect><rect x="209.54" y="256.62" width="65.79" height="40.86" style="fill:#fff;opacity:0.30000000000000004"></rect><polygon points="227.85 227.73 233.87 227.73 237.73 213.28 231.71 213.28 227.85 227.73" style="fill:#fff;opacity:0.5"></polygon><polygon points="247.17 227.73 253.19 227.73 257.06 213.28 251.03 213.28 247.17 227.73" style="fill:#fff;opacity:0.5"></polygon><polygon points="291.04 212.17 242.44 185.71 193.84 212.17 191.21 207.33 242.44 179.44 293.67 207.33 291.04 212.17" style="fill:#407BFF"></polygon><polygon points="286.56 250.29 198.31 250.29 200.52 239.83 284.36 239.83 286.56 250.29" style="fill:#407BFF"></polygon><polygon points="275.83 211.68 242.44 193.5 209.04 211.68 206.94 207.81 242.44 188.49 277.94 207.81 275.83 211.68" style="fill:#407BFF"></polygon><rect x="211.74" y="258.83" width="10.63" height="38.66" style="fill:#fff;opacity:0.5"></rect><rect x="224.43" y="258.83" width="10.63" height="38.66" style="fill:#fff;opacity:0.5"></rect><rect x="237.12" y="258.83" width="10.63" height="38.66" style="fill:#fff;opacity:0.5"></rect><rect x="249.81" y="258.83" width="10.63" height="38.66" style="fill:#fff;opacity:0.5"></rect><rect x="262.5" y="258.83" width="10.63" height="38.66" style="fill:#fff;opacity:0.5"></rect><path d="M282.71,303H202.17v-2.34h-1.1V303H131.72v-2.34h-1.1v3.44h70.45V307h82.74v-6.33h-1.1Zm0,2.89H202.17v-1.79h80.54Z" style="fill:#263238"></path><path d="M296.53,239.28V178.89H247.17V180h48.26v59.29h-8.87v1.1h8.87v56.55h-8.87V298h12.72V239.28Zm1.65,57.65h-1.65V240.38h1.65Z" style="fill:#263238"></path><polygon points="149.35 196.91 201.07 196.91 201.07 199.65 202.17 199.65 202.17 195.8 148.25 195.8 148.25 211.68 149.35 211.68 149.35 196.91" style="fill:#263238"></polygon><polygon points="137.97 234.88 134.94 234.88 134.94 215.12 145.4 215.12 145.4 214.02 133.84 214.02 133.84 235.98 137.97 235.98 137.97 234.88" style="fill:#263238"></polygon><g style="opacity:0.2"><path d="M282.71,303H202.17v-2.34h-1.1V303H131.72v-2.34h-1.1v3.44h70.45V307h82.74v-6.33h-1.1Zm0,2.89H202.17v-1.79h80.54Z" style="fill:#fff"></path><path d="M296.53,239.28V178.89H247.17V180h48.26v59.29h-8.87v1.1h8.87v56.55h-8.87V298h12.72V239.28Zm1.65,57.65h-1.65V240.38h1.65Z" style="fill:#fff"></path><polygon points="149.35 196.91 201.07 196.91 201.07 199.65 202.17 199.65 202.17 195.8 148.25 195.8 148.25 211.68 149.35 211.68 149.35 196.91" style="fill:#fff"></polygon><polygon points="137.97 234.88 134.94 234.88 134.94 215.12 145.4 215.12 145.4 214.02 133.84 214.02 133.84 235.98 137.97 235.98 137.97 234.88" style="fill:#fff"></polygon></g><path d="M297.4,310.22H282.71v15h55.93v-15Zm-13.59,1.1H296.3v5.83H283.81Zm12.49,12.77H283.81v-5.84H296.3Zm20.62,0H297.4v-5.84h19.52Zm20.62,0H318v-5.84h19.52ZM318,317.15H297.4v-5.83h40.14v5.83Z" style="fill:#263238"></path><path d="M297.4,310.22H282.71v15h55.93v-15Zm-13.59,1.1H296.3v5.83H283.81Zm12.49,12.77H283.81v-5.84H296.3Zm20.62,0H297.4v-5.84h19.52Zm20.62,0H318v-5.84h19.52ZM318,317.15H297.4v-5.83h40.14v5.83Z" style="fill:#fff;opacity:0.2"></path></g><g id="freepik--Plant--inject-43"><path d="M145.49,362.76s5.35-12.24.19-12.52S145.49,362.76,145.49,362.76Z" style="fill:#407BFF"></path><path d="M155.16,353.44s10.1-7.31,5.34-11S155.16,353.44,155.16,353.44Z" style="fill:#407BFF"></path><path d="M181.53,356.46s12.57,4.6,11.75-1.2S181.53,356.46,181.53,356.46Z" style="fill:#407BFF"></path><path d="M160.67,351.45s14.14,2.58,8.63,8.78S160.67,351.45,160.67,351.45Z" style="fill:#407BFF"></path><path d="M140.19,373.62s-.23-13.25-4.67-10.47S140.19,373.62,140.19,373.62Z" style="fill:#407BFF"></path><path d="M166.34,351.12s14.59,2.14,12.56-4.45S166.34,351.12,166.34,351.12Z" style="fill:#407BFF"></path><path d="M176.84,354s8.21,9.51,2,10.8S176.84,354,176.84,354Z" style="fill:#407BFF"></path><path d="M148.91,358.38s10.87-5.6,10.41,1.64S148.91,358.38,148.91,358.38Z" style="fill:#407BFF"></path><g style="opacity:0.4"><path d="M140.19,373.62s-.23-13.25-4.67-10.47S140.19,373.62,140.19,373.62Z" style="fill:#fff"></path><path d="M166.34,351.12s14.59,2.14,12.56-4.45S166.34,351.12,166.34,351.12Z" style="fill:#fff"></path><path d="M176.84,354s8.21,9.51,2,10.8S176.84,354,176.84,354Z" style="fill:#fff"></path><path d="M148.91,358.38s10.87-5.6,10.41,1.64S148.91,358.38,148.91,358.38Z" style="fill:#fff"></path></g><path d="M142.17,368.78s9.86-8.87,11.63-1.53S142.17,368.78,142.17,368.78Z" style="fill:#407BFF"></path><path d="M137.32,380.42a48.73,48.73,0,0,1,9.9-21.47c10.08-12,24.39-9.78,36.58-2.13,1,.61-.17,2-1.13,1.38-6.46-4.06-14.24-7.49-22-5.85-5.61,1.19-10.11,5-13.43,9.49a48.69,48.69,0,0,0-8.14,18.85c-.22,1.12-2,.85-1.75-.27Z" style="fill:#407BFF"></path><g style="opacity:0.30000000000000004"><path d="M137.32,380.42a48.73,48.73,0,0,1,9.9-21.47c10.08-12,24.39-9.78,36.58-2.13,1,.61-.17,2-1.13,1.38-6.46-4.06-14.24-7.49-22-5.85-5.61,1.19-10.11,5-13.43,9.49a48.69,48.69,0,0,0-8.14,18.85c-.22,1.12-2,.85-1.75-.27Z"></path></g><path d="M129.83,364.46s-5.13-12.84-9.08-9.25S129.83,364.46,129.83,364.46Z" style="fill:#407BFF"></path><path d="M130,350.56s2-12.76-4.21-11.94S130,350.56,130,350.56Z" style="fill:#407BFF"></path><path d="M151.39,333.33s12.53-5.91,7.67-9.52S151.39,333.33,151.39,333.33Z" style="fill:#407BFF"></path><path d="M132.53,345.05s12.19-8.54,12.75,0S132.53,345.05,132.53,345.05Z" style="fill:#407BFF"></path><path d="M134,376.26s-9.93-9.47-11.11-4.18S134,376.26,134,376.26Z" style="fill:#407BFF"></path><path d="M136.41,340.63s12.19-9.19,5.87-12.48S136.41,340.63,136.41,340.63Z" style="fill:#407BFF"></path><path d="M146.17,335s13,.87,9.41,6.38S146.17,335,146.17,335Z" style="fill:#407BFF"></path><path d="M129.08,358.75s3.79-12.07,8.78-6.48S129.08,358.75,129.08,358.75Z" style="fill:#407BFF"></path><g style="opacity:0.4"><path d="M134,376.26s-9.93-9.47-11.11-4.18S134,376.26,134,376.26Z" style="fill:#fff"></path><path d="M136.41,340.63s12.19-9.19,5.87-12.48S136.41,340.63,136.41,340.63Z" style="fill:#fff"></path><path d="M146.17,335s13,.87,9.41,6.38S146.17,335,146.17,335Z" style="fill:#fff"></path><path d="M129.08,358.75s3.79-12.07,8.78-6.48S129.08,358.75,129.08,358.75Z" style="fill:#fff"></path></g><path d="M131.84,371.27s.64-13.71,7.34-9.67S131.84,371.27,131.84,371.27Z" style="fill:#407BFF"></path><path d="M136.88,383.31a50.54,50.54,0,0,1-8.61-22.9c-1.5-16.15,10.55-25.07,25-28.49,1.15-.27,1.34,1.57.2,1.83-7.69,1.81-15.88,5.05-20.33,12-3.21,5-3.7,11-2.78,16.79a50.23,50.23,0,0,0,8,19.7c.67,1-.81,2.08-1.48,1.09Z" style="fill:#407BFF"></path><g style="opacity:0.30000000000000004"><path d="M136.88,383.31a50.54,50.54,0,0,1-8.61-22.9c-1.5-16.15,10.55-25.07,25-28.49,1.15-.27,1.34,1.57.2,1.83-7.69,1.81-15.88,5.05-20.33,12-3.21,5-3.7,11-2.78,16.79a50.23,50.23,0,0,0,8,19.7c.67,1-.81,2.08-1.48,1.09Z"></path></g><path d="M123.07,367s-2.92-11.18,1.52-10.73S123.07,367,123.07,367Z" style="fill:#407BFF"></path><path d="M116.07,357.73s-7.66-7.61-3.1-10.12S116.07,357.73,116.07,357.73Z" style="fill:#407BFF"></path><path d="M93.11,356.76s-11.36,2.24-9.88-2.6S93.11,356.76,93.11,356.76Z" style="fill:#407BFF"></path><path d="M111.62,355.29s-12.44.3-8.56,6.34S111.62,355.29,111.62,355.29Z" style="fill:#407BFF"></path><path d="M126.14,377s2-11.3,5.4-8.32S126.14,377,126.14,377Z" style="fill:#407BFF"></path><path d="M106.82,354.24s-12.76-.13-10.14-5.49S106.82,354.24,106.82,354.24Z" style="fill:#407BFF"></path><path d="M97.45,355.29s-8.29,7-3.17,9S97.45,355.29,97.45,355.29Z" style="fill:#407BFF"></path><path d="M120.74,362.79s-8.54-6.24-9.12,0S120.74,362.79,120.74,362.79Z" style="fill:#407BFF"></path><g style="opacity:0.4"><path d="M126.14,377s2-11.3,5.4-8.32S126.14,377,126.14,377Z" style="fill:#fff"></path><path d="M106.82,354.24s-12.76-.13-10.14-5.49S106.82,354.24,106.82,354.24Z" style="fill:#fff"></path><path d="M97.45,355.29s-8.29,7-3.17,9S97.45,355.29,97.45,355.29Z" style="fill:#fff"></path><path d="M120.74,362.79s-8.54-6.24-9.12,0S120.74,362.79,120.74,362.79Z" style="fill:#fff"></path></g><path d="M125.1,372.59s-7.23-8.91-9.74-2.87S125.1,372.59,125.1,372.59Z" style="fill:#407BFF"></path><path d="M127.69,383.19a42.38,42.38,0,0,0-5.58-19.68c-7-11.62-19.54-11.64-31-6.74-.91.39-.13,1.72.77,1.33,6.07-2.6,13.19-4.49,19.62-2,4.64,1.77,8,5.6,10.21,9.92a42.15,42.15,0,0,1,4.42,17.21c0,1,1.58,1,1.54,0Z" style="fill:#407BFF"></path><g style="opacity:0.30000000000000004"><path d="M127.69,383.19a42.38,42.38,0,0,0-5.58-19.68c-7-11.62-19.54-11.64-31-6.74-.91.39-.13,1.72.77,1.33,6.07-2.6,13.19-4.49,19.62-2,4.64,1.77,8,5.6,10.21,9.92a42.15,42.15,0,0,1,4.42,17.21c0,1,1.58,1,1.54,0Z"></path></g><path d="M153.91,376.64,150,405.83a7.55,7.55,0,0,1-7.49,6.56H118.48a7.55,7.55,0,0,1-7.49-6.56l-3.87-29.19Z" style="fill:#407BFF"></path><path d="M153.91,376.64,150,405.83a7.55,7.55,0,0,1-7.49,6.56H118.48a7.55,7.55,0,0,1-7.49-6.56l-3.87-29.19Z" style="fill:#fff;opacity:0.30000000000000004"></path></g><g id="freepik--character-1--inject-43"><polygon points="318.42 215.26 314.96 209 313.59 199.93 310.91 200.31 307.37 206.86 312.25 211.94 314.82 218.34 318.42 215.26" style="fill:#ffc3bd"></polygon><path d="M347.55,215.25a.74.74,0,0,0-1.14-.51c-3,2-12.22,8-17.26,8-6.08,0-12-11.31-12-11.31l-4.68,2.87s7.05,18.31,16.73,18.31,19.81-8,19.81-8Z" style="fill:#407BFF"></path><path d="M347.55,215.25a.74.74,0,0,0-1.14-.51c-3,2-12.22,8-17.26,8-6.08,0-12-11.31-12-11.31l-4.68,2.87s7.05,18.31,16.73,18.31,19.81-8,19.81-8Z" style="fill:#fff;opacity:0.5"></path><polygon points="311.64 214.1 317.09 210.59 318.42 212.34 312.42 216.04 311.64 214.1" style="fill:#407BFF"></polygon><path d="M336.94,231.19a46.81,46.81,0,0,0,12-6.51l-1.18-7.9h-1.56Z" style="opacity:0.1"></path><polygon points="338.58 388.48 339.2 405.66 345.46 405.66 346.95 389.09 338.58 388.48" style="fill:#ffc3bd"></polygon><polygon points="372.35 389.06 375.09 406.03 381.3 405.25 380.73 388.64 372.35 389.06" style="fill:#ffc3bd"></polygon><path d="M342.55,262.24s-8.28,43-4.05,136h8.35s5.59-44.77,5-62.37c0-.44,0-.86-.05-1.26a35.78,35.78,0,0,1,1-11l.06-.21,9.6-36.68s16.56-5.11,9.48-24.49Z" style="fill:#407BFF"></path><path d="M360.42,282.85l-3.6-9.51a197.17,197.17,0,0,0-1,38.9l6.27-23.93Z" style="opacity:0.1"></path><polygon points="337.6 395.95 337.74 400.1 347.24 400.56 348.03 396.26 337.6 395.95" style="fill:#263238"></polygon><path d="M355.53,262.24s-.67,46.62,18.12,137.83l8.25-1.31s-1.52-42-4.51-60.43q-.22-1.35-.45-2.52a64.49,64.49,0,0,1-1.27-14.2v-.18c.28-10.7.91-27.72,2.11-34.94,1-5.76,1.09-11-1-23.28Z" style="fill:#407BFF"></path><polygon points="372.41 397.29 373.3 401.34 382.72 400.07 382.72 395.7 372.41 397.29" style="fill:#263238"></polygon><polygon points="402.75 239.31 409.51 238.64 412.4 236.31 419.15 237.23 419.15 239.64 417.22 243.54 409.89 242.34 402.28 243.78 402.75 239.31" style="fill:#ffc3bd"></polygon><path d="M359.2,183.79s-7.43-.75-4.66,7.85l5.69-6.54Z" style="fill:#263238"></path><path d="M359.2,183.79s-7.43-.75-4.66,7.85l5.69-6.54Z" style="fill:#fff;opacity:0.30000000000000004"></path><path d="M367.3,200.33c-.68,3.82-1.3,10.43.66,13.87a2,2,0,0,1-.39,2.51,13.93,13.93,0,0,1-9.11,4.08c-4.4.24-4.75-2.12-3.92-4a2,2,0,0,1,1.16-1.06c4.13-1.42,4.35-5.07,3.5-8.25Z" style="fill:#ffc3bd"></path><path d="M364,203.27l-4.8,4.22a14.57,14.57,0,0,1,.38,2.38C361.42,209.57,369,205.68,364,203.27Z" style="opacity:0.2;isolation:isolate"></path><path d="M369.87,194.67c-1.25,5.72-1.7,9.13-5.07,11.63-5.08,3.78-11.8,0-12.27-6-.43-5.41,1.69-13.83,7.7-15.25a8,8,0,0,1,9.64,9.57Z" style="fill:#ffc3bd"></path><path d="M360.58,194.93c-.08.47-.38.82-.69.77s-.5-.47-.42-.94.38-.81.69-.76S360.65,194.46,360.58,194.93Z" style="fill:#263238"></path><path d="M355.27,194.1c-.08.47-.38.81-.69.76s-.5-.46-.42-.93.38-.82.69-.77S355.34,193.63,355.27,194.1Z" style="fill:#263238"></path><path d="M357.21,194.59a16.44,16.44,0,0,1-2.88,3.66,2.79,2.79,0,0,0,2.19.78Z" style="fill:#ed847e"></path><path d="M362.75,193a.23.23,0,0,0,.14,0,.29.29,0,0,0,.11-.38,2.81,2.81,0,0,0-2.07-1.49.28.28,0,1,0,0,.56h0a2.22,2.22,0,0,1,1.62,1.2A.27.27,0,0,0,362.75,193Z" style="fill:#263238"></path><path d="M353.54,191.64a.27.27,0,0,0,.23-.12,2.21,2.21,0,0,1,1.74-1,.27.27,0,0,0,.28-.27.28.28,0,0,0-.27-.29,2.83,2.83,0,0,0-2.23,1.25.27.27,0,0,0,.07.38h0A.35.35,0,0,0,353.54,191.64Z" style="fill:#263238"></path><path d="M355.68,200.92a32.81,32.81,0,0,1,5.69-.15c-.56,1.12-1.52,2-3.67,1.95S355.68,200.92,355.68,200.92Z" style="fill:#263238"></path><path d="M358.75,201.85a4.33,4.33,0,0,0-2.37.48,2.31,2.31,0,0,0,1.32.38,4.28,4.28,0,0,0,2.36-.48A2.35,2.35,0,0,0,358.75,201.85Z" style="fill:#ff5652"></path><path d="M355.87,200.89a.81.81,0,0,0,.62.59,24.41,24.41,0,0,0,3.72-.19,1.22,1.22,0,0,0,1-.53A39.24,39.24,0,0,0,355.87,200.89Z" style="fill:#fff"></path><path d="M368.67,187.09s-3.77,1.78-2.38,5.35-.31,5.75-.31,5.75l2.69.4s6-4.19,4.62-10.11Z" style="fill:#263238"></path><path d="M368.67,187.09s-3.77,1.78-2.38,5.35-.31,5.75-.31,5.75l2.69.4s6-4.19,4.62-10.11Z" style="fill:#fff;opacity:0.30000000000000004"></path><path d="M371.85,200.49a5.54,5.54,0,0,1-3.8,1.89c-1.95.12-2.52-1.72-1.63-3.34.79-1.46,2.76-3.29,4.55-2.64A2.48,2.48,0,0,1,371.85,200.49Z" style="fill:#ffc3bd"></path><path d="M372.93,189.48c2-1,3.7-6.06-4.15-7.9-9.72-2.29-13-7-13-7s-.41,4.49,2.45,6.21c0,0-3.89-2.18-5.35,1.39,0,0,2.41-.73,5.35,3.3C362.11,190.77,369.51,191.18,372.93,189.48Z" style="fill:#263238"></path><path d="M359.34,185.77s-6.1-4.89-6.47,1.67C352.87,187.44,354.8,185.86,359.34,185.77Z" style="fill:#263238"></path><path d="M377.74,216.25a.79.79,0,0,1,1.32.28c1.22,3.37,6.46,15.8,10.27,18.57,4.66,3.39,17.58,3.1,17.58,3.1l.27,5.47s-15.35,3.78-22.78-1.62-12.89-19.47-12.89-19.47Z" style="fill:#407BFF"></path><path d="M377.74,216.25a.79.79,0,0,1,1.32.28c1.22,3.37,6.46,15.8,10.27,18.57,4.66,3.39,17.58,3.1,17.58,3.1l.27,5.47s-15.35,3.78-22.78-1.62-12.89-19.47-12.89-19.47Z" style="fill:#fff;opacity:0.5"></path><path d="M373.31,225l0,1.55c2,4.24,5.64,10.83,10.07,14.62L378,219.09Z" style="opacity:0.1"></path><polygon points="406.1 237.55 406.46 244.48 408.26 244.03 407.95 237.55 406.1 237.55" style="fill:#407BFF"></polygon><path d="M376.49,214.81c-2.66-.41-6.65-.95-11.11-1.32l-3.93,2-1.8-2.32a78.64,78.64,0,0,0-10.69.23,4.12,4.12,0,0,0-3.63,3.37c-1.37,7.58-5.58,30.48-3.75,50.08,0,0,9.78,2.11,14-.71,0,0,12.63,4.3,22.14.6l2-47.92A3.8,3.8,0,0,0,376.49,214.81Z" style="fill:#407BFF"></path><path d="M376.49,214.81c-2.66-.41-6.65-.95-11.11-1.32l-3.93,2-1.8-2.32a78.64,78.64,0,0,0-10.69.23,4.12,4.12,0,0,0-3.63,3.37c-1.37,7.58-5.58,30.48-3.75,50.08,0,0,9.78,2.11,14-.71,0,0,12.63,4.3,22.14.6l2-47.92A3.8,3.8,0,0,0,376.49,214.81Z" style="fill:#fff;opacity:0.5"></path><path d="M360,212.14l1.68,2.44,5.54-3a1.84,1.84,0,0,1,2.17.34l2.11,2.18-5.46,6.15a.44.44,0,0,1-.78-.28c0-1.76-.53-4.74-3.58-4.11,0,0-2.91-1.78-4.62,2a.45.45,0,0,1-.85-.14l-.55-4.67,1.73-1.33A1.83,1.83,0,0,1,360,212.14Z" style="fill:#407BFF"></path><path d="M361.66,217.77a.8.8,0,1,1-.8-.8A.8.8,0,0,1,361.66,217.77Z" style="fill:#263238"></path><path d="M359,230.48a.8.8,0,1,1-.8-.8A.8.8,0,0,1,359,230.48Z" style="fill:#263238"></path><path d="M357.28,244.65a.8.8,0,1,1-1.6,0,.8.8,0,0,1,1.6,0Z" style="fill:#263238"></path><circle cx="355.68" cy="258.7" r="0.8" style="fill:#263238"></circle><path d="M339.18,403.75h7a.65.65,0,0,1,.63.52l2.41,6.74a1.08,1.08,0,0,1-.83,1.28l-.23,0c-2.91-.1-5.5-.31-9.12-.36-4.28-.07-3.2.45-8.23.44-3,0-3.52-3.46-2.24-3.61,5.89-.64,6.53-2.4,8.84-4.47A2.62,2.62,0,0,1,339.18,403.75Z" style="fill:#263238"></path><path d="M374.8,403.75h7a.65.65,0,0,1,.63.52l2.41,6.74a1.08,1.08,0,0,1-.83,1.28.91.91,0,0,1-.23,0c-2.91-.1-5.5-.31-9.12-.36-4.27-.07-3.2.45-8.23.44-3,0-3.52-3.46-2.24-3.61,5.9-.64,6.54-2.4,8.84-4.47A2.62,2.62,0,0,1,374.8,403.75Z" style="fill:#263238"></path><path d="M356.38,203.67a3.55,3.55,0,0,0,3.85,0s-.18,2.64-.89,2.9c-.23.08-.82-.52-.82-.52s-.39,1.31-.76,1.29-.69-1.48-.69-1.48-.46.8-.69.71C355.71,206.3,356.38,203.67,356.38,203.67Z" style="fill:#263238"></path><path d="M356.38,203.67a3.55,3.55,0,0,0,3.85,0s-.18,2.64-.89,2.9c-.23.08-.82-.52-.82-.52s-.39,1.31-.76,1.29-.69-1.48-.69-1.48-.46.8-.69.71C355.71,206.3,356.38,203.67,356.38,203.67Z" style="fill:#fff;opacity:0.5"></path></g><g id="freepik--character-2--inject-43"><path d="M373.63,315.64l-1.82,90.56h6.44s12.29-58.4,8.86-77.43L397.68,292,376,294.41Z" style="fill:#ffb573"></path><path d="M398.71,317.26,409,406.47h6.3s4.2-59.38-1.55-77.84l.47-36.95-18.85,2.73Z" style="fill:#ffb573"></path><path d="M372.37,404.3h6.57a.6.6,0,0,1,.58.48l2.26,6.32a1,1,0,0,1-.78,1.2.75.75,0,0,1-.21,0c-2.73-.09-5.15-.28-8.55-.34-4-.06-3,.43-7.71.42-2.84,0-3.3-3.25-2.1-3.38,5.52-.6,6.12-2.26,8.28-4.19A2.43,2.43,0,0,1,372.37,404.3Z" style="fill:#407BFF"></path><path d="M409.19,404.3h6.57a.61.61,0,0,1,.59.48l2.25,6.32a1,1,0,0,1-.78,1.2.75.75,0,0,1-.21,0c-2.73-.09-5.15-.28-8.54-.34-4-.06-3,.43-7.72.42-2.83,0-3.3-3.25-2.09-3.38,5.52-.6,6.12-2.26,8.28-4.19A2.4,2.4,0,0,1,409.19,404.3Z" style="fill:#407BFF"></path><path d="M377.33,263.49A326.15,326.15,0,0,0,372,334.32,345.59,345.59,0,0,0,417.5,333a78.7,78.7,0,0,1-1.58-23.79c1.45-14.65-1.59-32-10.58-45.72Z" style="fill:#407BFF"></path><path d="M377.33,263.49A326.15,326.15,0,0,0,372,334.32,345.59,345.59,0,0,0,417.5,333a78.7,78.7,0,0,1-1.58-23.79c1.45-14.65-1.59-32-10.58-45.72Z" style="fill:#fff;opacity:0.5"></path><path d="M380.14,223.85s-5.76,3.79-7.77,17.64c-2.44,16.85,5.58,11.08,5.58,11.08Z" style="fill:#ffb573"></path><path d="M405.47,193.85c3,1.84,3.67,6.06,3.87,8.59s-2.31,0-.3,4.31,3.31,8.18-3.4,7.6a37.58,37.58,0,0,0-16.15,1.92c-4.29,1.5-7.39-.44-5-5.84s-1-8.83-2.64-10.54-3.32-8,1.89-9.89.25-4.24,6.61-5S409.33,186.72,405.47,193.85Z" style="fill:#263238"></path><path d="M391,219.34l7.65-.22c-.72-3.34.17-8.11.95-11l-7.81,5.83C392.15,215.91,392.2,217.93,391,219.34Z" style="fill:#ffb573"></path><path d="M397.72,210.64,391.78,214a12.11,12.11,0,0,1,.23,2.17C393.68,216,397.24,215.62,397.72,210.64Z" style="opacity:0.2;isolation:isolate"></path><path d="M403.28,199.8c-1,6.45-1.22,9.2-4.78,12.24-5.36,4.58-13.07,2-14.06-4.6-.89-5.95.82-15.49,7.38-17.53a8.89,8.89,0,0,1,11.46,9.89Z" style="fill:#ffb573"></path><path d="M404.37,205.06a4.73,4.73,0,0,1-2.53,2.61c-1.54.65-2.52-.67-2.27-2.24.22-1.4,1.29-3.44,2.93-3.43a2.15,2.15,0,0,1,1.87,3.06Z" style="fill:#ffb573"></path><path d="M399,187.52c1.33,1.81-1.08,5.68-7,6-4.46.22-9.5,5.59-9.61.39C382.22,189.17,393.11,185.72,399,187.52Z" style="fill:#263238"></path><path d="M395.89,189.29c-2.81,2.68-.3,6.74,1.38,8.51s4.16,3.32,2.71,6.37-1.8,11,3.67,9,4.2-11.34,2.09-15.49S399.24,186.1,395.89,189.29Z" style="fill:#263238"></path><path d="M388.84,201.29a14.17,14.17,0,0,1-2.17,3.21,2.26,2.26,0,0,0,1.85.52Z" style="fill:#ed893e"></path><path d="M395.93,198.35a.29.29,0,0,0,.13,0,.27.27,0,0,0,.05-.36h0a3,3,0,0,0-2.49-1.25.26.26,0,0,0-.23.28.26.26,0,0,0,.27.24,2.53,2.53,0,0,1,2.05,1.05A.25.25,0,0,0,395.93,198.35Z" style="fill:#263238"></path><path d="M384.73,197.48l.13,0a2.51,2.51,0,0,1,2.26-.4.27.27,0,0,0,.34-.14h0a.26.26,0,0,0-.16-.33,3.07,3.07,0,0,0-2.75.45.26.26,0,0,0-.07.36.25.25,0,0,0,.25.12Z" style="fill:#263238"></path><path d="M392.64,200.74c0,.52-.36.92-.71.9s-.59-.48-.54-1,.37-.93.71-.9S392.68,200.21,392.64,200.74Z" style="fill:#263238"></path><path d="M386.67,200.23c0,.52-.36.92-.7.89s-.59-.47-.54-1,.36-.93.7-.9S386.72,199.69,386.67,200.23Z" style="fill:#263238"></path><path d="M386.28,199.26l-1.24-.47S385.61,199.83,386.28,199.26Z" style="fill:#263238"></path><path d="M392.25,199.77,391,199.3S391.58,200.34,392.25,199.77Z" style="fill:#263238"></path><path d="M376.43,265.08s-.54-7.22-.33-17c0-1.52-.69-3.17-.69-6.68s1-7.34,1.15-8.82c.54-6.26,1.6-7.25,3.58-8.68,6.43-4.68,25.9-4.64,28,0,3.24,7.1-3.18,24.84-1.07,41.23C407.08,265.08,391.75,268.78,376.43,265.08Z" style="fill:#263238"></path><path d="M408.44,224.69h-3.39s-2.3,4.07,2.3,21.95C408.37,237.41,409.94,229.3,408.44,224.69Z" style="opacity:0.5"></path><path d="M390.81,216.77a26.66,26.66,0,0,0,8.71-.43.86.86,0,0,1,1.06.95c-.18,1.33-.17,3.22,1.26,3.53a15.14,15.14,0,0,1-14.92.41s3.26-.58,3-3.46A.87.87,0,0,1,390.81,216.77Z" style="fill:#263238"></path><path d="M376.37,247c3.7-2.38,7-4.16,7-4.16l2.71-5.46a1.11,1.11,0,0,1,1.09-.62l1.81.16a1.11,1.11,0,0,1,1,1.16l-.31,6.64a1.13,1.13,0,0,1-.86,1l-3.86.92s-8.51,9.16-10.56,7.67C371.31,252.12,373.64,248.76,376.37,247Z" style="fill:#ffb573"></path><path d="M392.39,294.41l-1.12,40.08c2.54-.05,5.25-.13,8.1-.24Z" style="opacity:0.1"></path><path d="M406,223.43c2.5-1.5,7.54,2.47,9.64,17.6,1.91,13.83-1.91,15.68-7.41,11.8a114.16,114.16,0,0,0-11.47-7.05l-4.14-.79-2.95-.23a1.68,1.68,0,0,1-1.54-1.63l-.13-5a1.68,1.68,0,0,1,1.81-1.71l2.81.21,4.73,4.92L410,246.13s-.75-7.5-2.61-11.18C405.41,231.06,403.65,224.81,406,223.43Z" style="fill:#ffb573"></path><path d="M389,236.92l-1.43-.13a2,2,0,0,0-.6,1.47l.15,6a2,2,0,0,0,1,1.68l.7-.17a1.13,1.13,0,0,0,.86-1l.31-6.64A1.11,1.11,0,0,0,389,236.92Z" style="opacity:0.1"></path><path d="M406,223.43c2.5-1.5,7.54,2.47,9.64,17.6,1.91,13.83-1.91,15.68-7.41,11.8a114.16,114.16,0,0,0-11.47-7.05l-4.14-.79-2.95-.23a1.68,1.68,0,0,1-1.54-1.63l-.13-5a1.68,1.68,0,0,1,1.81-1.71l2.81.21,4.73,4.92L410,246.13s-.75-7.5-2.61-11.18C405.41,231.06,403.65,224.81,406,223.43Z" style="fill:#ffb573"></path><path d="M396.09,192s-4,5-7.18,3.74S390.67,195.6,396.09,192Z" style="fill:#263238"></path><path d="M389.77,208.1a5.5,5.5,0,0,1-.91-.08.16.16,0,0,1-.13-.18h0a.16.16,0,0,1,.18-.13,4.33,4.33,0,0,0,3.75-1,.16.16,0,0,1,.22,0,.16.16,0,0,1,0,.23A4.51,4.51,0,0,1,389.77,208.1Z" style="fill:#263238"></path><path d="M389.35,221.6a16.81,16.81,0,0,0,10.28-.53S390.79,226.53,389.35,221.6Z" style="opacity:0.6000000000000001"></path></g></svg>