<svg xmlns="http://www.w3.org/2000/svg" viewBox="0 0 500 500"><g id="freepik--background-complete--inject-53"><path d="M153,169.65a3.5,3.5,0,0,1-.94-.07,16.75,16.75,0,0,1-2.5-.56,20.58,20.58,0,0,1-3.53-1.43,23.77,23.77,0,0,1-3.9-2.57,24.26,24.26,0,0,1-3.27-3.32,21.1,21.1,0,0,1-2.08-3.19,15,15,0,0,1-1-2.34,3.74,3.74,0,0,1-.25-.91c.09,0,.54,1.23,1.61,3.07a23.59,23.59,0,0,0,2.13,3.06,25.9,25.9,0,0,0,3.23,3.23,25.44,25.44,0,0,0,3.79,2.55,24.71,24.71,0,0,0,3.42,1.5C151.7,169.36,153,169.55,153,169.65Z" style="fill:#fafafa"></path><path d="M160.28,168.59a39.92,39.92,0,0,0-1.53-4.85,22.32,22.32,0,0,0-7.48-9.45c-3.87-2.75-8.19-4.17-11.29-3.92a6.49,6.49,0,0,0-3.41,1.18c-.7.5-1,.88-1.07.84s.06-.11.21-.28a4.48,4.48,0,0,1,.73-.73A6.54,6.54,0,0,1,140,150c3.23-.35,7.66,1.05,11.63,3.87a21.73,21.73,0,0,1,7.51,9.73,18.81,18.81,0,0,1,1,3.62A5.57,5.57,0,0,1,160.28,168.59Z" style="fill:#e0e0e0"></path><path d="M129.18,128.15,62.4,113.89a6.17,6.17,0,0,0-7.32,4.75L49.64,144.1a6.18,6.18,0,0,0,4.75,7.33l66.9,14.28a6.16,6.16,0,0,0,5.12-1.19l12.72-10.06a6.16,6.16,0,0,0,1.74-7.51l-7.41-15.43A6.18,6.18,0,0,0,129.18,128.15Zm6.32,24.24a2.24,2.24,0,1,1,2.24-2.24A2.24,2.24,0,0,1,135.5,152.39Z" style="fill:#ebebeb"></path><path d="M84.6,133.38l-1.8,4c1.56.88,3.16,1.87,2.71,3.86-.52,2.29-2.8,3.29-5.67,2.76L79,146l-1.11-.26.86-1.91a7.18,7.18,0,0,1-3.65-2.4l1.1-1.24a6.21,6.21,0,0,0,3.2,2.2l1.76-4c-1.52-.87-3.06-1.89-2.6-3.93.52-2.27,2.78-3.27,5.59-2.76l.87-1.91,1.12.25-.87,1.91a7.45,7.45,0,0,1,3.09,1.79l-1,1.29A5.89,5.89,0,0,0,84.6,133.38Zm-2.79,3.48,1.66-3.71c-1.68-.22-2.9.36-3.17,1.55C80.09,135.64,80.84,136.26,81.81,136.86Zm.31,2.08-1.64,3.66c1.7.24,3-.26,3.23-1.46C83.93,140.18,83.14,139.55,82.12,138.94Z" style="fill:#fff"></path><path d="M95.62,135.89l-1.8,4c1.56.87,3.16,1.87,2.71,3.86-.52,2.29-2.8,3.28-5.67,2.76L90,148.46l-1.12-.25.86-1.91a7.29,7.29,0,0,1-3.65-2.4l1.1-1.24a6.25,6.25,0,0,0,3.2,2.2l1.76-4c-1.52-.87-3.06-1.89-2.6-3.93.52-2.28,2.78-3.27,5.6-2.76l.86-1.92,1.12.26-.87,1.91a7.28,7.28,0,0,1,3.09,1.79l-1,1.29A5.8,5.8,0,0,0,95.62,135.89Zm-2.79,3.47,1.67-3.71c-1.69-.21-2.91.37-3.18,1.56C91.11,138.15,91.87,138.77,92.83,139.36Zm.31,2.09-1.63,3.66c1.7.24,2.95-.26,3.22-1.47C95,142.68,94.16,142.06,93.14,141.45Z" style="fill:#fff"></path><path d="M106.64,138.4l-1.79,4c1.55.88,3.15,1.88,2.7,3.87-.52,2.29-2.8,3.28-5.67,2.76L101,151l-1.12-.25.86-1.92a7.22,7.22,0,0,1-3.65-2.4l1.1-1.24a6.18,6.18,0,0,0,3.2,2.2l1.76-4c-1.52-.87-3.06-1.89-2.6-3.94.52-2.27,2.78-3.27,5.6-2.76l.86-1.91,1.12.25-.86,1.92a7.4,7.4,0,0,1,3.08,1.78l-1,1.3A5.75,5.75,0,0,0,106.64,138.4Zm-2.79,3.47,1.67-3.71c-1.69-.21-2.9.37-3.17,1.56C102.13,140.66,102.89,141.28,103.85,141.87Zm.31,2.09-1.63,3.66c1.7.24,3-.26,3.23-1.47C106,145.19,105.18,144.56,104.16,144Z" style="fill:#fff"></path><path d="M253.29,116.79c.59-4.25-5.41-7.74-9.91-8.1-2.15-.18-4.38.15-6.42-.56-4.41-1.53-6.17-7.23-10.47-9-3.22-1.35-6.92-.15-10,1.42s-6.2,3.55-9.69,3.77c-3,.2-6.32-.93-9,.55-2,1.11-3,3.38-4.83,4.73s-4.11,1.59-6.32,1.71-4.5.14-6.51,1.06-3.68,3.05-3.26,5.23Z" style="fill:#ebebeb"></path><path d="M209.13,71.54c.93-6.74-8.58-12.28-15.73-12.86-3.4-.27-6.94.25-10.17-.88-7-2.44-9.79-11.47-16.62-14.35-5.1-2.15-11-.24-15.92,2.25s-9.84,5.63-15.36,6c-4.81.31-10-1.48-14.24.87-3.13,1.75-4.77,5.36-7.66,7.49s-6.52,2.53-10,2.72-7.14.23-10.33,1.69-5.84,4.84-5.17,8.29Z" style="fill:#f5f5f5"></path><path d="M393,74.35c.66-4.76-6.06-8.68-11.11-9.09-2.41-.19-4.91.18-7.19-.62-4.95-1.72-6.92-8.11-11.74-10.14-3.61-1.52-7.76-.17-11.26,1.59s-6.95,4-10.85,4.23c-3.4.21-7.09-1-10.06.61-2.22,1.24-3.38,3.79-5.42,5.3s-4.6,1.78-7.08,1.92-5,.16-7.3,1.19-4.12,3.42-3.65,5.86Z" style="fill:#f5f5f5"></path><path d="M467.3,152.11c.65-4.76-6.07-8.68-11.12-9.09-2.4-.19-4.9.18-7.19-.62-4.94-1.72-6.91-8.11-11.74-10.14-3.6-1.52-7.75-.17-11.25,1.59s-6.95,4-10.86,4.23c-3.39.21-7.08-1.05-10.05.61-2.22,1.24-3.38,3.79-5.42,5.3s-4.6,1.78-7.08,1.92-5,.16-7.3,1.19-4.12,3.42-3.65,5.86Z" style="fill:#fafafa"></path><path d="M98.46,90.58c.37-2.65-3.37-4.83-6.17-5a16.11,16.11,0,0,1-4-.35c-2.75-1-3.85-4.5-6.53-5.64-2-.84-4.31-.09-6.25.89s-3.87,2.21-6,2.35c-1.88.12-3.93-.58-5.59.34-1.23.69-1.87,2.11-3,2.94a7.13,7.13,0,0,1-3.93,1.07,11.27,11.27,0,0,0-4.06.66,3.22,3.22,0,0,0-2,3.26Z" style="fill:#fafafa"></path><path d="M346.11,331.14c-8.83-8.19-22.37-9.55-34-6.47s-19.89,8.13-29.88,14.86c-4.48,3.46-9.82,3.27-10.79,7.89s1.62,9.44,5.38,12.3,8.51,4.06,13.17,4.81a84.68,84.68,0,0,0,51.79-8.23c3.92-2,7.91-4.59,9.59-8.66C353.69,342,350.62,335.32,346.11,331.14Z" style="fill:#ebebeb"></path><path d="M211.21,285.77c-1.6,0-3.26.09-4.87,0l.32.07-33-.64c-2.22-.05-4.94.2-5.87,2.22a3.86,3.86,0,0,0,.92,4.09,10,10,0,0,0,3.77,2.27c12.1,4.87,25.68,5.59,38.46,3a13.52,13.52,0,0,0,4.89-1.75,5.17,5.17,0,0,0,2.48-4.34C218.18,287.53,214.39,285.88,211.21,285.77Z" style="fill:#ebebeb"></path><path d="M232.52,296.93c-1.6.18-3.22.57-4.82.76l.33,0L195.34,302c-2.2.29-4.86.95-5.47,3.08a3.89,3.89,0,0,0,1.51,3.91,10.16,10.16,0,0,0,4.08,1.68c12.69,3,26.23,1.68,38.47-2.82a13.4,13.4,0,0,0,4.57-2.46,5.15,5.15,0,0,0,1.8-4.66C239.67,297.62,235.68,296.55,232.52,296.93Z" style="fill:#ebebeb"></path><path d="M282,310.92a24.21,24.21,0,0,0-9.6-3.84c-13.91-2.93-27.31.36-41.71,5.05a49,49,0,0,0-15.83,6c-1.85,1-2.9,4-3.32,6.06a5.3,5.3,0,0,0,2.56,5.18,14.91,14.91,0,0,0,5.8,1.85c16.7,2.82,33.86,3.81,50.57,1,3.7-.61,7.45-1.44,10.62-3.44s5.69-5.37,5.74-9.12C286.85,316.24,284.76,313,282,310.92Z" style="fill:#ebebeb"></path><path d="M405.47,359.63l.74.28.55.13Z" style="fill:#ebebeb"></path><path d="M429.65,373.26c-6.2-6.63-14.91-10.2-23.44-13.35-28.81-7.18-61.06,0-83.72,19.28-3.31,2.81-6.67,6.51-6.24,10.83.66,6.56,8.91,8.89,15.46,9.61l69.81,7.72c5.85.64,11.79,1.29,17.6.31s11.55-3.8,14.75-8.74C438.94,391.08,436,380.08,429.65,373.26Z" style="fill:#ebebeb"></path><path d="M406.76,360l9.5,3A88,88,0,0,0,406.76,360Z" style="fill:#ebebeb"></path><path d="M462.42,390.9a8.86,8.86,0,0,0-5.9-1.42l1.18-.32a11.17,11.17,0,0,0-8.88,6.2c-.84,1.75-1.14,4,0,5.53,1.33,1.81,3.94,2,6.18,1.81a15.94,15.94,0,0,0,6.3-1.47,6.73,6.73,0,0,0,3.74-5A6,6,0,0,0,462.42,390.9Z" style="fill:#ebebeb"></path></g><g id="freepik--Plant--inject-53"><path d="M430.46,424.76a8.36,8.36,0,0,1,4.32,4.89,14.67,14.67,0,0,1,.57,6.62c-.49,4.3-2.93,8.64-5.56,12.08-3.62-3.16-4.45-8.67-4.7-11.5-.39-4.46,1.62-12.76,5.37-12.09" style="fill:#407BFF"></path><path d="M434,455.44a7.08,7.08,0,0,1,2.3-6.75,9.4,9.4,0,0,1,7-2.18,4,4,0,0,1,3.05,1.37,3,3,0,0,1,.05,3.08,6.15,6.15,0,0,1-2.28,2.25c-3.14,2-6.53,3.3-10.08,2.23" style="fill:#407BFF"></path><path d="M429.36,468.62a5.67,5.67,0,0,1,.13-.88c.11-.62.26-1.42.43-2.39a25,25,0,0,1,2.47-7.62,15.27,15.27,0,0,1,5.47-5.82,11,11,0,0,1,2.23-1c.28-.09.5-.12.65-.16a.64.64,0,0,1,.23,0,14.17,14.17,0,0,0-8.31,7.15,27.12,27.12,0,0,0-2.52,7.52c-.22,1-.4,1.81-.53,2.37A4.69,4.69,0,0,1,429.36,468.62Z" style="fill:#263238"></path><path d="M429.49,431.21a1.83,1.83,0,0,1,.05.39c0,.29,0,.65.06,1.11.06,1,.11,2.35.17,4.08.11,3.44.2,8.2.17,13.46s-.15,10-.29,13.47c-.07,1.72-.14,3.11-.2,4.07,0,.46-.05.82-.07,1.11a1.65,1.65,0,0,1-.05.38,1.59,1.59,0,0,1,0-.38l0-1.11c0-1,.06-2.39.1-4.08.08-3.45.18-8.2.2-13.46s0-10-.08-13.46c0-1.69-.05-3.08-.07-4.08,0-.45,0-.82,0-1.11A3.06,3.06,0,0,1,429.49,431.21Z" style="fill:#263238"></path><path d="M427.74,458.06a16.66,16.66,0,0,0-9.08-12.18c-1.21-.58-2.79-1-3.79-.06s-.77,2.52-.28,3.77a14.19,14.19,0,0,0,13.06,8.82" style="fill:#407BFF"></path><path d="M419.24,450a4.07,4.07,0,0,1,.77.33,7.06,7.06,0,0,1,.87.47,12.69,12.69,0,0,1,1.11.69,14.87,14.87,0,0,1,1.26.95,16.35,16.35,0,0,1,1.35,1.22,18.25,18.25,0,0,1,2.55,3.29,18,18,0,0,1,1.69,3.81,16.48,16.48,0,0,1,.42,1.76,14.37,14.37,0,0,1,.22,1.57,12.48,12.48,0,0,1,.06,1.31,7.35,7.35,0,0,1,0,1,4.65,4.65,0,0,1-.09.83c-.07,0,.05-1.19-.16-3.09a14.17,14.17,0,0,0-.25-1.55,17.08,17.08,0,0,0-.45-1.73,18.72,18.72,0,0,0-1.68-3.73,19.43,19.43,0,0,0-2.49-3.25c-.45-.44-.87-.87-1.31-1.22s-.84-.68-1.22-1C420.3,450.52,419.21,450,419.24,450Z" style="fill:#263238"></path></g><g id="freepik--Floor--inject-53"><path d="M468,279.05c0,.15-96.53.26-215.58.26s-215.59-.11-215.59-.26,96.51-.26,215.59-.26S468,278.91,468,279.05Z" style="fill:#263238"></path><path d="M448.05,470c0,.15-90.92.26-203,.26S42,470.13,42,470s90.9-.26,203.06-.26S448.05,469.84,448.05,470Z" style="fill:#263238"></path></g><g id="freepik--House--inject-53"><polygon points="50.84 279.05 50.68 206.86 205.5 156.74 205.66 190.09 300.83 211.12 300.83 279.05 50.84 279.05" style="fill:#407BFF"></polygon><polygon points="33.44 213.54 33.44 204.18 160.41 161.98 159.32 171.69 33.44 213.54" style="fill:#263238"></polygon><path d="M56.29,279.05c-.08,0-.14-16.44-.14-36.71s.06-36.71.14-36.71.14,16.43.14,36.71S56.37,279.05,56.29,279.05Z" style="fill:#263238"></path><path d="M62.74,279.05c-.08,0-.14-17-.14-38s.06-37.95.14-37.95.14,17,.14,37.95S62.82,279.05,62.74,279.05Z" style="fill:#263238"></path><path d="M68.79,279.05c-.08,0-.14-17.4-.14-38.86s.06-38.87.14-38.87.14,17.4.14,38.87S68.87,279.05,68.79,279.05Z" style="fill:#263238"></path><path d="M74.84,279.05c-.08,0-.14-17.75-.14-39.64s.06-39.65.14-39.65.14,17.75.14,39.65S74.92,279.05,74.84,279.05Z" style="fill:#263238"></path><path d="M80.89,279.05c-.08,0-.14-18.19-.14-40.63s.06-40.63.14-40.63S81,216,81,238.42,81,279.05,80.89,279.05Z" style="fill:#263238"></path><path d="M86.94,279.05c-.08,0-.14-18.74-.14-41.86s.06-41.87.14-41.87.14,18.74.14,41.87S87,279.05,86.94,279.05Z" style="fill:#263238"></path><path d="M93,279.05c-.07,0-.14-19.07-.14-42.58s.07-42.59.14-42.59.14,19.07.14,42.59S93.07,279.05,93,279.05Z" style="fill:#263238"></path><path d="M99,279.05c-.07,0-.14-19.45-.14-43.44s.07-43.44.14-43.44.15,19.44.15,43.44S99.12,279.05,99,279.05Z" style="fill:#263238"></path><path d="M105.1,279.05c-.08,0-.15-19.92-.15-44.48s.07-44.49.15-44.49.14,19.91.14,44.49S105.17,279.05,105.1,279.05Z" style="fill:#263238"></path><path d="M111.15,279.05c-.08,0-.14-20.35-.14-45.45s.06-45.45.14-45.45.14,20.34.14,45.45S111.22,279.05,111.15,279.05Z" style="fill:#263238"></path><path d="M117.2,279.05c-.08,0-.14-20.73-.14-46.3s.06-46.3.14-46.3.14,20.73.14,46.3S117.28,279.05,117.2,279.05Z" style="fill:#263238"></path><path d="M123.25,279.05c-.08,0-.14-21.18-.14-47.3s.06-47.3.14-47.3.14,21.17.14,47.3S123.33,279.05,123.25,279.05Z" style="fill:#263238"></path><path d="M129.3,279.05c-.08,0-.14-21.63-.14-48.31s.06-48.32.14-48.32.14,21.63.14,48.32S129.38,279.05,129.3,279.05Z" style="fill:#263238"></path><path d="M135.35,279.05c-.08,0-.14-22-.14-49.13s.06-49.13.14-49.13.14,22,.14,49.13S135.43,279.05,135.35,279.05Z" style="fill:#263238"></path><path d="M141.4,279.05c-.08,0-.14-22.49-.14-50.24s.06-50.24.14-50.24.14,22.49.14,50.24S141.48,279.05,141.4,279.05Z" style="fill:#263238"></path><path d="M147.45,279.05c-.08,0-.14-22.9-.14-51.15s.06-51.16.14-51.16.14,22.9.14,51.16S147.53,279.05,147.45,279.05Z" style="fill:#263238"></path><path d="M153.5,279.05c-.08,0-.14-23.3-.14-52s.06-52,.14-52,.14,23.29.14,52S153.58,279.05,153.5,279.05Z" style="fill:#263238"></path><rect x="66.85" y="223.59" width="26.17" height="26.17" style="fill:#fafafa"></rect><path d="M93.3,250H66.58V223.32H93.3Zm-26.18-.54H92.75V223.86H67.12Z" style="fill:#263238"></path><rect x="115.39" y="223.59" width="26.17" height="26.17" style="fill:#fafafa"></rect><path d="M141.83,250H115.12V223.32h26.71Zm-26.17-.54h25.63V223.86H115.66Z" style="fill:#263238"></path><polygon points="200.14 158.11 199.6 279.05 300.83 279.05 300.83 211.12 205.66 190.09 205.66 155.99 200.14 158.11" style="fill:#455a64"></polygon><polygon points="205.66 190.09 205.66 183.32 317.84 208.95 317.84 215.48 205.66 190.09" style="fill:#263238"></polygon><rect x="220.6" y="232.72" width="58.75" height="46.43" transform="translate(1.23 -1.19) rotate(0.27)" style="fill:#263238"></rect><path d="M220.59,277.56c0-.05,13.13-.06,29.32,0s29.33.09,29.33.13-13.13.06-29.33,0S220.59,277.6,220.59,277.56Z" style="fill:#455a64"></path><path d="M220.72,275.33c0-.05,13.13-.06,29.32,0s29.33.09,29.33.14-13.13.06-29.33,0S220.72,275.38,220.72,275.33Z" style="fill:#455a64"></path><path d="M220.85,273.11c0-.05,13.13-.06,29.32,0s29.33.09,29.33.14-13.13.06-29.33,0S220.85,273.15,220.85,273.11Z" style="fill:#455a64"></path><path d="M220.58,270.81c0-.05,13.12-.06,29.32,0s29.32.09,29.32.14-13.13.06-29.32,0S220.58,270.85,220.58,270.81Z" style="fill:#455a64"></path><path d="M220.58,268.82c0-.05,13.13-.06,29.33,0s29.32.09,29.32.14-13.13.06-29.32,0S220.58,268.87,220.58,268.82Z" style="fill:#455a64"></path><path d="M220.6,266.45c0-.05,13.13-.06,29.32,0s29.32.09,29.32.13-13.12.06-29.32,0S220.6,266.49,220.6,266.45Z" style="fill:#455a64"></path><path d="M220.61,264.22c0-.05,13.13-.07,29.32,0s29.32.1,29.32.14-13.12.06-29.32,0S220.61,264.26,220.61,264.22Z" style="fill:#455a64"></path><path d="M220.62,262c0-.05,13.13-.06,29.32,0s29.32.09,29.32.14-13.12.06-29.32,0S220.62,262,220.62,262Z" style="fill:#455a64"></path><path d="M220.63,259.8c0-.05,13.13-.06,29.32,0s29.32.09,29.32.14-13.12.06-29.32,0S220.63,259.85,220.63,259.8Z" style="fill:#455a64"></path><path d="M220.64,257.57c0-.05,13.13-.06,29.32,0s29.32.09,29.32.14-13.12.06-29.32,0S220.64,257.61,220.64,257.57Z" style="fill:#455a64"></path><path d="M220.65,255.35s13.13-.07,29.32,0,29.33.1,29.32.14-13.12.06-29.32,0S220.65,255.39,220.65,255.35Z" style="fill:#455a64"></path><path d="M220.66,253.13s13.13-.06,29.32,0,29.33.09,29.33.14-13.13.06-29.33,0S220.66,253.18,220.66,253.13Z" style="fill:#455a64"></path><path d="M220.67,250.94c0-.05,13.13-.06,29.32,0s29.33.09,29.33.14-13.13.06-29.33,0S220.67,251,220.67,250.94Z" style="fill:#455a64"></path><path d="M220.68,248.8c0-.05,13.13-.07,29.32,0s29.33.1,29.33.14-13.13.06-29.33,0S220.68,248.84,220.68,248.8Z" style="fill:#455a64"></path><path d="M220.69,246.57s13.13-.06,29.32,0,29.33.1,29.33.14-13.13.06-29.33,0S220.69,246.62,220.69,246.57Z" style="fill:#455a64"></path><path d="M220.7,244.38s13.13-.06,29.32,0,29.33.09,29.33.13-13.13.07-29.33,0S220.7,244.42,220.7,244.38Z" style="fill:#455a64"></path><path d="M220.71,242s13.13-.06,29.32,0,29.33.09,29.33.14-13.13.06-29.33,0S220.71,242,220.71,242Z" style="fill:#455a64"></path><path d="M220.72,239.74c0-.05,13.13-.06,29.33,0s29.32.09,29.32.14-13.13.06-29.32,0S220.72,239.79,220.72,239.74Z" style="fill:#455a64"></path><path d="M220.73,237.52c0-.05,13.13-.06,29.33,0s29.32.09,29.32.14-13.13.06-29.32,0S220.73,237.57,220.73,237.52Z" style="fill:#455a64"></path><path d="M220.74,235.29s13.13-.06,29.33,0,29.32.09,29.32.14-13.13.06-29.32,0S220.74,235.34,220.74,235.29Z" style="fill:#455a64"></path><path d="M220.76,233.17s13.13-.06,29.33,0,29.32.09,29.32.13-13.13.07-29.32,0S220.76,233.21,220.76,233.17Z" style="fill:#455a64"></path><polygon points="199.6 272.59 159.32 272.59 159.32 165.59 200.14 155.06 199.6 272.59" style="fill:#407BFF"></polygon><g style="opacity:0.30000000000000004"><polygon points="199.6 272.41 159.32 272.59 159.32 165.59 200.14 155.06 199.6 272.41"></polygon></g><path d="M194.21,271s0-.09,0-.25,0-.4,0-.71v-2.75c0-2.4,0-5.9,0-10.3,0-8.81,0-21.26-.06-35.85l.13.13h-29l.14-.14c0,19,0,36.47,0,49.86l-.11-.11,21.11.05,5.8,0h1.52l.53,0h-2l-5.78,0-21.18.05h-.11V271c0-13.39,0-30.83,0-49.86V221h29.23v.13c0,14.63-.05,27.1-.06,35.93,0,4.4,0,7.88,0,10.28,0,1.18,0,2.09,0,2.72,0,.3,0,.53,0,.69A2.17,2.17,0,0,1,194.21,271Z" style="fill:#263238"></path><rect x="159.51" y="270.97" width="42.77" height="8.09" style="fill:#263238"></rect><path d="M200.14,159.25c.08,0,0,24.79-.11,55.36s-.32,55.37-.39,55.37,0-24.79.11-55.37S200.07,159.25,200.14,159.25Z" style="fill:#263238"></path><path d="M202.34,274.9c0,.08-9.59.14-21.41.14s-21.42-.06-21.42-.14,9.59-.14,21.42-.14S202.34,274.83,202.34,274.9Z" style="fill:#455a64"></path><path d="M199.7,217.5s-9,.06-20.09.06-20.1,0-20.1-.06,9-.06,20.1-.06S199.7,217.47,199.7,217.5Z" style="fill:#fafafa"></path><path d="M199.7,213.06s-9,.06-20.09.06-20.1,0-20.1-.06,9-.05,20.1-.05S199.7,213,199.7,213.06Z" style="fill:#fafafa"></path><path d="M199.7,208.63s-9,.06-20.09.06-20.1,0-20.1-.06,9-.06,20.1-.06S199.7,208.6,199.7,208.63Z" style="fill:#fafafa"></path><path d="M199.7,204.19s-9,.06-20.09.06-20.1,0-20.1-.06,9-.05,20.1-.05S199.7,204.16,199.7,204.19Z" style="fill:#fafafa"></path><path d="M199.7,199.76s-9,.05-20.09.05-20.1,0-20.1-.05,9-.06,20.1-.06S199.7,199.73,199.7,199.76Z" style="fill:#fafafa"></path><path d="M199.7,195.32s-9,.06-20.09.06-20.1,0-20.1-.06,9-.06,20.1-.06S199.7,195.29,199.7,195.32Z" style="fill:#fafafa"></path><path d="M199.7,190.89s-9,.05-20.09.05-20.1,0-20.1-.05,9-.06,20.1-.06S199.7,190.85,199.7,190.89Z" style="fill:#fafafa"></path><path d="M199.7,186.45s-9,.06-20.09.06-20.1,0-20.1-.06,9-.06,20.1-.06S199.7,186.42,199.7,186.45Z" style="fill:#fafafa"></path><path d="M199.7,182s-9,.06-20.09.06-20.1,0-20.1-.06,9,0,20.1,0S199.7,182,199.7,182Z" style="fill:#fafafa"></path><path d="M199.7,177.58s-9,0-20.09,0-20.1,0-20.1,0,9-.06,20.1-.06S199.7,177.55,199.7,177.58Z" style="fill:#fafafa"></path><path d="M199.7,173.14s-9,.06-20.09.06-20.1,0-20.1-.06,9,0,20.1,0S199.7,173.11,199.7,173.14Z" style="fill:#fafafa"></path><path d="M199.7,168.71s-9,0-20.09,0-20.1,0-20.1,0,9-.06,20.1-.06S199.7,168.67,199.7,168.71Z" style="fill:#fafafa"></path><path d="M199.7,164.27s-9,.06-20.09.06-20.1,0-20.1-.06,9-.06,20.1-.06S199.7,164.24,199.7,164.27Z" style="fill:#fafafa"></path><path d="M199.7,159.83s-6.44.06-14.38.06-14.39,0-14.39-.06,6.44-.05,14.39-.05S199.7,159.8,199.7,159.83Z" style="fill:#fafafa"></path><path d="M168.41,251.33s0-.58-.07-1.47-.06-2.13-.06-3.54l.13.14h-1.59l.15-.14h0v1.46c0,.47,0,.92,0,1.35,0,.82,0,1.56,0,2.19l-.1-.09a15.78,15.78,0,0,1,1.59.09,12.3,12.3,0,0,1-1.59.09h-.09v-.09c0-.63,0-1.37,0-2.19,0-.43,0-.88,0-1.35,0-.24,0-.48,0-.72v-.74h0l.14-.14h1.73v.13c0,1.47,0,2.75-.06,3.63A9.17,9.17,0,0,1,168.41,251.33Z" style="fill:#263238"></path><rect x="176.99" y="226.4" width="5.49" height="5.49" style="fill:#ebebeb"></rect><rect x="176.99" y="236.46" width="5.49" height="5.49" style="fill:#ebebeb"></rect><rect x="176.99" y="246.52" width="5.49" height="5.49" style="fill:#ebebeb"></rect><rect x="176.99" y="256.58" width="5.49" height="5.49" style="fill:#ebebeb"></rect><path d="M182,226.68a8.27,8.27,0,0,1-.67.76c-.43.46-1,1.08-1.69,1.76s-1.28,1.29-1.73,1.73a7.31,7.31,0,0,1-.75.68,5.41,5.41,0,0,1,.67-.77c.42-.45,1-1.08,1.69-1.76s1.28-1.29,1.72-1.72A4.88,4.88,0,0,1,182,226.68Z" style="fill:#fff"></path><path d="M180.16,227.83a4.1,4.1,0,0,1-.77.78,3.44,3.44,0,0,1-.87.66,3.58,3.58,0,0,1,.76-.78A3.21,3.21,0,0,1,180.16,227.83Z" style="fill:#fff"></path><path d="M181.52,236.92a6.39,6.39,0,0,1-.55.69c-.36.42-.86,1-1.42,1.6s-1.08,1.17-1.46,1.56a3.9,3.9,0,0,1-.63.61,4.26,4.26,0,0,1,.55-.69c.35-.42.85-1,1.41-1.6s1.08-1.16,1.46-1.56A4.25,4.25,0,0,1,181.52,236.92Z" style="fill:#fff"></path><path d="M181.15,238.92a5.43,5.43,0,0,1-.87.94,4.73,4.73,0,0,1-1,.81,5.43,5.43,0,0,1,.87-.94A4.73,4.73,0,0,1,181.15,238.92Z" style="fill:#fff"></path><path d="M181.33,247.21a5.84,5.84,0,0,1-.54.71c-.35.42-.85,1-1.4,1.62s-1,1.19-1.43,1.59a5,5,0,0,1-.63.63,4.52,4.52,0,0,1,.54-.71c.35-.42.84-1,1.4-1.62s1-1.19,1.43-1.59A5,5,0,0,1,181.33,247.21Z" style="fill:#fff"></path><path d="M179.57,248a2.32,2.32,0,0,1-1.18,1.18s.26-.28.58-.6S179.53,248,179.57,248Z" style="fill:#fff"></path><path d="M181.63,256.75a26.26,26.26,0,0,1-1.76,2.4,24.8,24.8,0,0,1-1.88,2.3,26.49,26.49,0,0,1,1.75-2.4A25.52,25.52,0,0,1,181.63,256.75Z" style="fill:#fff"></path><path d="M179.68,257.83a3.69,3.69,0,0,1-.72.88,4,4,0,0,1-.84.77,4,4,0,0,1,.72-.88A4,4,0,0,1,179.68,257.83Z" style="fill:#fff"></path><polygon points="159.08 171.77 157.49 162.96 224.49 140.47 224.49 150.08 159.08 171.77" style="fill:#263238"></polygon><path d="M141.61,236.13c0,.14-5.85.26-13.06.26s-13.06-.12-13.06-.26,5.85-.26,13.06-.26S141.61,236,141.61,236.13Z" style="fill:#263238"></path><path d="M128.36,249.4c-.15,0-.26-5.82-.26-13s.11-13,.26-13,.26,5.83.26,13S128.5,249.4,128.36,249.4Z" style="fill:#263238"></path><path d="M93.19,236.13c0,.14-5.84.26-13.06.26s-13.06-.12-13.06-.26,5.85-.26,13.06-.26S93.19,236,93.19,236.13Z" style="fill:#263238"></path><path d="M79.94,249.4c-.14,0-.26-5.82-.26-13s.12-13,.26-13,.26,5.83.26,13S80.08,249.4,79.94,249.4Z" style="fill:#263238"></path><path d="M210.71,217s0-.08,0-.23,0-.39,0-.64c0-.6,0-1.39,0-2.36l0,0-8.81,0,.06-.06h0V217l-.06-.05,6.3,0,1.84,0h0l-1.82,0-6.34,0h-.05v-3.28h0s.1-.11.05-.06l8.81,0h0v0c0,1,0,1.78,0,2.38,0,.25,0,.46,0,.64A1.66,1.66,0,0,1,210.71,217Z" style="fill:#263238"></path><g style="opacity:0.30000000000000004"><rect x="199.82" y="210.53" width="8.81" height="3.23"></rect></g><path d="M290.11,250.54v-.87c0-.6,0-1.4,0-2.36l0,0-8.8,0c-.05,0,.06-.07.05-.05h0v3.21l-.05-.06,6.29,0h1.87l-1.83,0-6.33,0h-.06v-3.26h0l.06-.06,8.8,0h0v0c0,1,0,1.77,0,2.38,0,.25,0,.46,0,.63A1.76,1.76,0,0,1,290.11,250.54Z" style="fill:#263238"></path><g style="opacity:0.30000000000000004"><rect x="279.22" y="244.08" width="8.81" height="3.23"></rect></g><g style="opacity:0.30000000000000004"><rect x="290.31" y="229" width="8.81" height="3.23" style="fill:#fff"></rect></g><g style="opacity:0.30000000000000004"><rect x="211.4" y="267.62" width="8.81" height="3.23" style="fill:#fff"></rect></g><path d="M244,225v-.23c0-.17,0-.39,0-.64,0-.6,0-1.39,0-2.36l0,0-8.81,0,.06-.06h0V225l-.06,0,6.3,0,1.84,0h-1.8l-6.34,0h-.05v-3.26h0s.11-.1.05-.05h8.85v0c0,1,0,1.78,0,2.38v.64A1.66,1.66,0,0,1,244,225Z" style="fill:#263238"></path><g style="opacity:0.30000000000000004"><rect x="200.14" y="177.66" width="5.52" height="3.23" style="fill:#fff"></rect></g><path d="M253,206.73v-.23c0-.17,0-.39,0-.64,0-.6,0-1.39,0-2.36l0,0-8.8,0,.05-.06h0v3.2l-.05,0,6.29,0,1.84,0h-1.8l-6.33,0h-.06v-3.26h0s.11-.1.06-.05h8.84v0c0,1,0,1.78,0,2.39,0,.24,0,.45,0,.63A1.66,1.66,0,0,1,253,206.73Z" style="fill:#263238"></path><path d="M275.55,220.17v-.87c0-.6,0-1.39,0-2.36l0,0h-8.8l.05-.05h0v3.21l-.05-.06,6.29,0h1.87l-1.83,0-6.33,0h-.06V217h0l.06-.06,8.8,0h0v0c0,1,0,1.78,0,2.38,0,.25,0,.46,0,.63A1.76,1.76,0,0,1,275.55,220.17Z" style="fill:#263238"></path><path d="M214.48,244.11s0-.08,0-.23,0-.39,0-.64c0-.6,0-1.39,0-2.36l0,0-8.81,0,.06-.06h0v3.22l-.06-.05,6.3,0,1.84,0h0l-1.82,0-6.34,0h0v-3.27h0s.1-.11,0-.06l8.81,0h0v0c0,1,0,1.78,0,2.38,0,.25,0,.46,0,.64A1.66,1.66,0,0,1,214.48,244.11Z" style="fill:#263238"></path></g><g id="freepik--Character--inject-53"><path d="M360.53,436.27l1.69,21.91s-21.74,7.48-21.83,11.56l42.64-.15-1.23-34.24Z" style="fill:#407BFF"></path><g style="opacity:0.30000000000000004"><path d="M360.53,436.27l1.69,21.91s-21.74,7.48-21.83,11.56l42.64-.15-1.23-34.24Z"></path></g><path d="M375.31,455.8a1.73,1.73,0,0,1,1.29,1.93,1.67,1.67,0,0,1-1.91,1.29,1.83,1.83,0,0,1-1.35-2,1.74,1.74,0,0,1,2.13-1.13" style="fill:#263238"></path><path d="M383,469.59l-.12-3.45-41.17,1.57a3,3,0,0,0-1.56,2.34Z" style="fill:#263238"></path><path d="M361.52,458c0,.21,1.06.26,2.11.89s1.63,1.48,1.82,1.39-.17-1.28-1.46-2S361.47,457.8,361.52,458Z" style="fill:#263238"></path><path d="M357.13,460c0,.21.87.52,1.62,1.38s1,1.77,1.19,1.75.29-1.2-.66-2.24S357.12,459.83,357.13,460Z" style="fill:#263238"></path><path d="M354.81,465.48c.19,0,.44-1-.14-2.14s-1.58-1.53-1.66-1.35.55.76,1,1.69S354.6,465.46,354.81,465.48Z" style="fill:#263238"></path><path d="M361.69,453c.09.18,1-.14,2.22-.11s2.11.36,2.21.18-.81-.89-2.2-.9S361.58,452.8,361.69,453Z" style="fill:#263238"></path><path d="M361.43,448.53a4,4,0,0,0,2.13-.1,9.76,9.76,0,0,0,2.21-.77A10.54,10.54,0,0,0,367,447a2.65,2.65,0,0,0,.63-.53.91.91,0,0,0,.05-1.11,1.12,1.12,0,0,0-.93-.44,3,3,0,0,0-.8.14,8.11,8.11,0,0,0-1.31.51,7.83,7.83,0,0,0-1.91,1.37c-.95,1-1.26,1.75-1.18,1.79s.55-.61,1.52-1.41a8.48,8.48,0,0,1,1.86-1.14,7.51,7.51,0,0,1,1.21-.43c.45-.14.83-.16,1,0s.05.1,0,.24a2.11,2.11,0,0,1-.46.38,10.41,10.41,0,0,1-1.1.69,12.35,12.35,0,0,1-2,.88A15.12,15.12,0,0,0,361.43,448.53Z" style="fill:#263238"></path><path d="M361.71,448.82a3.32,3.32,0,0,0,.48-2.08,6.76,6.76,0,0,0-.39-2.33,6.57,6.57,0,0,0-.59-1.27,1.78,1.78,0,0,0-1.41-1,1,1,0,0,0-.86.63,2.82,2.82,0,0,0-.19.79,4.58,4.58,0,0,0,.06,1.44,4.82,4.82,0,0,0,1,2.16c.88,1.07,1.75,1.29,1.77,1.21s-.68-.47-1.36-1.51a4.94,4.94,0,0,1-.75-2,4.59,4.59,0,0,1,0-1.23c.05-.46.21-.83.38-.79s.58.32.77.67a6.73,6.73,0,0,1,.58,1.13,7.85,7.85,0,0,1,.5,2.12C361.79,448,361.6,448.79,361.71,448.82Z" style="fill:#263238"></path><path d="M374.36,436.23,376,458.14s-21.74,7.48-21.82,11.56l42.63-.15-1.22-34.24Z" style="fill:#407BFF"></path><path d="M389.14,455.76a1.73,1.73,0,0,1,1.28,1.93,1.66,1.66,0,0,1-1.9,1.29,1.83,1.83,0,0,1-1.35-2.05,1.74,1.74,0,0,1,2.13-1.13" style="fill:#263238"></path><path d="M396.85,469.55l-.12-3.45-41.16,1.57A3,3,0,0,0,354,470Z" style="fill:#263238"></path><path d="M375.34,458c0,.21,1.06.26,2.11.89s1.64,1.48,1.82,1.39-.17-1.28-1.45-2S375.29,457.77,375.34,458Z" style="fill:#263238"></path><path d="M371,460c0,.21.88.53,1.62,1.38s1,1.77,1.19,1.75.29-1.2-.65-2.24S371,459.79,371,460Z" style="fill:#263238"></path><path d="M368.63,465.44c.19,0,.44-1-.14-2.14s-1.57-1.53-1.65-1.35.54.76,1,1.69S368.43,465.42,368.63,465.44Z" style="fill:#263238"></path><path d="M375.51,452.92c.1.18,1-.14,2.22-.11s2.11.37,2.21.18-.81-.89-2.2-.9S375.4,452.76,375.51,452.92Z" style="fill:#263238"></path><path d="M375.25,448.49a4,4,0,0,0,2.14-.1,9.54,9.54,0,0,0,2.2-.77,10.65,10.65,0,0,0,1.2-.7,2.62,2.62,0,0,0,.62-.53.9.9,0,0,0,0-1.11,1.12,1.12,0,0,0-.93-.44,2.94,2.94,0,0,0-.79.14,8.11,8.11,0,0,0-1.31.51,7.64,7.64,0,0,0-1.91,1.37c-1,1-1.26,1.75-1.19,1.79s.55-.61,1.53-1.4a7.91,7.91,0,0,1,1.86-1.15,7.18,7.18,0,0,1,1.21-.43c.44-.14.83-.16.95,0s.05.1,0,.24a2.11,2.11,0,0,1-.46.38,8.71,8.71,0,0,1-1.1.69,11.66,11.66,0,0,1-2,.88A16.44,16.44,0,0,0,375.25,448.49Z" style="fill:#263238"></path><path d="M375.54,448.78a3.41,3.41,0,0,0,.48-2.08,6.86,6.86,0,0,0-1-3.6,1.75,1.75,0,0,0-1.4-1,1,1,0,0,0-.87.63,2.82,2.82,0,0,0-.19.79,5.27,5.27,0,0,0,.06,1.44,4.93,4.93,0,0,0,1,2.16c.88,1.07,1.76,1.29,1.77,1.22s-.67-.48-1.35-1.52a4.8,4.8,0,0,1-.76-2,4.22,4.22,0,0,1,0-1.23c.05-.45.2-.83.37-.79s.59.32.78.67a7.14,7.14,0,0,1,.57,1.14,7.36,7.36,0,0,1,.5,2.11C375.61,448,375.42,448.75,375.54,448.78Z" style="fill:#263238"></path><path d="M346,224.5s-12.67,28.76-12.67,49,5.11,73.38,5.11,73.38,4,29.5,5.92,53.93,4.54,47.26,4.54,47.26h24.62l27,.74s7.75-39,9.08-54.35c1.26-14.61,2.53-37.76,2.53-37.76s4.25-48.33,5.78-57.8c4.19-26,3-46.28-1.25-54.23l-8.84-17.41Z" style="fill:#263238"></path><path d="M373.19,288.72c.16,0,.29,35.59.29,79.47s-.13,79.48-.29,79.48-.28-35.58-.28-79.48S373,288.72,373.19,288.72Z" style="fill:#455a64"></path><path d="M398.38,152.58a66.54,66.54,0,0,0,4-7.31l12,3.79s-4.46,74.18-6.84,77.47-20.48,2.41-20.48,2.41l-42.24-1.54-.09-46.05-2.89-33.26L356,143.45s-2.72,19,20.33,20C376.33,163.43,388.92,164.86,398.38,152.58Z" style="fill:#407BFF"></path><g style="opacity:0.30000000000000004"><path d="M406.78,225.36c-.54-3.33-1.08-6.65-1.61-10-1-6.12-2-12.41-5.23-17.72s-9.1-9.47-15.25-8.74c-2.73.33-5.7,2.15-5.74,4.9-.4,1.47.94,7.64,1.62,9s3,1.87,3.69.51c.46-.9,0-2.19.77-2.89a1.64,1.64,0,0,1,2.3.42,5,5,0,0,1,.72,2.52,39.35,39.35,0,0,0,4,14.36,21.92,21.92,0,0,0,10.64,10.14c1.37.57,3.32.76,4-.57A3.34,3.34,0,0,0,406.78,225.36Z"></path></g><path d="M414.37,148.89s10.8,7.32,9.88,24.83c-.76,14.46-3.86,40-6,46.28s-7.23,9.4-11.08,8.67-7-4.09-9.89-13.25-6.5-21.21-6.5-21.21l9.4-10.37,7.37,14.22Z" style="fill:#9b6b62"></path><path d="M414.37,148.89s11.18,4.37,13.42,18.59,3.91,25.07,3.37,25.08c0,0-23.47,1.71-23.63,1.14S414.37,148.89,414.37,148.89Z" style="fill:#407BFF"></path><path d="M411.53,164.74c.14,0-.64,7.49-1.75,16.69s-2.12,16.65-2.26,16.63.64-7.49,1.75-16.69S411.39,164.72,411.53,164.74Z" style="fill:#263238"></path><path d="M352.44,148.41h-.12a1.1,1.1,0,1,0,.12,0Z" style="fill:#fff"></path><path d="M354.59,155l-.13,0a1.14,1.14,0,1,0,.13,0Z" style="fill:#fff"></path><path d="M360.17,160.45h-.12a1.09,1.09,0,1,0,.12,0Z" style="fill:#fff"></path><path d="M369.49,164.25h-.12a1.1,1.1,0,1,0,.12,0Z" style="fill:#fff"></path><path d="M387.59,163.75h-.12a1.09,1.09,0,1,0,.12,0Z" style="fill:#fff"></path><path d="M394.22,159.64l-.13,0a1.14,1.14,0,1,0,.13,0Z" style="fill:#fff"></path><path d="M399.86,154.18h-.12a1.09,1.09,0,1,0,.12,0Z" style="fill:#fff"></path><path d="M403.79,147.21h-.13a1.09,1.09,0,1,0,.13,0Z" style="fill:#fff"></path><path d="M378.54,165.23h-.12a1.1,1.1,0,1,0,.12,0Z" style="fill:#fff"></path><rect x="351.58" y="174.13" width="16.79" height="4.31" style="fill:#fff"></rect><path d="M415.75,218.7s.2-.27.46-.79a5,5,0,0,0,.51-2.36,9.15,9.15,0,0,0-.87-3.52c-.58-1.23-1.42-2.55-2.24-3.94l-4.42-7c-.55-.9-1-1.65-1.28-2.17s-.43-.82-.39-.84a27.4,27.4,0,0,1,2,2.81c1.18,1.77,2.85,4.18,4.55,6.95a42.55,42.55,0,0,1,2.24,4,9.11,9.11,0,0,1,.8,3.71,4.84,4.84,0,0,1-.7,2.46C416.05,218.53,415.77,218.72,415.75,218.7Z" style="fill:#704f4a"></path><path d="M353.92,184.75c.58.35,28,27.59,28,27.59l-29.69,33.85-26-25.13Z" style="fill:#e0e0e0"></path><path d="M351.79,184c.59.36,28.44,28.19,28.44,28.19l-30.14,34.59-26.38-25.68Z" style="fill:#455a64"></path><polygon points="343.88 207.96 359.33 207.21 360.49 222.89 343.88 207.96" style="fill:#263238"></polygon><rect x="342.77" y="211.02" width="14.59" height="13.47" transform="translate(237.15 -178.74) rotate(42.22)" style="fill:#263238"></rect><rect x="359.16" y="210.5" width="2.27" height="5.64" transform="translate(236.81 -186.77) rotate(42.22)" style="fill:#263238"></rect><path d="M341.67,148.05a23.11,23.11,0,0,0-9.89,12.3c-2.07,6.48-16.39,53.26-14.46,58.57s4.1,6.5,6.75,7.71,16.15,3.85,25.31,4.1l2.41-12.3-18.09-8.18,9.69-23.45Z" style="fill:#9b6b62"></path><path d="M333.76,210.35a12.72,12.72,0,0,1-1.63-.37,9.84,9.84,0,0,0-3.93.05c-3.07.67-5,2.53-5.1,2.38a4.05,4.05,0,0,1,1.23-1.18,10,10,0,0,1,3.76-1.7,8.62,8.62,0,0,1,4.13.09A3.59,3.59,0,0,1,333.76,210.35Z" style="fill:#704f4a"></path><path d="M342.37,147.82s-5.05,1.56-9,8.52-13.68,33-13.68,33L343,195.61l3.26-4.27Z" style="fill:#407BFF"></path><path d="M342.55,170.1a21.3,21.3,0,0,1,.09,3.19,41,41,0,0,0,.69,7.6,75.59,75.59,0,0,0,2.05,7.38,19.93,19.93,0,0,1,.86,3.07,18.34,18.34,0,0,1-1.2-3,53.13,53.13,0,0,1-2.22-7.39,33.72,33.72,0,0,1-.55-7.71c0-1,.09-1.78.15-2.33A3,3,0,0,1,342.55,170.1Z" style="fill:#263238"></path><path d="M351.79,218.52s10.15-5,11-4.87,13.78,1.56,13.78,1.56.91,2-1.88,3.12c-1.79.68-6,.35-8.78.47a6.92,6.92,0,0,0-2.74.71l6.2,2.71,6.81-.26,2.77-4.37s1.31-.08,1.31,1.56a48,48,0,0,1-1.06,6.29l-3.35,1.92-1.9,2.78-.41,1.72s-6.15,3.94-8.37,3.45-15.76-4.5-15.76-4.5Z" style="fill:#9b6b62"></path><path d="M379.17,225.6A29.64,29.64,0,0,1,375.3,228a26.46,26.46,0,0,1-2.9,1.41,2.88,2.88,0,0,1-1.3.34c0-.08.43-.29,1.15-.67l2.8-1.54C377.22,226.26,379.11,225.44,379.17,225.6Z" style="fill:#704f4a"></path><path d="M366.56,218.84a14.22,14.22,0,0,1-2.14.35c-1.15.26-2.13.47-2.17.32a4.32,4.32,0,0,1,2.07-.83A3,3,0,0,1,366.56,218.84Z" style="fill:#704f4a"></path><path d="M374.06,229.87c.1.1-.55.88-1.61,1.52a3.44,3.44,0,0,1-2.1.7c-.05-.14.83-.54,1.83-1.15S374,229.76,374.06,229.87Z" style="fill:#704f4a"></path><path d="M372.86,109.22,361.46,82a23.58,23.58,0,0,0-11.81,14.66c-1.24,4.67-1,9.58-.77,14.4q.94,18.72,1.88,37.45a5.61,5.61,0,0,0,.45,2.34c.84,1.65,3,2.08,4.81,2.2a46.56,46.56,0,0,0,10.15-.42c2-.3,4.15-.83,5.43-2.4a9,9,0,0,0,1.48-4.69A154.37,154.37,0,0,0,372.86,109.22Z" style="fill:#263238"></path><path d="M356,143.29l15.37-2.84h18.71l15.34,5.62L399.53,160s-14.48,1.83-14.66,2.38S373.73,172,373.73,172l-13.12-10-8.69-9.54Z" style="fill:#9b6b62"></path><path d="M369.67,77.92c-7.35,1.19-15.3,6.62-18.17,13.49s-2.57,15.72-2.45,23.16c2.27-.46,3.71.62,6,.46a5.69,5.69,0,0,0,3.69-2.38,38.41,38.41,0,0,0,5.11-9.27q5-11.58,9.89-23.23Z" style="fill:#263238"></path><path d="M373.19,81.66a19,19,0,0,0-18.54,18.08c-.42,8.61-.65,17.29-.29,20.39,1.1,9.35,6.61,12.25,9,13.11a18.28,18.28,0,0,0,3,.52s.06,0,.06.07l-1,11c-.23,7.15,4.43,13,11.7,13.3s12.35-5.72,12.72-12.88L392,100.36A18.43,18.43,0,0,0,373.19,81.66Z" style="fill:#9b6b62"></path><path d="M359.12,104.7a1.51,1.51,0,0,0,1.41,1.57,1.46,1.46,0,0,0,1.62-1.29,1.5,1.5,0,0,0-1.4-1.57A1.46,1.46,0,0,0,359.12,104.7Z" style="fill:#263238"></path><path d="M357.13,102.16c.17.21,1.38-.57,3-.47s2.78,1,3,.8-.07-.46-.57-.87a4.13,4.13,0,0,0-2.37-.88,4,4,0,0,0-2.42.62C357.23,101.72,357,102.07,357.13,102.16Z" style="fill:#263238"></path><path d="M375.28,105.06a1.49,1.49,0,0,0,1.4,1.56,1.45,1.45,0,0,0,1.63-1.29,1.48,1.48,0,0,0-1.4-1.56A1.45,1.45,0,0,0,375.28,105.06Z" style="fill:#263238"></path><path d="M373.56,103.05c.22.2,1.36-.91,3.12-1.11s3.15.57,3.32.33-.17-.5-.78-.86a4.28,4.28,0,0,0-2.68-.54,4.33,4.33,0,0,0-2.46,1.16C373.59,102.53,373.45,103,373.56,103.05Z" style="fill:#263238"></path><path d="M366.74,114.69a11.2,11.2,0,0,0-2.64-.57c-.42-.06-.81-.16-.87-.44a2.15,2.15,0,0,1,.33-1.21l1.38-3.08c1.91-4.39,3.32-8,3.14-8.09s-1.88,3.43-3.79,7.82L363,112.23a2.37,2.37,0,0,0-.29,1.6,1,1,0,0,0,.67.63,2.85,2.85,0,0,0,.7.12A10.56,10.56,0,0,0,366.74,114.69Z" style="fill:#263238"></path><path d="M366.44,133.76s6.07.05,10.13-2.11c0,0-1.79,5.08-10.4,5.07Z" style="fill:#704f4a"></path><path d="M367.26,118.6a3,3,0,0,1,2.7-1,2.72,2.72,0,0,1,1.82,1.06,1.64,1.64,0,0,1,0,1.92,2,2,0,0,1-2.17.45,6.25,6.25,0,0,1-2-1.31,1.91,1.91,0,0,1-.45-.49.54.54,0,0,1,0-.6" style="fill:#704f4a"></path><path d="M371.52,116c-.27,0-.35,1.72-1.93,2.91s-3.46.91-3.48,1.16.4.35,1.2.4a4.49,4.49,0,0,0,2.91-.86,3.83,3.83,0,0,0,1.5-2.44C371.82,116.43,371.64,116,371.52,116Z" style="fill:#263238"></path><path d="M373,97.84c.19.42,1.81.08,3.74.15s3.53.45,3.75,0c.1-.2-.2-.58-.86-1a6.26,6.26,0,0,0-2.83-.72,6.45,6.45,0,0,0-2.88.58C373.26,97.27,372.93,97.64,373,97.84Z" style="fill:#263238"></path><path d="M357.44,96.7c.28.38,1.42,0,2.78.07s2.5.35,2.78,0c.12-.18,0-.55-.53-.92a3.93,3.93,0,0,0-2.23-.68,3.88,3.88,0,0,0-2.25.65C357.5,96.14,357.32,96.52,357.44,96.7Z" style="fill:#263238"></path><path d="M379.66,224c.07,0,0,.67-.91,1.06a4.81,4.81,0,0,1-1.51.31l-1.8.15a21.1,21.1,0,0,1-4.66.08,21.43,21.43,0,0,1,4.62-.6,23.29,23.29,0,0,0,3.21-.28C379.37,224.48,379.59,224,379.66,224Z" style="fill:#407BFF"></path><path d="M382.16,96.17c3.57,1.11,4.38,32.46,2.2,48.63a9,9,0,0,0,0,3.84,3,3,0,0,0,2.77,2.27c1.43-.08,2.38-1.49,2.92-2.82s1-2.82,2.19-3.6c1.71-1.12,4.07-.24,6-1,1.45-.56,4.41,1.26,4.8-.24a14.79,14.79,0,0,0,.22-4.65c-.51-8.68.23-16.63-.28-25.31a85.53,85.53,0,0,0-1.62-14.11c-1.07-4.62-6.2-13.13-9.37-16.65-5.57-6.19-16.15-10.63-23.09-4.52C368.89,78.05,371.14,92.74,382.16,96.17Z" style="fill:#263238"></path><path d="M400.61,97.25a8,8,0,0,1-1.49-.06,15,15,0,0,1-1.74-.2c-.68-.12-1.45-.21-2.29-.42s-1.76-.4-2.73-.72-2-.66-3.06-1.06a42,42,0,0,1-6.59-3.42,42.66,42.66,0,0,1-5.8-4.63c-.8-.82-1.57-1.58-2.21-2.36a28,28,0,0,1-1.77-2.21c-.53-.67-.93-1.35-1.31-1.92a15.24,15.24,0,0,1-.89-1.51,8.59,8.59,0,0,1-.67-1.34c.1-.06,1.08,1.84,3.17,4.55.52.67,1.1,1.41,1.79,2.14s1.43,1.51,2.23,2.3a39.88,39.88,0,0,0,12.23,8c1,.41,2,.82,3,1.1s1.85.56,2.68.77C398.49,97,400.63,97.14,400.61,97.25Z" style="fill:#455a64"></path><path d="M401.35,99.22a8.76,8.76,0,0,1-1.48,0c-.95-.05-2.31-.2-4-.45a46.12,46.12,0,0,1-12.69-3.83A36.29,36.29,0,0,1,377,91.05a26.85,26.85,0,0,1-2.39-2.13c-.35-.36-.71-.69-1-1l-.86-1A19.58,19.58,0,0,1,371.31,85a11,11,0,0,1-.91-1.47,8.79,8.79,0,0,1-.67-1.31c.11-.07,1,1.83,3.24,4.39l.87,1c.32.34.68.66,1,1,.69.71,1.53,1.35,2.38,2.06a37.57,37.57,0,0,0,6.17,3.76,50.66,50.66,0,0,0,12.52,3.94c1.66.29,3,.5,3.95.61A7.69,7.69,0,0,1,401.35,99.22Z" style="fill:#455a64"></path><path d="M389.48,195.31s-6.06-2.74-6.57-3.63-1.46-2.68-1.46-2.68-1.53.38-1.85-.83a5.63,5.63,0,0,1,0-2.48s-2.43-3.32-2.36-4.53.12-2.81,2.36-2.23l3.76-3.77c.38-.38,3.38-3.18,5.16-1.53a23.6,23.6,0,0,0,4.15,2.94s2-.9,3,.57.95,2.11.95,2.11,1.4.76,1.66,1.72a9.59,9.59,0,0,0,1,2.1s1.59.51,1.34,2.81a34.27,34.27,0,0,1-1.66,6.05s-1.28,5-4.15,4.85A13.5,13.5,0,0,1,389.48,195.31Z" style="fill:#9b6b62"></path><path d="M379.61,179.16s-.13.22-.31.62a2.24,2.24,0,0,0-.11,1.71,1.58,1.58,0,0,0,.75.84,1.83,1.83,0,0,0,1.31,0,5,5,0,0,0,2.64-1.84c.7-1,1.44-1.9,2.1-2.72a8.07,8.07,0,0,1,1-1.16,2.29,2.29,0,0,1,1.31-.49,13.12,13.12,0,0,1,1.91.1,4,4,0,0,1,.69,0s-.23.13-.69.16-1.11,0-1.87.05a2,2,0,0,0-1.07.46,8.5,8.5,0,0,0-.93,1.12c-.64.84-1.33,1.74-2.06,2.75a5.31,5.31,0,0,1-2.92,2,2.28,2.28,0,0,1-1.63-.09,1.9,1.9,0,0,1-.9-1.1,2.26,2.26,0,0,1,.28-1.94C379.38,179.29,379.59,179.14,379.61,179.16Z" style="fill:#704f4a"></path><path d="M381,188.69a4.7,4.7,0,0,0,2.24-.95,34.65,34.65,0,0,0,4.17-4.37l2.22-2.53a5.11,5.11,0,0,1,2.3-1.63,3.31,3.31,0,0,1,1.91,0c.43.14.62.31.61.33s-.24-.06-.66-.13a3.42,3.42,0,0,0-1.75.12c-1.44.45-2.63,2.4-4.24,4.14A26.25,26.25,0,0,1,383.4,188a3.92,3.92,0,0,1-1.76.71A1.17,1.17,0,0,1,381,188.69Z" style="fill:#704f4a"></path><path d="M384,187.32a3.46,3.46,0,0,1-.28.71,3,3,0,0,0-.23,1.91,1.76,1.76,0,0,0,.74,1,1.32,1.32,0,0,0,1.34,0,6.36,6.36,0,0,0,1.34-1.11c.44-.44.89-.91,1.34-1.39a25.59,25.59,0,0,1,5.09-4.61,9.39,9.39,0,0,1,1.89-.91,2,2,0,0,1,.76-.16c0,.09-1,.39-2.45,1.38a30.75,30.75,0,0,0-4.91,4.66c-.45.48-.91,1-1.37,1.4a6.42,6.42,0,0,1-1.47,1.17,1.79,1.79,0,0,1-1.79,0,2.07,2.07,0,0,1-.86-1.28,3,3,0,0,1,.4-2.1C383.76,187.51,383.94,187.31,384,187.32Z" style="fill:#704f4a"></path><path d="M395.92,188.13c.12-.08.56.42,1.29.7s1.38.23,1.42.37-.71.47-1.61.11S395.78,188.19,395.92,188.13Z" style="fill:#704f4a"></path><path d="M399.24,183.71a6.11,6.11,0,0,1-.78-.47,1.92,1.92,0,0,0-2.2.07c-.82.6-1.8,1.44-2.9,2.29a7.27,7.27,0,0,0-2.77,3.31,1.64,1.64,0,0,0,0,1.22,1,1,0,0,0,.95.44,5.46,5.46,0,0,0,2.16-1.12l3.39-2.26.07,0,.07,0a2.47,2.47,0,0,0,1.49.05c.35-.1.52-.2.54-.17s-.14.17-.49.32a2.51,2.51,0,0,1-1.64.09l.14,0L394,189.82l-1,.73a2.87,2.87,0,0,1-1.35.53,1.5,1.5,0,0,1-1.44-.7,2.17,2.17,0,0,1-.06-1.62,7.48,7.48,0,0,1,3-3.54c1.13-.84,2.09-1.61,3-2.22a2.12,2.12,0,0,1,1.46-.36,2.51,2.51,0,0,1,1,.43C399.06,183.43,399.26,183.69,399.24,183.71Z" style="fill:#704f4a"></path><path d="M376.06,188.5c-.05,0-4.46,3.93-4.46,3.93v.63h.72v3.72h8.21v-4h1v-.71Z" style="fill:#455a64"></path><path d="M382.75,190.19a3.64,3.64,0,1,0-4.55,3.45l0,1,1,.73-1,.6,0,1.27,1,.73-1,.6,0,1.09.61.44-.63.37v.63l.77.85,1.49-.92.16-7.54A3.63,3.63,0,0,0,382.75,190.19Zm-3.58-2.73a1,1,0,1,1-1.07,1A1,1,0,0,1,379.17,187.46Z" style="fill:#263238"></path><path d="M382.75,190.19a3.64,3.64,0,1,0-4.55,3.45l0,1,1,.73-1,.6,0,1.27,1,.73-1,.6,0,1.09.61.44-.63.37v.63l.77.85,1.49-.92.16-7.54A3.63,3.63,0,0,0,382.75,190.19Zm-3.58-2.73a1,1,0,1,1-1.07,1A1,1,0,0,1,379.17,187.46Z" style="fill:none"></path><path d="M379.17,187.46s-.1,0-.25,0a1,1,0,0,0-.57.37,1,1,0,0,0-.15.95,1,1,0,0,0,.92.68,1,1,0,0,0,.84-1.6,1.11,1.11,0,0,0-.54-.39,2.12,2.12,0,0,0-.25,0s0,0,.06,0l.2,0a1,1,0,0,1,.58.39,1,1,0,0,1,.15,1,1.09,1.09,0,0,1-1,.7,1.13,1.13,0,0,1-.64-.23,1.07,1.07,0,0,1-.36-.51,1.1,1.1,0,0,1,.18-1,1,1,0,0,1,.61-.36.76.76,0,0,1,.19,0S379.17,187.45,379.17,187.46Z" style="fill:#263238"></path><path d="M382.75,190.19v.29a3.5,3.5,0,0,1-.17.82,3.57,3.57,0,0,1-.65,1.17,3.82,3.82,0,0,1-1.45,1.06v0c0,1.95-.08,4.54-.14,7.54v0h0l-1.49.92,0,0,0,0-.77-.85h0v0c0-.19,0-.41,0-.63v0h0l.63-.36v.07l-.62-.44v0c0-.34,0-.72,0-1.09v0h0l1-.6V198l-1-.73,0,0v-.36c0-.31,0-.62,0-.93v0l0,0,1-.6v.08l-1-.73,0,0v0c0-.34,0-.68,0-1l0,0a3.63,3.63,0,0,1-1.51-.81,3.39,3.39,0,0,1-.57-.63,4.33,4.33,0,0,1-.4-.73,3.68,3.68,0,0,1,4.54-4.89,3.67,3.67,0,0,1,1.62,1.08,3.62,3.62,0,0,1,.72,1.27l.05.14,0,.13c0,.09,0,.17,0,.25a3.29,3.29,0,0,1,0,.38v0c0-.1,0-.23-.05-.38s0-.15-.06-.24l0-.13-.05-.14a3.47,3.47,0,0,0-.72-1.25,3.65,3.65,0,0,0-1.61-1,3.6,3.6,0,0,0-4.44,4.8,4.1,4.1,0,0,0,.39.71,4,4,0,0,0,.55.61,3.71,3.71,0,0,0,1.49.8h0v0c0,.33,0,.67,0,1l0,0,1,.73.05,0-.06,0-1,.6,0,0c0,.31,0,.62,0,.93v.34l0,0,1,.73.06,0-.06,0-1,.6,0,0c0,.38,0,.75,0,1.09l0,0,.61.45.05,0-.05,0-.63.37,0,0c0,.22,0,.44,0,.63v0l.77.85h0l1.49-.92,0,0c.07-3,.12-5.59.17-7.54v0h0a3.72,3.72,0,0,0,1.44-1,3.85,3.85,0,0,0,.66-1.15,5.42,5.42,0,0,0,.18-.81v-.22A.32.32,0,0,0,382.75,190.19Z" style="fill:#263238"></path><path d="M382.37,190a3.64,3.64,0,1,0-4.56,3.45h0l0,1,1,.73-1,.6,0,1.27,1,.73-1,.6,0,1.09.61.44-.63.37v.63l.77.85,1.49-.92.15-7.54A3.64,3.64,0,0,0,382.37,190Zm-3.58-2.73a1,1,0,1,1-1.07,1A1,1,0,0,1,378.79,187.26Z" style="fill:#e0e0e0"></path><path d="M382.37,190a3.64,3.64,0,1,0-4.56,3.45h0l0,1,1,.73-1,.6,0,1.27,1,.73-1,.6,0,1.09.61.44-.63.37v.63l.77.85,1.49-.92.15-7.54A3.64,3.64,0,0,0,382.37,190Zm-3.58-2.73a1,1,0,1,1-1.07,1A1,1,0,0,1,378.79,187.26Z" style="fill:none"></path><path d="M378.79,187.26a1.19,1.19,0,0,0-.26,0,1.06,1.06,0,0,0-.56.37,1,1,0,0,0,.77,1.63,1,1,0,0,0,.84-1.6,1.11,1.11,0,0,0-.54-.39.94.94,0,0,0-.25-.05h.06l.19,0a1,1,0,0,1,.59.39,1,1,0,0,1,.15,1,1.09,1.09,0,0,1-1,.7,1.13,1.13,0,0,1-.64-.23,1.09,1.09,0,0,1-.18-1.53,1,1,0,0,1,.61-.36.72.72,0,0,1,.19,0Z" style="fill:#263238"></path><path d="M382.37,190v.29a3.43,3.43,0,0,1-.17.81,3.51,3.51,0,0,1-.65,1.18,3.79,3.79,0,0,1-1.46,1.06l0,0c0,1.95-.08,4.54-.14,7.54v0h0l-1.49.92,0,0,0,0-.77-.85h0v0c0-.19,0-.41,0-.63v0h0l.63-.36V200l-.62-.45h0v0c0-.34,0-.72,0-1.09v0h0l1-.6v.08l-1-.73,0,0v-.36c0-.31,0-.62,0-.93v0l0,0,1-.6v.08l-1-.73,0,0v0c0-.34,0-.68,0-1l0,0a3.73,3.73,0,0,1-1.52-.81,3.43,3.43,0,0,1-.56-.64,3.89,3.89,0,0,1-.4-.72,3.67,3.67,0,0,1,6.16-3.81,3.54,3.54,0,0,1,.72,1.27l.05.14,0,.13c0,.09,0,.17.05.25s0,.28,0,.38V190a.45.45,0,0,0,0-.08v-.24c0-.1,0-.23,0-.38s0-.15-.06-.24l0-.13-.05-.14a3.62,3.62,0,0,0-4.66-2.26,3.61,3.61,0,0,0-2.11,4.76,4.1,4.1,0,0,0,.39.71,3.53,3.53,0,0,0,.55.61,3.74,3.74,0,0,0,1.48.8h0v0c0,.33,0,.67,0,1l0,0,1,.73.06,0-.06,0-1,.6,0,0,0,.93v.3l1,.73.06,0-.06,0-1,.6,0,0c0,.38,0,.75,0,1.09v0l.61.45.05,0-.06,0-.62.37,0,0c0,.22,0,.44,0,.63v0l.77.85h0l1.49-.92,0,0c.06-3,.12-5.59.17-7.54v0h0a3.69,3.69,0,0,0,1.45-1,3.79,3.79,0,0,0,.65-1.15,4.6,4.6,0,0,0,.19-.81v-.22A.42.42,0,0,0,382.37,190Z" style="fill:#263238"></path><path d="M381.93,190a3.47,3.47,0,0,0-.1-.78,2.84,2.84,0,0,0-.34-.85,3,3,0,0,0-.79-.92,3.16,3.16,0,0,0-1.32-.61,3.07,3.07,0,0,0-2.47.52,2.56,2.56,0,0,0-.37.3,2.83,2.83,0,0,0-.32.36,3.14,3.14,0,0,0-.07,3.73,2.69,2.69,0,0,0,.3.37,2.66,2.66,0,0,0,.35.32,2.94,2.94,0,0,0,.79.44,3.1,3.1,0,0,0,1.66.18,3.17,3.17,0,0,0,1.35-.56,3.4,3.4,0,0,0,.83-.88,3.08,3.08,0,0,0,.37-.84,4.27,4.27,0,0,0,.13-.78s0,0,0,.05v.16a1.2,1.2,0,0,1,0,.24,2.73,2.73,0,0,1-.06.34,3,3,0,0,1-.37.85,3.18,3.18,0,0,1-.83.91,3.26,3.26,0,0,1-3.08.41,3.09,3.09,0,0,1-.81-.45c-.13-.1-.25-.21-.37-.32s-.21-.25-.31-.39a3.24,3.24,0,0,1,.08-3.84c.1-.13.22-.25.33-.37a2.79,2.79,0,0,1,.38-.3,3,3,0,0,1,.83-.43,3.31,3.31,0,0,1,1.7-.1,3.26,3.26,0,0,1,1.35.64,3.4,3.4,0,0,1,.8.94,3.29,3.29,0,0,1,.33.87,2.54,2.54,0,0,1,.05.34,1.19,1.19,0,0,1,0,.25V190S381.94,190,381.93,190Z" style="fill:#263238"></path><path d="M380,188.34a2.9,2.9,0,0,0-.05-.3,1.24,1.24,0,0,0-.43-.66,1.35,1.35,0,0,0-.5-.23,1.24,1.24,0,0,0-.63,0,1.19,1.19,0,0,0-.55.4,1.18,1.18,0,0,0,.51,1.82,1.12,1.12,0,0,0,.62.07,1.17,1.17,0,0,0,.51-.21,1.27,1.27,0,0,0,.46-.64c.05-.18.05-.29.06-.29v.08a1.22,1.22,0,0,1,0,.22,1.21,1.21,0,0,1-.46.69,1.35,1.35,0,0,1-.53.23,1.27,1.27,0,0,1-.66-.07,1.26,1.26,0,0,1-.58-.45,1.24,1.24,0,0,1-.24-.75,1.29,1.29,0,0,1,.27-.75,1.27,1.27,0,0,1,.6-.43,1.15,1.15,0,0,1,.66,0,1.24,1.24,0,0,1,.53.25,1.21,1.21,0,0,1,.42.7,1.31,1.31,0,0,1,0,.23A.45.45,0,0,0,380,188.34Z" style="fill:#263238"></path><path d="M379.46,201s0-1.72,0-3.84.1-3.83.12-3.83,0,1.72,0,3.83S379.49,201,379.46,201Z" style="fill:#263238"></path><path d="M379.43,188.5a4,4,0,0,1,1-7.91v1a3,3,0,0,0-.73,5.95Z" style="fill:#fafafa"></path><path d="M379.45,186.38c-.06,0,0-.38.23-.89a9.2,9.2,0,0,1,1.24-1.82,6.89,6.89,0,0,1,2.29-2.06,13.53,13.53,0,0,1-1.89,2.39c-.54.64-1,1.23-1.32,1.67S379.53,186.41,379.45,186.38Z" style="fill:#704f4a"></path><path d="M399.88,194.46s-.36.52-1.13,1.18a7,7,0,0,1-1.52,1,5.1,5.1,0,0,1-2.18.48,8.72,8.72,0,0,1-3.84-1,4.48,4.48,0,0,1-1.4-.84,5.47,5.47,0,0,1,1.54.51,10.67,10.67,0,0,0,3.7.82,5.94,5.94,0,0,0,3.47-1.23A6.34,6.34,0,0,1,399.88,194.46Z" style="fill:#704f4a"></path></g><g id="freepik--Sign--inject-53"><rect x="167.92" y="400.93" width="14.92" height="54.36" style="fill:#263238"></rect><rect x="77.76" y="320.91" width="193.25" height="84.81" transform="translate(-14.72 7.44) rotate(-2.35)" style="fill:#fafafa"></rect><path d="M272.67,401.73s0-.52-.09-1.52-.11-2.47-.2-4.4c-.17-3.86-.41-9.55-.73-16.87C271,364.3,270.12,343.14,269,317l.19.18-193.07,8h0l.25-.27c1.22,29.75,2.39,58.41,3.46,84.73l-.26-.23,138.57-5.56,40.1-1.57,10.71-.41,2.77-.1,1,0-.92,0-2.75.13-10.66.47-40,1.7-138.73,5.8h-.24v-.25c-1.09-26.32-2.26-55-3.49-84.73v-.26h.28l193.08-7.84h.18V317c1,26.2,1.87,47.4,2.44,62.06.28,7.31.5,13,.65,16.84.07,1.92.12,3.38.15,4.37S272.67,401.73,272.67,401.73Z" style="fill:#263238"></path><polygon points="206.38 339.66 216.36 328.69 227.77 338.55 206.38 339.66" style="fill:#407BFF"></polygon><rect x="210.22" y="335.67" width="14" height="12.92" transform="translate(-15.92 10.64) rotate(-2.71)" style="fill:#407BFF"></rect><rect x="220.08" y="329.48" width="2.17" height="5.41" transform="translate(-15.44 10.82) rotate(-2.71)" style="fill:#407BFF"></rect><path d="M174.75,405.68c-.15,0-1-18.93-2-42.3s-1.61-42.32-1.47-42.33,1,18.93,2,42.31S174.89,405.68,174.75,405.68Z" style="fill:#263238"></path><path d="M244.53,351.07c0,.14-11.7.74-26.13,1.33s-26.16,1-26.16.81,11.69-.74,26.13-1.33S244.52,350.92,244.53,351.07Z" style="fill:#263238"></path><path d="M230,355.61c0,.14-5.46.48-12.21.76s-12.22.38-12.23.24,5.46-.48,12.21-.76S230,355.47,230,355.61Z" style="fill:#263238"></path><path d="M190.85,366.76l.1,2.44,4.89-.2.1,2.42-4.89.2.16,3.8-3.14.13-.45-11.08,8.69-.35.1,2.42Z" style="fill:#263238"></path><path d="M197.18,370.86c-.1-2.58,1.86-4.49,4.66-4.61s4.92,1.64,5,4.22-1.83,4.53-4.66,4.64S197.29,373.46,197.18,370.86Zm6.65-.27a1.82,1.82,0,1,0-3.61.15,1.82,1.82,0,1,0,3.61-.15Z" style="fill:#263238"></path><path d="M213.82,365.76l.11,2.71a5.4,5.4,0,0,0-.68,0,1.87,1.87,0,0,0-2,2.2l.16,3.94-3,.13-.35-8.58L211,366l0,1A3.49,3.49,0,0,1,213.82,365.76Z" style="fill:#263238"></path><path d="M219.37,373.27l.93-2.35a7.1,7.1,0,0,0,3.7.94c1.3-.05,1.79-.44,1.77-1-.07-1.75-6.32-.21-6.49-4.33-.08-2,1.47-3.66,4.76-3.79a8.28,8.28,0,0,1,4.06.8l-.87,2.36a6.59,6.59,0,0,0-3.1-.72c-1.32.05-1.77.51-1.75,1.07.07,1.69,6.3.17,6.47,4.25.08,1.93-1.47,3.64-4.76,3.78A8.82,8.82,0,0,1,219.37,373.27Z" style="fill:#263238"></path><path d="M238.12,368.73l.2,4.76-2.8.12-.05-1.11a2.59,2.59,0,0,1-2.48,1.35c-2.06.09-3.24-1-3.31-2.51s1-2.61,3.71-2.72l1.71-.07c-.08-.87-.69-1.33-1.87-1.29a4.07,4.07,0,0,0-2.3.84l-1.1-2a7.28,7.28,0,0,1,3.75-1.15C236.36,364.84,238,366,238.12,368.73Zm-2.92,2.13,0-.74-1.3.05c-1,0-1.3.4-1.28.93s.45.85,1.16.82A1.49,1.49,0,0,0,235.2,370.86Z" style="fill:#263238"></path><path d="M239.73,361.67l3-.12.48,11.74-3,.12Z" style="fill:#263238"></path><path d="M253.74,369.32l-6.24.26a2,2,0,0,0,2.16,1.29,2.72,2.72,0,0,0,2-.82l1.65,1.58a4.66,4.66,0,0,1-3.6,1.54c-3,.13-5.11-1.68-5.21-4.24a4.43,4.43,0,0,1,4.53-4.61,4.31,4.31,0,0,1,4.78,4.26C253.76,368.8,253.74,369.09,253.74,369.32ZM247.39,368l3.51-.14a1.78,1.78,0,0,0-3.51.14Z" style="fill:#263238"></path><rect x="182.62" y="380.26" width="74.44" height="14.61" rx="4.51" transform="translate(-15.67 9.32) rotate(-2.35)" style="fill:#fff"></rect><path d="M117,353.76l6.54-17.62a15,15,0,0,1,7.9,9,29.45,29.45,0,0,1,.87,9.14l-.22,23.88a3.6,3.6,0,0,1-.22,1.5c-.5,1.07-1.84,1.4-3,1.53a30.42,30.42,0,0,1-6.47,0,5.3,5.3,0,0,1-3.52-1.4,5.57,5.57,0,0,1-1.06-2.94A98.31,98.31,0,0,1,117,353.76Z" style="fill:#263238"></path><path d="M128.6,375l-9.86-1.4-11.91.49-9.62,4,4.1,8.7s9.26.79,9.39,1.14,7.34,5.83,7.34,5.83l8.09-6.7,5.29-6.29Z" style="fill:#9b6b62"></path><path d="M128.58,375.1s2.23,12-12.42,13.25c0,0-8,1.23-14.31-6.33a42.86,42.86,0,0,1-2.75-4.55l-7.52,2.72s3.17,26.73,4.77,28.76l40.49-1.66-.09-8.36,1-21.24Z" style="fill:#455a64"></path><path d="M118.17,333.75c4.71.57,9.92,3.82,11.92,8.12s2,9.93,2.16,14.67c-1.46-.23-2.34.49-3.82.45a3.62,3.62,0,0,1-2.41-1.42,24.33,24.33,0,0,1-3.49-5.77q-3.51-7.23-6.9-14.52Z" style="fill:#263238"></path><path d="M116,336.22a12.1,12.1,0,0,1,12.27,11,118.31,118.31,0,0,1,.72,13c-.46,6-3.89,8-5.38,8.58a10.31,10.31,0,0,1-1.91.41.07.07,0,0,0,0,.05l.92,7c.34,4.54-2.48,8.4-7.1,8.76s-8-3.31-8.42-7.86l-2.56-28.49A11.75,11.75,0,0,1,116,336.22Z" style="fill:#9b6b62"></path><path d="M125.58,350.52a1,1,0,0,1-.85,1,.92.92,0,0,1-1.07-.77,1,1,0,0,1,.85-1A.93.93,0,0,1,125.58,350.52Z" style="fill:#263238"></path><path d="M126.79,348.85c-.11.14-.9-.33-1.94-.22s-1.74.7-1.87.59,0-.29.34-.57a2.71,2.71,0,0,1,1.49-.62,2.59,2.59,0,0,1,1.55.33C126.71,348.57,126.84,348.79,126.79,348.85Z" style="fill:#263238"></path><path d="M116.41,351.27c-.14.13-.89-.54-2-.62s-2,.44-2.11.29.1-.32.47-.57a2.82,2.82,0,0,1,1.7-.41,2.67,2.67,0,0,1,1.59.68C116.38,350.94,116.48,351.21,116.41,351.27Z" style="fill:#263238"></path><path d="M121,357.08a6.8,6.8,0,0,1,1.66-.44c.27,0,.51-.12.54-.3a1.34,1.34,0,0,0-.24-.76q-.45-.91-1-1.92a33.09,33.09,0,0,1-2.2-5.07,34.68,34.68,0,0,1,2.61,4.88l.93,1.94a1.54,1.54,0,0,1,.22,1,.65.65,0,0,1-.4.42,1.76,1.76,0,0,1-.45.1A6.79,6.79,0,0,1,121,357.08Z" style="fill:#263238"></path><path d="M121.69,369.21a16.26,16.26,0,0,1-6.51-1.08s1.27,3.18,6.76,2.95Z" style="fill:#704f4a"></path><path d="M120.77,359.58A1.92,1.92,0,0,0,119,359a1.71,1.71,0,0,0-1.13.72,1,1,0,0,0,0,1.22,1.26,1.26,0,0,0,1.39.23,3.82,3.82,0,0,0,1.26-.88,1.1,1.1,0,0,0,.28-.33.33.33,0,0,0,0-.38" style="fill:#704f4a"></path><path d="M118,358c.17,0,.27,1.09,1.3,1.8s2.23.49,2.25.65-.25.23-.76.29a2.94,2.94,0,0,1-1.87-.48,2.45,2.45,0,0,1-1-1.51C117.81,358.31,117.91,358,118,358Z" style="fill:#263238"></path><path d="M116.56,346.52c-.11.27-1.15.1-2.38.19s-2.23.38-2.38.12.11-.37.52-.63a4.08,4.08,0,0,1,1.78-.53A4,4,0,0,1,116,346C116.39,346.16,116.61,346.39,116.56,346.52Z" style="fill:#263238"></path><path d="M126.44,345.38c-.16.25-.9.07-1.76.12s-1.58.29-1.77.06,0-.36.31-.6a2.45,2.45,0,0,1,1.4-.5,2.51,2.51,0,0,1,1.45.36C126.4,345,126.52,345.26,126.44,345.38Z" style="fill:#263238"></path><path d="M110.7,345.69c-2.24.8-1.94,20.77-.13,31a5.75,5.75,0,0,1,.09,2.44,1.88,1.88,0,0,1-1.7,1.52c-.91,0-1.56-.89-1.93-1.72a4.63,4.63,0,0,0-1.49-2.24c-1.12-.66-2.6,0-3.83-.45-.94-.32-2.77.92-3.07,0a9.73,9.73,0,0,1-.26-3c.1-5.54-.57-10.58-.48-16.12a54.46,54.46,0,0,1,.67-9c.56-3,3.6-8.51,5.53-10.84,3.38-4.08,10-7.18,14.58-3.48C118.68,333.81,117.63,343.22,110.7,345.69Z" style="fill:#263238"></path><path d="M99,346.86c0-.09,1.34-.25,3.42-.87a25.11,25.11,0,0,0,3.56-1.35,28.86,28.86,0,0,0,4-2.34,27.67,27.67,0,0,0,3.53-3,26,26,0,0,0,2.45-2.91c1.27-1.76,1.86-3,2-2.94a3.6,3.6,0,0,1-.36.89,15.5,15.5,0,0,1-1.29,2.26,22.7,22.7,0,0,1-2.4,3,26,26,0,0,1-3.58,3.12,26.52,26.52,0,0,1-4.12,2.35,23.33,23.33,0,0,1-3.66,1.27,18,18,0,0,1-2.56.47A3.22,3.22,0,0,1,99,346.86Z" style="fill:#455a64"></path><path d="M98.57,348.13c0-.08,1.31-.26,3.4-.75a32.6,32.6,0,0,0,7.84-2.85,23.77,23.77,0,0,0,3.81-2.53,19.77,19.77,0,0,0,2.63-2.66c1.34-1.67,1.9-2.89,2-2.84a3.35,3.35,0,0,1-.36.87,7,7,0,0,1-.53,1,10,10,0,0,1-.82,1.22,17.35,17.35,0,0,1-2.61,2.81,22.37,22.37,0,0,1-3.87,2.62,28.31,28.31,0,0,1-8,2.75c-1.06.2-1.93.32-2.54.37A3,3,0,0,1,98.57,348.13Z" style="fill:#455a64"></path><path d="M91.58,380.09a15.2,15.2,0,0,0-8.06,12.18c-1.07,9.17-2,17.28-1.65,17.27l15.4-.73C97.36,408.44,91.58,380.09,91.58,380.09Z" style="fill:#455a64"></path><path d="M137.37,377.53s3.26.86,6,5.18,11.26,23.85,11.26,23.85l-17.77.73-.8-2Z" style="fill:#455a64"></path><path d="M137.83,391.71a6.67,6.67,0,0,1,.33,2,20,20,0,0,1-.12,4.94,30.6,30.6,0,0,1-1.25,4.77,7.83,7.83,0,0,1-.75,1.89,7.89,7.89,0,0,1,.4-2c.3-1.22.79-2.88,1.09-4.75a29.27,29.27,0,0,0,.27-4.84A9.22,9.22,0,0,1,137.83,391.71Z" style="fill:#263238"></path><path d="M93.8,390.1a87.81,87.81,0,0,1,1.78,9.37,89.32,89.32,0,0,1,1.27,9.46,87.7,87.7,0,0,1-1.78-9.38A83.14,83.14,0,0,1,93.8,390.1Z" style="fill:#263238"></path><path d="M131,378.17l.08,0a.75.75,0,0,1,.72,1,.71.71,0,1,1-.8-1Z" style="fill:#fff"></path><path d="M129.78,382.4h.08a.74.74,0,0,1,.72,1,.71.71,0,1,1-.8-1Z" style="fill:#fff"></path><path d="M126.37,386h.08a.74.74,0,0,1,.72,1,.71.71,0,1,1-.8-1Z" style="fill:#fff"></path><path d="M120.54,388.69h.07a.71.71,0,1,1-.47,1.16A.74.74,0,0,1,120.54,388.69Z" style="fill:#fff"></path><path d="M109,388.84h.07a.71.71,0,1,1-.47,1.16A.74.74,0,0,1,109,388.84Z" style="fill:#fff"></path><path d="M104.68,386.4h.08a.73.73,0,0,1,.72,1,.71.71,0,1,1-.8-1Z" style="fill:#fff"></path><path d="M101,383.07H101a.7.7,0,1,1-.08,0Z" style="fill:#fff"></path><path d="M98.27,378.74h.08a.7.7,0,1,1-.08,0Z" style="fill:#fff"></path><path d="M114.8,389.55h.08a.74.74,0,0,1,.72,1,.71.71,0,1,1-.8-1Z" style="fill:#fff"></path><path d="M157.27,391.72a6.8,6.8,0,0,1-2.81-2.82c-.6-1.63-1.79-11.59-1.79-11.59s1.27-.42,2.17,1.42a41.05,41.05,0,0,1,1.6,4.48s1-5.75,1.3-7.73c.29-1.73.84-4.34,1.76-4.43s.41,3.28.49,4.74.13,3.52.13,3.52,1.31-6.81,2.18-8.56c.63-1.28,2.12-.28,1.7,1.29,0,0,1.1-1.38,1.5,0s-1,8.05-.51,8.06,1.91-5.36,2.75-5.64c.48-.17.86.49.56,1.88s-2.65,11.79-3.32,13.13a3.47,3.47,0,0,1-1.39,1.68Z" style="fill:#9b6b62"></path><polygon points="157.23 390.22 154.06 406.58 164.39 406.16 163.76 390.65 157.23 390.22" style="fill:#9b6b62"></polygon><path d="M164,384.2c0,.09-.57.08-1.36.45a3.89,3.89,0,0,0-2.11,2.46c0,.12-.05.23-.08.34l-.13.61-.34-.5a3.53,3.53,0,0,0-2.59-1.48c-.8-.07-1.29.13-1.32.05a1.87,1.87,0,0,1,1.33-.4,3.58,3.58,0,0,1,3,1.54l-.47.11c0-.13.05-.27.08-.4a4,4,0,0,1,2.47-2.67A2,2,0,0,1,164,384.2Z" style="fill:#704f4a"></path><path d="M181.47,443.69a1.36,1.36,0,0,1,0,.3c0,.22-.09.5-.14.85a9.84,9.84,0,0,1-1.08,3.18,5.09,5.09,0,0,1-1.69,1.75,3.56,3.56,0,0,1-2.87.41,5,5,0,0,1-2.68-2,11.14,11.14,0,0,1-1.53-3.41,69.2,69.2,0,0,1-2.42-18c0-1.72-.06-3.48-.08-5.27a16.39,16.39,0,0,1,.52-5.52A4.29,4.29,0,0,1,174.2,413a5.5,5.5,0,0,1,2.79,1.15,6.71,6.71,0,0,1,1.82,2.43,10.68,10.68,0,0,1,.67,5.89c-.26,1.94-.78,3.77-1.2,5.58s-.88,3.59-1.3,5.33c-.23.88-.39,1.72-.67,2.61a4.79,4.79,0,0,1-.65,1.22,1.74,1.74,0,0,1-1.25.73,1.63,1.63,0,0,1-1.3-.62,4.3,4.3,0,0,1-.68-1.13,16.27,16.27,0,0,1-.91-2.33,17.23,17.23,0,0,1-.26-9.13,17.44,17.44,0,0,1,.61-2,7,7,0,0,1,.93-1.82,1.9,1.9,0,0,1,.83-.64,1.18,1.18,0,0,1,1.05.15,2.47,2.47,0,0,1,.8,1.72,27.92,27.92,0,0,1,.23,3.3,29.17,29.17,0,0,1-.41,5.28,27.63,27.63,0,0,1-.76,3.26c-.11.36-.21.64-.27.82a1.2,1.2,0,0,1-.12.28s0-.1.07-.29l.22-.84c.18-.74.44-1.83.66-3.26a30.73,30.73,0,0,0,.32-5.24,30,30,0,0,0-.27-3.27,2.18,2.18,0,0,0-.67-1.47,1,1,0,0,0-1.4.43,6.4,6.4,0,0,0-.84,1.72,15.51,15.51,0,0,0-.59,2,17,17,0,0,0-.44,4.32,17.33,17.33,0,0,0,.75,4.59,15.35,15.35,0,0,0,.89,2.26c.32.72.81,1.51,1.53,1.47s1.2-.88,1.47-1.64.42-1.7.64-2.55q.63-2.62,1.29-5.34c.42-1.81.94-3.65,1.19-5.53a10.21,10.21,0,0,0-.63-5.6,6.24,6.24,0,0,0-1.68-2.24,4.81,4.81,0,0,0-2.52-1,4,4,0,0,0-2.59.53,4,4,0,0,0-1.59,2.05,16,16,0,0,0-.5,5.35q0,2.68.06,5.25a70.12,70.12,0,0,0,2.29,18,11.14,11.14,0,0,0,1.45,3.32,4.75,4.75,0,0,0,2.49,1.89,3.28,3.28,0,0,0,2.66-.34,5,5,0,0,0,1.65-1.65,10.1,10.1,0,0,0,1.14-3.09l.19-.84A1.94,1.94,0,0,1,181.47,443.69Z" style="fill:#455a64"></path><path d="M163.41,459.86c-.09,0-.49-1.32-1.39-3.38a35.42,35.42,0,0,0-10.61-13.71c-1.76-1.39-3-2.12-2.91-2.2a3.73,3.73,0,0,1,.88.44,22.2,22.2,0,0,1,2.25,1.46,31.59,31.59,0,0,1,10.73,13.87,22,22,0,0,1,.85,2.55A3.41,3.41,0,0,1,163.41,459.86Z" style="fill:#263238"></path><path d="M138.7,444.07a2.76,2.76,0,0,1,.87,0,16.29,16.29,0,0,1,2.36.41,22.52,22.52,0,0,1,7.19,3.19,22.77,22.77,0,0,1,5.68,5.45,16.28,16.28,0,0,1,1.27,2c.26.5.39.78.35.8s-.69-1-1.92-2.6a24.93,24.93,0,0,0-12.67-8.51C139.92,444.32,138.69,444.16,138.7,444.07Z" style="fill:#263238"></path><path d="M195.38,426.38c.08.07-1.32,1.33-3.14,3.72a33.88,33.88,0,0,0-2.84,4.43,36.45,36.45,0,0,0-2.49,5.93,37,37,0,0,0-1.32,6.3,33.74,33.74,0,0,0-.19,5.26c.14,3,.58,4.83.47,4.85a7,7,0,0,1-.34-1.27,12.57,12.57,0,0,1-.27-1.52,18.23,18.23,0,0,1-.22-2,30.12,30.12,0,0,1,.07-5.33A32.13,32.13,0,0,1,189,434.3a30.86,30.86,0,0,1,3-4.43,18.75,18.75,0,0,1,1.34-1.54,11.36,11.36,0,0,1,1.09-1.1A5.77,5.77,0,0,1,195.38,426.38Z" style="fill:#263238"></path><path d="M198.64,435.33c.05.09-1.1.59-2.67,1.79a16.92,16.92,0,0,0-2.5,2.38,19,19,0,0,0-2.35,3.51,18.62,18.62,0,0,0-1.46,4,17.29,17.29,0,0,0-.46,3.43c0,2,.22,3.19.12,3.21a2.68,2.68,0,0,1-.24-.84,7.33,7.33,0,0,1-.16-1,11,11,0,0,1-.08-1.36,15.07,15.07,0,0,1,.35-3.53,16.9,16.9,0,0,1,3.92-7.68,15.31,15.31,0,0,1,2.65-2.36,8.51,8.51,0,0,1,1.15-.72,5.7,5.7,0,0,1,.91-.47C198.34,435.4,198.63,435.29,198.64,435.33Z" style="fill:#263238"></path><path d="M206.44,443.44a18.4,18.4,0,0,0-8.74,10.75,5.48,5.48,0,0,1,.43-2.08,14.49,14.49,0,0,1,2.48-4.48,15,15,0,0,1,3.88-3.35A5.55,5.55,0,0,1,206.44,443.44Z" style="fill:#263238"></path></g><g id="freepik--speech-bubble--inject-53"><path d="M440.29,54.48a26.76,26.76,0,0,0-21.17,43.16h0l-2.85,12.12,10-5.68a26.78,26.78,0,1,0,14-49.59Z" style="fill:#fff"></path><path d="M440.29,54.48h.47l1.39.05c.3,0,.64,0,1,0l1.22.17c.44.07.92.13,1.42.22l1.59.4a25.6,25.6,0,0,1,7.69,3.42,26.51,26.51,0,0,1,7.85,7.88,24.09,24.09,0,0,1,1.57,2.78c.23.49.49,1,.7,1.49s.39,1,.58,1.58a11.28,11.28,0,0,1,.51,1.65c.14.56.29,1.12.44,1.69l.27,1.77.13.9.05.91c0,.61.07,1.23.1,1.85s-.06,1.24-.09,1.88c0,.31,0,.63-.06,1l-.14,1c-.11.63-.17,1.28-.32,1.91a28.12,28.12,0,0,1-2.84,7.5,26.89,26.89,0,0,1-5.22,6.61,26.22,26.22,0,0,1-7.32,4.85,27.33,27.33,0,0,1-18.15,1.41,27.66,27.66,0,0,1-7-3h.27l-10,5.68a.25.25,0,0,1-.35-.1.22.22,0,0,1,0-.18c1-4.17,1.94-8.22,2.86-12.11a.23.23,0,0,1,.29-.18.18.18,0,0,1,.1,0h0l-.34.34a26.83,26.83,0,0,1-5.16-11.47,24.21,24.21,0,0,1-.43-5.9,20.4,20.4,0,0,1,.24-2.84,19.82,19.82,0,0,1,.52-2.72,27,27,0,0,1,4.26-9.25,25.9,25.9,0,0,1,6.17-6.16c.27-.19.53-.4.8-.58l.82-.49c.54-.31,1.05-.66,1.58-.92a28.76,28.76,0,0,1,3-1.34l1.41-.5c.46-.14.91-.24,1.34-.35l1.23-.31c.39-.08.77-.11,1.12-.17.72-.09,1.34-.22,1.89-.25l1.39,0,.84,0h.29l-.29,0-.84.06-1.38.09c-.54.05-1.16.18-1.87.29-.35.06-.73.1-1.12.19l-1.21.32c-.42.12-.87.22-1.32.36l-1.39.52a25.2,25.2,0,0,0-3,1.36c-.53.26-1,.61-1.56.92l-.81.5c-.27.17-.52.38-.78.57a25.56,25.56,0,0,0-6,6.13A26.67,26.67,0,0,0,414.5,75a19.8,19.8,0,0,0-.5,2.68,21.43,21.43,0,0,0-.23,2.8,24.38,24.38,0,0,0,.44,5.8,26.41,26.41,0,0,0,5.1,11.26.24.24,0,0,1,0,.35.26.26,0,0,1-.3,0h0l.39-.14c-.92,3.89-1.87,7.94-2.85,12.12l-.37-.28,10-5.69a.24.24,0,0,1,.26,0,26.53,26.53,0,0,0,24.69,1.61,25.26,25.26,0,0,0,7.19-4.75,26.5,26.5,0,0,0,5.15-6.48,28,28,0,0,0,2.8-7.36c.15-.62.21-1.26.32-1.88l.14-.93c0-.31,0-.62.06-.93,0-.63.07-1.24.1-1.85s-.06-1.22-.09-1.82l0-.9-.13-.88c-.09-.59-.18-1.17-.26-1.74s-.29-1.12-.43-1.68a10.09,10.09,0,0,0-.49-1.62c-.19-.52-.38-1-.56-1.56s-.46-1-.69-1.47a22.09,22.09,0,0,0-1.53-2.75,26.62,26.62,0,0,0-15.28-11.31l-1.58-.41c-.5-.11-1-.17-1.41-.24l-1.21-.2c-.37-.05-.71-.05-1-.08l-1.38-.09Z" style="fill:#263238"></path><polygon points="426.2 82.64 429.89 78.95 437 85.27 450.96 71.84 454.38 75.53 436.47 92.38 426.2 82.64" style="fill:#407BFF"></polygon></g></svg>